<svg width="769" height="204" viewBox="0 0 769 204" fill="none" xmlns="http://www.w3.org/2000/svg">
<g filter="url(#filter0_d_283_127)">
<rect x="4.5" y="0.5" width="760" height="195" rx="19.5" fill="white" stroke="black"/>
<path d="M70.825 156L72.45 148.975L67 144.25L74.2 143.625L77 137L79.8 143.625L87 144.25L81.55 148.975L83.175 156L77 152.275L70.825 156Z" fill="#FFC700"/>
<path d="M92.825 156L94.45 148.975L89 144.25L96.2 143.625L99 137L101.8 143.625L109 144.25L103.55 148.975L105.175 156L99 152.275L92.825 156Z" fill="#FFC700"/>
<path d="M114.825 156L116.45 148.975L111 144.25L118.2 143.625L121 137L123.8 143.625L131 144.25L125.55 148.975L127.175 156L121 152.275L114.825 156Z" fill="#FFC700"/>
<path d="M136.825 156L138.45 148.975L133 144.25L140.2 143.625L143 137L145.8 143.625L153 144.25L147.55 148.975L149.175 156L143 152.275L136.825 156Z" fill="#FFC700"/>
<path d="M158.825 156L160.45 148.975L155 144.25L162.2 143.625L165 137L167.8 143.625L175 144.25L169.55 148.975L171.175 156L165 152.275L158.825 156Z" fill="#FFC700"/>
<line x1="273.5" x2="273.5" y2="196" stroke="black"/>
<path d="M334 126H332V119H330V126H328V119H326V126C326 128.12 327.66 129.84 329.75 129.97V139H332.25V129.97C334.34 129.84 336 128.12 336 126V119H334V126ZM339 123V131H341.5V139H344V119C341.24 119 339 121.24 339 123Z" fill="black" fill-opacity="0.7"/>
<g filter="url(#filter1_i_283_127)">
<path d="M70.5998 66H64.8327L73.62 40.5455H80.5554L89.3303 66H83.5632L77.1871 46.3622H76.9883L70.5998 66ZM70.2393 55.9947H83.8615V60.1957H70.2393V55.9947ZM88.3049 40.5455H94.3329L100.137 51.5078H100.386L106.19 40.5455H112.218L102.934 57.0014V66H97.5893V57.0014L88.3049 40.5455ZM116.947 66H111.18L119.968 40.5455H126.903L135.678 66H129.911L123.535 46.3622H123.336L116.947 66ZM116.587 55.9947H130.209V60.1957H116.587V55.9947ZM160.032 40.5455V66H155.384L144.31 49.979H144.123V66H138.742V40.5455H143.465L154.452 56.554H154.676V40.5455H160.032ZM168.866 66H163.099L171.887 40.5455H178.822L187.597 66H181.83L175.454 46.3622H175.255L168.866 66ZM168.506 55.9947H182.128V60.1957H168.506V55.9947ZM66.2124 108V82.5455H76.255C78.1773 82.5455 79.8179 82.8893 81.1768 83.5771C82.544 84.2565 83.5839 85.2218 84.2965 86.473C85.0174 87.7159 85.3778 89.1784 85.3778 90.8604C85.3778 92.5508 85.0133 94.005 84.2841 95.223C83.5549 96.4328 82.4985 97.3608 81.1147 98.0071C79.7392 98.6534 78.0737 98.9766 76.1183 98.9766H69.3942V94.6513H75.2482C76.2757 94.6513 77.1291 94.5104 77.8086 94.2287C78.488 93.947 78.9935 93.5244 79.3249 92.9609C79.6647 92.3975 79.8345 91.6973 79.8345 90.8604C79.8345 90.0153 79.6647 89.3027 79.3249 88.7227C78.9935 88.1426 78.4839 87.7035 77.7962 87.4052C77.1167 87.0986 76.2591 86.9453 75.2234 86.9453H71.5941V108H66.2124ZM79.9588 96.4162L86.2852 108H80.3441L74.1545 96.4162H79.9588ZM97.4743 108.373C95.5106 108.373 93.8202 107.975 92.4033 107.18C90.9947 106.376 89.9092 105.241 89.1469 103.774C88.3846 102.299 88.0035 100.555 88.0035 98.5415C88.0035 96.5778 88.3846 94.8543 89.1469 93.3711C89.9092 91.8879 90.9823 90.732 92.366 89.9034C93.7581 89.0748 95.3904 88.6605 97.2631 88.6605C98.5225 88.6605 99.695 88.8635 100.78 89.2695C101.874 89.6673 102.827 90.268 103.639 91.0717C104.459 91.8755 105.097 92.8864 105.553 94.1044C106.009 95.3142 106.237 96.7311 106.237 98.3551V99.8093H90.1164V96.5281H101.253C101.253 95.7657 101.087 95.0904 100.756 94.5021C100.424 93.9138 99.9643 93.454 99.376 93.1225C98.796 92.7828 98.1207 92.6129 97.3501 92.6129C96.5463 92.6129 95.8337 92.7994 95.2123 93.1722C94.5991 93.5368 94.1185 94.0298 93.7705 94.6513C93.4225 95.2644 93.2443 95.948 93.2361 96.7021V99.8217C93.2361 100.766 93.4101 101.583 93.7581 102.27C94.1144 102.958 94.6157 103.488 95.262 103.861C95.9083 104.234 96.6747 104.42 97.5613 104.42C98.1497 104.42 98.6882 104.338 99.1771 104.172C99.666 104.006 100.084 103.758 100.432 103.426C100.78 103.095 101.046 102.689 101.228 102.208L106.125 102.531C105.876 103.708 105.367 104.735 104.596 105.614C103.834 106.484 102.848 107.163 101.638 107.652C100.437 108.133 99.0487 108.373 97.4743 108.373ZM125.576 94.353L120.729 94.6513C120.646 94.237 120.468 93.8641 120.195 93.5327C119.921 93.1929 119.561 92.9237 119.113 92.7248C118.674 92.5176 118.148 92.4141 117.535 92.4141C116.714 92.4141 116.023 92.5881 115.459 92.9361C114.896 93.2758 114.614 93.7315 114.614 94.3033C114.614 94.759 114.796 95.1443 115.161 95.4592C115.525 95.774 116.151 96.0268 117.038 96.2173L120.493 96.9134C122.349 97.2945 123.733 97.9077 124.644 98.7528C125.556 99.598 126.011 100.708 126.011 102.084C126.011 103.335 125.643 104.433 124.905 105.377C124.176 106.322 123.173 107.06 121.897 107.59C120.63 108.112 119.167 108.373 117.51 108.373C114.983 108.373 112.969 107.847 111.469 106.794C109.978 105.734 109.104 104.292 108.847 102.469L114.055 102.196C114.212 102.966 114.593 103.555 115.198 103.961C115.803 104.358 116.578 104.557 117.522 104.557C118.45 104.557 119.196 104.379 119.759 104.023C120.331 103.658 120.621 103.19 120.63 102.618C120.621 102.138 120.418 101.744 120.021 101.438C119.623 101.123 119.01 100.882 118.181 100.717L114.875 100.058C113.011 99.685 111.623 99.0387 110.711 98.119C109.808 97.1992 109.356 96.0268 109.356 94.6016C109.356 93.3752 109.688 92.3188 110.351 91.4322C111.022 90.5456 111.962 89.862 113.172 89.3814C114.39 88.9008 115.815 88.6605 117.448 88.6605C119.859 88.6605 121.756 89.1701 123.14 90.1893C124.532 91.2085 125.344 92.5964 125.576 94.353ZM137.971 108.373C136.04 108.373 134.371 107.963 132.962 107.142C131.562 106.314 130.481 105.162 129.718 103.687C128.956 102.204 128.575 100.485 128.575 98.5291C128.575 96.5571 128.956 94.8336 129.718 93.3587C130.481 91.8755 131.562 90.7237 132.962 89.9034C134.371 89.0748 136.04 88.6605 137.971 88.6605C139.902 88.6605 141.567 89.0748 142.968 89.9034C144.376 90.7237 145.462 91.8755 146.224 93.3587C146.986 94.8336 147.367 96.5571 147.367 98.5291C147.367 100.485 146.986 102.204 146.224 103.687C145.462 105.162 144.376 106.314 142.968 107.142C141.567 107.963 139.902 108.373 137.971 108.373ZM137.996 104.271C138.874 104.271 139.608 104.023 140.196 103.526C140.784 103.02 141.227 102.332 141.526 101.462C141.832 100.592 141.986 99.6022 141.986 98.4918C141.986 97.3815 141.832 96.3913 141.526 95.5213C141.227 94.6513 140.784 93.9635 140.196 93.4581C139.608 92.9527 138.874 92.6999 137.996 92.6999C137.109 92.6999 136.364 92.9527 135.759 93.4581C135.162 93.9635 134.711 94.6513 134.404 95.5213C134.106 96.3913 133.956 97.3815 133.956 98.4918C133.956 99.6022 134.106 100.592 134.404 101.462C134.711 102.332 135.162 103.02 135.759 103.526C136.364 104.023 137.109 104.271 137.996 104.271ZM150.81 108V88.9091H155.943V92.2401H156.142C156.49 91.0552 157.074 90.1603 157.895 89.5554C158.715 88.9422 159.66 88.6357 160.729 88.6357C160.994 88.6357 161.28 88.6522 161.586 88.6854C161.893 88.7185 162.162 88.7641 162.394 88.8221V93.5202C162.145 93.4457 161.802 93.3794 161.362 93.3214C160.923 93.2634 160.521 93.2344 160.157 93.2344C159.378 93.2344 158.682 93.4042 158.069 93.744C157.464 94.0754 156.983 94.5394 156.627 95.136C156.279 95.7326 156.105 96.4203 156.105 97.1992V108H150.81ZM176.243 88.9091V92.8864H164.746V88.9091H176.243ZM167.356 84.3352H172.651V102.134C172.651 102.622 172.726 103.004 172.875 103.277C173.024 103.542 173.231 103.729 173.496 103.836C173.77 103.944 174.084 103.998 174.441 103.998C174.689 103.998 174.938 103.977 175.187 103.936C175.435 103.886 175.626 103.849 175.758 103.824L176.591 107.764C176.326 107.847 175.953 107.942 175.472 108.05C174.992 108.166 174.408 108.236 173.72 108.261C172.444 108.311 171.325 108.141 170.364 107.751C169.411 107.362 168.67 106.757 168.139 105.937C167.609 105.116 167.348 104.081 167.356 102.83V84.3352Z" fill="black" fill-opacity="0.7"/>
</g>
<path d="M333 67C332.358 67 331.816 66.7583 331.373 66.275C330.93 65.7917 330.708 65.2 330.708 64.5C330.708 63.8 330.93 63.2083 331.373 62.725C331.816 62.2417 332.358 62 333 62C333.642 62 334.184 62.2417 334.627 62.725C335.07 63.2083 335.292 63.8 335.292 64.5C335.292 65.2 335.07 65.7917 334.627 66.275C334.184 66.7583 333.642 67 333 67ZM327.821 61.35L325.896 59.2C326.797 58.2167 327.855 57.4377 329.07 56.863C330.285 56.2883 331.595 56.0007 333 56C334.406 56 335.716 56.2917 336.931 56.875C338.146 57.4583 339.203 58.25 340.104 59.25L338.179 61.35C337.507 60.6167 336.728 60.0417 335.842 59.625C334.956 59.2083 334.008 59 333 59C331.992 59 331.044 59.2083 330.158 59.625C329.272 60.0417 328.493 60.6167 327.821 61.35ZM323.925 57.1L322 55C323.406 53.4333 325.048 52.2083 326.927 51.325C328.806 50.4417 330.831 50 333 50C335.169 50 337.194 50.4417 339.073 51.325C340.952 52.2083 342.594 53.4333 344 55L342.075 57.1C340.899 55.8167 339.535 54.8127 337.985 54.088C336.434 53.3633 334.773 53.0007 333 53C331.228 53 329.566 53.3627 328.016 54.088C326.466 54.8133 325.102 55.8173 323.925 57.1Z" fill="black" fill-opacity="0.7"/>
<path d="M538.042 86.75C538.042 86.4185 538.162 86.1005 538.377 85.8661C538.592 85.6317 538.883 85.5 539.187 85.5C539.491 85.5 539.783 85.6317 539.998 85.8661C540.213 86.1005 540.333 86.4185 540.333 86.75V93.036C540.77 93.081 541.23 93.169 541.708 93.31V92H547.667V95.5C548.13 95.4918 548.592 95.4247 549.042 95.3V86.75C549.042 86.0207 548.776 85.3212 548.303 84.8055C547.83 84.2897 547.189 84 546.521 84C545.852 84 545.211 84.2897 544.738 84.8055C544.265 85.3212 544 86.0207 544 86.75V87.25C544 87.4489 544.072 87.6397 544.201 87.7803C544.33 87.921 544.505 88 544.687 88C544.87 88 545.045 87.921 545.174 87.7803C545.302 87.6397 545.375 87.4489 545.375 87.25V86.75C545.375 86.4185 545.496 86.1005 545.71 85.8661C545.925 85.6317 546.217 85.5 546.521 85.5C546.825 85.5 547.116 85.6317 547.331 85.8661C547.546 86.1005 547.667 86.4185 547.667 86.75V90.5H541.708V86.75C541.708 86.0207 541.443 85.3212 540.97 84.8055C540.497 84.2897 539.856 84 539.187 84C538.519 84 537.878 84.2897 537.405 84.8055C536.932 85.3212 536.667 86.0207 536.667 86.75V87.25C536.667 87.4489 536.739 87.6397 536.868 87.7803C536.997 87.921 537.172 88 537.354 88C537.536 88 537.711 87.921 537.84 87.7803C537.969 87.6397 538.042 87.4489 538.042 87.25V86.75ZM536.923 96.526C536.794 96.6633 536.621 96.7398 536.44 96.739C536.26 96.7382 536.087 96.6601 535.959 96.5216C535.831 96.3831 535.758 96.1952 535.756 95.9985C535.754 95.8018 535.822 95.612 535.947 95.47H535.948V95.469L535.951 95.467L535.954 95.462L535.965 95.451C536.012 95.4004 536.061 95.3523 536.112 95.307C536.243 95.188 536.381 95.0774 536.524 94.976C537.002 94.6378 537.525 94.3837 538.075 94.223C539.447 93.817 541.378 93.847 543.759 95.331C545.873 96.648 547.731 96.641 549.054 96.323C549.598 96.1932 550.126 95.9918 550.626 95.723C550.809 95.6234 550.987 95.5123 551.158 95.39L551.159 95.389L551.161 95.388C551.309 95.2749 551.492 95.2299 551.67 95.2627C551.848 95.2955 552.007 95.4035 552.113 95.5632C552.218 95.723 552.262 95.9217 552.235 96.1165C552.207 96.3113 552.111 96.4864 551.966 96.604H551.965L551.963 96.606L551.958 96.609L551.946 96.619C551.885 96.6656 551.824 96.7097 551.76 96.751C551.591 96.8645 551.416 96.9696 551.238 97.066C550.638 97.3895 550.004 97.6319 549.35 97.788C547.744 98.174 545.529 98.161 543.077 96.633C540.997 95.337 539.438 95.373 538.435 95.67C538.024 95.7894 537.634 95.9784 537.277 96.23C537.157 96.3159 537.042 96.4112 536.934 96.515L536.923 96.526ZM535.955 100.531C536.085 100.67 536.259 100.747 536.441 100.746C536.622 100.745 536.796 100.666 536.924 100.526L536.934 100.516C536.946 100.504 536.966 100.483 536.996 100.456C537.055 100.402 537.15 100.322 537.277 100.23C537.534 100.047 537.922 99.822 538.435 99.67C539.439 99.374 540.997 99.337 543.077 100.633C545.529 102.161 547.743 102.174 549.35 101.788C550.004 101.632 550.639 101.389 551.239 101.066C551.468 100.941 551.69 100.803 551.904 100.65L551.946 100.62L551.958 100.61L551.963 100.606L551.965 100.605L551.966 100.604C552.111 100.486 552.207 100.311 552.235 100.116C552.262 99.9217 552.218 99.723 552.113 99.5632C552.007 99.4035 551.848 99.2955 551.67 99.2627C551.492 99.2299 551.309 99.2749 551.161 99.388H551.159L551.158 99.39C550.987 99.5123 550.809 99.6234 550.626 99.723C550.259 99.922 549.722 100.163 549.054 100.323C547.731 100.642 545.874 100.648 543.759 99.331C541.378 97.847 539.447 97.817 538.075 98.223C537.4 98.423 536.879 98.722 536.524 98.976C536.339 99.1079 536.164 99.255 535.999 99.416C535.988 99.4275 535.976 99.4392 535.965 99.451L535.954 99.462L535.951 99.467L535.949 99.469L535.947 99.47C535.819 99.6118 535.748 99.8031 535.75 100.002C535.752 100.201 535.825 100.392 535.955 100.531Z" fill="black" fill-opacity="0.7"/>
<path d="M333 94.0005C333.538 94.0004 334.065 94.1793 334.511 94.514C334.957 94.8488 335.303 95.3242 335.504 95.8791C335.706 96.434 335.753 97.0431 335.64 97.6282C335.528 98.2132 335.26 98.7474 334.872 99.1622L333.153 100.999H335.7V102.999H330.3L330.299 101.275L333.624 97.7203C333.731 97.6057 333.811 97.4634 333.857 97.306C333.902 97.1487 333.912 96.9812 333.885 96.8186C333.858 96.656 333.796 96.5034 333.703 96.3743C333.61 96.2453 333.489 96.1439 333.352 96.0792C333.215 96.0145 333.066 95.9885 332.918 96.0036C332.77 96.0187 332.627 96.0743 332.503 96.1656C332.379 96.2569 332.277 96.3809 332.207 96.5265C332.137 96.6722 332.1 96.835 332.1 97.0003H330.3C330.3 96.2047 330.584 95.4417 331.091 94.8791C331.597 94.3165 332.284 94.0005 333 94.0005ZM338.4 94.0005V98.0003H340.2V94.0005H342V103H340.2V100H336.6V94.0005H338.4ZM325.8 93.0005C325.799 94.2 326.041 95.3844 326.508 96.4657C326.976 97.547 327.657 98.4973 328.5 99.2462V101.662C327.131 100.785 325.995 99.5221 325.205 98.0015C324.415 96.481 323.999 94.7562 324 93.0005H325.8ZM333 83.001C337.667 83.001 341.504 86.9468 341.955 92.0006H340.144C339.961 90.3881 339.341 88.8757 338.365 87.6647C337.39 86.4537 336.106 85.6015 334.683 85.2215C333.261 84.8415 331.769 84.9517 330.404 85.5375C329.04 86.1233 327.868 87.1569 327.046 88.5007H329.4V90.5006H324V84.5009H325.8V86.9998C326.638 85.757 327.724 84.7484 328.974 84.0541C330.224 83.3598 331.603 82.9998 333 83.001Z" fill="black" fill-opacity="0.7"/>
<path d="M552.319 48H535.986C534.697 48 533.652 49.1442 533.652 50.5556V68.4444C533.652 69.8558 534.697 71 535.986 71H552.319C553.608 71 554.652 69.8558 554.652 68.4444V50.5556C554.652 49.1442 553.608 48 552.319 48Z" stroke="black" stroke-opacity="0.7" stroke-width="2" stroke-linecap="round" stroke-linejoin="round"/>
<path d="M540.652 65.8891V53.1113H545.319C546.247 53.1113 547.138 53.5152 547.794 54.2341C548.45 54.953 548.819 55.928 548.819 56.9447C548.819 57.9613 548.45 58.9363 547.794 59.6552C547.138 60.3741 546.247 60.778 545.319 60.778H540.652" stroke="black" stroke-opacity="0.7" stroke-width="2" stroke-linecap="round" stroke-linejoin="round"/>
<path d="M554.167 128V120.6C554.167 120.441 554.109 120.288 554.006 120.176C553.903 120.063 553.763 120 553.617 120H536.384C536.238 120 536.098 120.063 535.995 120.176C535.892 120.288 535.834 120.441 535.834 120.6V128M554.167 128H535.834M554.167 128L553.443 130.584C553.329 130.994 553.096 131.352 552.781 131.607C552.465 131.862 552.083 132 551.69 132H550.501M535.834 128L536.558 130.584C536.673 130.994 536.905 131.352 537.22 131.607C537.536 131.862 537.918 132 538.311 132H539.501M550.501 124H551.417M542.709 131.5C542.709 131.5 542.709 138.5 539.501 138.5M547.292 131.5C547.292 131.5 547.292 138.5 550.501 138.5M545.001 131.5V138.5" stroke="black" stroke-opacity="0.7" stroke-width="1.5" stroke-linecap="round" stroke-linejoin="round"/>
<path d="M361.177 64L358.263 53.8182H360.615L362.3 60.8928H362.385L364.244 53.8182H366.258L368.112 60.9077H368.202L369.887 53.8182H372.239L369.325 64H367.227L365.288 57.343H365.209L363.275 64H361.177ZM373.351 64V56.3636H375.469V64H373.351ZM374.415 55.3793C374.1 55.3793 373.83 55.2749 373.605 55.0661C373.383 54.8539 373.271 54.6004 373.271 54.3054C373.271 54.0137 373.383 53.7635 373.605 53.5547C373.83 53.3426 374.1 53.2365 374.415 53.2365C374.73 53.2365 374.998 53.3426 375.22 53.5547C375.446 53.7635 375.558 54.0137 375.558 54.3054C375.558 54.6004 375.446 54.8539 375.22 55.0661C374.998 55.2749 374.73 55.3793 374.415 55.3793ZM377.205 64V53.8182H383.947V55.593H379.358V58.0192H383.499V59.794H379.358V64H377.205ZM385.355 64V56.3636H387.473V64H385.355ZM386.419 55.3793C386.104 55.3793 385.834 55.2749 385.608 55.0661C385.386 54.8539 385.275 54.6004 385.275 54.3054C385.275 54.0137 385.386 53.7635 385.608 53.5547C385.834 53.3426 386.104 53.2365 386.419 53.2365C386.734 53.2365 387.002 53.3426 387.224 53.5547C387.45 53.7635 387.562 54.0137 387.562 54.3054C387.562 54.6004 387.45 54.8539 387.224 55.0661C387.002 55.2749 386.734 55.3793 386.419 55.3793Z" fill="black" fill-opacity="0.7"/>
<path d="M358.885 99V88.8182H362.902C363.671 88.8182 364.327 88.9557 364.871 89.2308C365.418 89.5026 365.834 89.8887 366.119 90.3892C366.407 90.8864 366.551 91.4714 366.551 92.1442C366.551 92.8203 366.405 93.402 366.114 93.8892C365.822 94.3731 365.399 94.7443 364.846 95.0028C364.296 95.2614 363.629 95.3906 362.847 95.3906H360.158V93.6605H362.499C362.91 93.6605 363.252 93.6042 363.523 93.4915C363.795 93.3788 363.997 93.2098 364.13 92.9844C364.266 92.759 364.334 92.4789 364.334 92.1442C364.334 91.8061 364.266 91.5211 364.13 91.2891C363.997 91.0571 363.794 90.8814 363.518 90.7621C363.247 90.6394 362.904 90.5781 362.489 90.5781H361.038V99H358.885ZM364.384 94.3665L366.914 99H364.538L362.062 94.3665H364.384ZM371.39 99.1491C370.604 99.1491 369.928 98.9901 369.361 98.6719C368.798 98.3504 368.364 97.8963 368.059 97.3097C367.754 96.7197 367.601 96.022 367.601 95.2166C367.601 94.4311 367.754 93.7417 368.059 93.1484C368.364 92.5552 368.793 92.0928 369.346 91.7614C369.903 91.4299 370.556 91.2642 371.305 91.2642C371.809 91.2642 372.278 91.3454 372.712 91.5078C373.15 91.6669 373.531 91.9072 373.856 92.2287C374.184 92.5502 374.439 92.9545 374.621 93.4418C374.804 93.9257 374.895 94.4924 374.895 95.142V95.7237H368.447V94.4112H372.901C372.901 94.1063 372.835 93.8362 372.702 93.6009C372.57 93.3655 372.386 93.1816 372.15 93.049C371.918 92.9131 371.648 92.8452 371.34 92.8452C371.019 92.8452 370.733 92.9197 370.485 93.0689C370.24 93.2147 370.047 93.4119 369.908 93.6605C369.769 93.9058 369.698 94.1792 369.694 94.4808V95.7287C369.694 96.1065 369.764 96.433 369.903 96.7081C370.046 96.9832 370.246 97.1953 370.505 97.3445C370.763 97.4936 371.07 97.5682 371.425 97.5682C371.66 97.5682 371.875 97.535 372.071 97.4688C372.266 97.4025 372.434 97.303 372.573 97.1705C372.712 97.0379 372.818 96.8755 372.891 96.6832L374.85 96.8125C374.751 97.2831 374.547 97.6941 374.238 98.0455C373.934 98.3935 373.539 98.6652 373.055 98.8608C372.575 99.053 372.019 99.1491 371.39 99.1491ZM379.727 99.1491C378.945 99.1491 378.272 98.9834 377.709 98.652C377.148 98.3172 376.718 97.8532 376.416 97.2599C376.118 96.6667 375.969 95.9839 375.969 95.2116C375.969 94.4295 376.119 93.7434 376.421 93.1534C376.726 92.5601 377.158 92.0978 377.719 91.7663C378.279 91.4316 378.945 91.2642 379.717 91.2642C380.383 91.2642 380.967 91.3852 381.467 91.6271C381.968 91.8691 382.364 92.2088 382.655 92.6463C382.947 93.0838 383.108 93.5975 383.138 94.1875H381.139C381.083 93.8063 380.934 93.4998 380.692 93.2678C380.453 93.0324 380.14 92.9148 379.752 92.9148C379.424 92.9148 379.137 93.0043 378.892 93.1832C378.65 93.3589 378.461 93.6158 378.325 93.9538C378.189 94.2919 378.121 94.7012 378.121 95.1818C378.121 95.669 378.188 96.0833 378.32 96.4247C378.456 96.7661 378.647 97.0263 378.892 97.2053C379.137 97.3842 379.424 97.4737 379.752 97.4737C379.994 97.4737 380.211 97.424 380.403 97.3246C380.599 97.2251 380.76 97.081 380.885 96.892C381.015 96.6998 381.099 96.4695 381.139 96.201H383.138C383.104 96.7843 382.945 97.2981 382.66 97.7422C382.379 98.183 381.989 98.5277 381.492 98.7763C380.995 99.0249 380.407 99.1491 379.727 99.1491ZM387.974 99.1491C387.188 99.1491 386.512 98.9901 385.945 98.6719C385.382 98.3504 384.948 97.8963 384.643 97.3097C384.338 96.7197 384.185 96.022 384.185 95.2166C384.185 94.4311 384.338 93.7417 384.643 93.1484C384.948 92.5552 385.377 92.0928 385.93 91.7614C386.487 91.4299 387.14 91.2642 387.889 91.2642C388.393 91.2642 388.862 91.3454 389.296 91.5078C389.734 91.6669 390.115 91.9072 390.44 92.2287C390.768 92.5502 391.023 92.9545 391.205 93.4418C391.388 93.9257 391.479 94.4924 391.479 95.142V95.7237H385.031V94.4112H389.485C389.485 94.1063 389.419 93.8362 389.286 93.6009C389.154 93.3655 388.97 93.1816 388.734 93.049C388.502 92.9131 388.232 92.8452 387.924 92.8452C387.603 92.8452 387.317 92.9197 387.069 93.0689C386.824 93.2147 386.631 93.4119 386.492 93.6605C386.353 93.9058 386.282 94.1792 386.278 94.4808V95.7287C386.278 96.1065 386.348 96.433 386.487 96.7081C386.63 96.9832 386.83 97.1953 387.089 97.3445C387.347 97.4936 387.654 97.5682 388.009 97.5682C388.244 97.5682 388.459 97.535 388.655 97.4688C388.85 97.4025 389.018 97.303 389.157 97.1705C389.296 97.0379 389.402 96.8755 389.475 96.6832L391.434 96.8125C391.335 97.2831 391.131 97.6941 390.822 98.0455C390.518 98.3935 390.123 98.6652 389.639 98.8608C389.159 99.053 388.603 99.1491 387.974 99.1491ZM392.861 101.864V91.3636H394.949V92.6463H395.043C395.136 92.4408 395.27 92.232 395.446 92.0199C395.625 91.8045 395.857 91.6255 396.142 91.483C396.43 91.3371 396.788 91.2642 397.216 91.2642C397.773 91.2642 398.286 91.41 398.757 91.7017C399.228 91.9901 399.604 92.4259 399.886 93.0092C400.167 93.5893 400.308 94.3168 400.308 95.1918C400.308 96.0436 400.171 96.7628 399.896 97.3494C399.624 97.9328 399.253 98.3752 398.782 98.6768C398.315 98.9751 397.791 99.1243 397.211 99.1243C396.8 99.1243 396.45 99.0563 396.162 98.9205C395.877 98.7846 395.643 98.6139 395.461 98.4084C395.279 98.1996 395.139 97.9891 395.043 97.777H394.979V101.864H392.861ZM394.934 95.1818C394.934 95.6359 394.997 96.032 395.123 96.37C395.249 96.7081 395.431 96.9716 395.67 97.1605C395.908 97.3461 396.198 97.4389 396.54 97.4389C396.884 97.4389 397.176 97.3445 397.415 97.1555C397.653 96.9633 397.834 96.6982 397.957 96.3601C398.083 96.0187 398.146 95.6259 398.146 95.1818C398.146 94.741 398.084 94.3532 397.962 94.0185C397.839 93.6837 397.658 93.4219 397.42 93.233C397.181 93.044 396.888 92.9496 396.54 92.9496C396.195 92.9496 395.903 93.0407 395.665 93.223C395.429 93.4053 395.249 93.6638 395.123 93.9986C394.997 94.3333 394.934 94.7277 394.934 95.1818ZM405.782 91.3636V92.9545H401.183V91.3636H405.782ZM402.227 89.5341H404.345V96.6534C404.345 96.849 404.375 97.0014 404.435 97.1108C404.494 97.2169 404.577 97.2914 404.683 97.3345C404.793 97.3776 404.919 97.3991 405.061 97.3991C405.161 97.3991 405.26 97.3909 405.359 97.3743C405.459 97.3544 405.535 97.3395 405.588 97.3295L405.921 98.9055C405.815 98.9387 405.666 98.9768 405.474 99.0199C405.281 99.0663 405.048 99.0945 404.773 99.1044C404.262 99.1243 403.815 99.0563 403.43 98.9006C403.049 98.7448 402.753 98.5028 402.54 98.1747C402.328 97.8466 402.224 97.4323 402.227 96.9318V89.5341ZM407.162 99V91.3636H409.279V99H407.162ZM408.225 90.3793C407.911 90.3793 407.641 90.2749 407.415 90.0661C407.193 89.8539 407.082 89.6004 407.082 89.3054C407.082 89.0137 407.193 88.7635 407.415 88.5547C407.641 88.3426 407.911 88.2365 408.225 88.2365C408.54 88.2365 408.809 88.3426 409.031 88.5547C409.256 88.7635 409.369 89.0137 409.369 89.3054C409.369 89.6004 409.256 89.8539 409.031 90.0661C408.809 90.2749 408.54 90.3793 408.225 90.3793ZM414.426 99.1491C413.654 99.1491 412.986 98.9851 412.423 98.657C411.863 98.3255 411.43 97.8648 411.125 97.2749C410.82 96.6816 410.668 95.9938 410.668 95.2116C410.668 94.4228 410.82 93.7334 411.125 93.1435C411.43 92.5502 411.863 92.0895 412.423 91.7614C412.986 91.4299 413.654 91.2642 414.426 91.2642C415.199 91.2642 415.865 91.4299 416.425 91.7614C416.988 92.0895 417.423 92.5502 417.727 93.1435C418.032 93.7334 418.185 94.4228 418.185 95.2116C418.185 95.9938 418.032 96.6816 417.727 97.2749C417.423 97.8648 416.988 98.3255 416.425 98.657C415.865 98.9851 415.199 99.1491 414.426 99.1491ZM414.436 97.5085C414.788 97.5085 415.081 97.4091 415.316 97.2102C415.552 97.008 415.729 96.733 415.848 96.3849C415.971 96.0369 416.032 95.6409 416.032 95.1967C416.032 94.7526 415.971 94.3565 415.848 94.0085C415.729 93.6605 415.552 93.3854 415.316 93.1832C415.081 92.9811 414.788 92.88 414.436 92.88C414.082 92.88 413.783 92.9811 413.541 93.1832C413.303 93.3854 413.122 93.6605 412.999 94.0085C412.88 94.3565 412.82 94.7526 412.82 95.1967C412.82 95.6409 412.88 96.0369 412.999 96.3849C413.122 96.733 413.303 97.008 413.541 97.2102C413.783 97.4091 414.082 97.5085 414.436 97.5085ZM421.68 94.5852V99H419.562V91.3636H421.58V92.7109H421.67C421.839 92.2668 422.122 91.9155 422.52 91.657C422.918 91.3951 423.4 91.2642 423.967 91.2642C424.497 91.2642 424.959 91.3802 425.354 91.6122C425.748 91.8442 426.055 92.1757 426.274 92.6065C426.492 93.0341 426.602 93.5445 426.602 94.1378V99H424.484V94.5156C424.487 94.0483 424.368 93.6837 424.126 93.4219C423.884 93.1567 423.551 93.0241 423.127 93.0241C422.842 93.0241 422.59 93.0855 422.371 93.2081C422.155 93.3307 421.986 93.5097 421.864 93.745C421.744 93.977 421.683 94.2571 421.68 94.5852ZM428.271 99V91.3636H430.389V99H428.271ZM429.335 90.3793C429.02 90.3793 428.75 90.2749 428.525 90.0661C428.302 89.8539 428.191 89.6004 428.191 89.3054C428.191 89.0137 428.302 88.7635 428.525 88.5547C428.75 88.3426 429.02 88.2365 429.335 88.2365C429.65 88.2365 429.918 88.3426 430.14 88.5547C430.366 88.7635 430.478 89.0137 430.478 89.3054C430.478 89.6004 430.366 89.8539 430.14 90.0661C429.918 90.2749 429.65 90.3793 429.335 90.3793ZM438.439 93.5412L436.5 93.6605C436.467 93.4948 436.396 93.3456 436.286 93.2131C436.177 93.0772 436.033 92.9695 435.854 92.8899C435.678 92.8071 435.468 92.7656 435.222 92.7656C434.894 92.7656 434.618 92.8352 434.392 92.9744C434.167 93.1103 434.054 93.2926 434.054 93.5213C434.054 93.7036 434.127 93.8577 434.273 93.9837C434.419 94.1096 434.669 94.2107 435.024 94.2869L436.406 94.5653C437.148 94.7178 437.702 94.9631 438.066 95.3011C438.431 95.6392 438.613 96.0833 438.613 96.6335C438.613 97.134 438.466 97.5732 438.171 97.951C437.879 98.3288 437.478 98.6238 436.968 98.8359C436.46 99.0447 435.875 99.1491 435.213 99.1491C434.202 99.1491 433.396 98.9387 432.796 98.5178C432.2 98.0935 431.85 97.5168 431.747 96.7876L433.83 96.6783C433.893 96.9865 434.046 97.2218 434.288 97.3842C434.53 97.5433 434.84 97.6229 435.218 97.6229C435.589 97.6229 435.887 97.5516 436.112 97.4091C436.341 97.2633 436.457 97.076 436.46 96.8473C436.457 96.6551 436.376 96.4976 436.217 96.375C436.058 96.2491 435.812 96.1529 435.481 96.0866L434.159 95.8232C433.413 95.674 432.858 95.4155 432.493 95.0476C432.132 94.6797 431.951 94.2107 431.951 93.6406C431.951 93.1501 432.084 92.7275 432.349 92.3729C432.617 92.0182 432.994 91.7448 433.477 91.5526C433.965 91.3603 434.535 91.2642 435.188 91.2642C436.152 91.2642 436.911 91.468 437.465 91.8757C438.021 92.2834 438.346 92.8385 438.439 93.5412ZM444.009 91.3636V92.9545H439.41V91.3636H444.009ZM440.454 89.5341H442.572V96.6534C442.572 96.849 442.602 97.0014 442.661 97.1108C442.721 97.2169 442.804 97.2914 442.91 97.3345C443.019 97.3776 443.145 97.3991 443.288 97.3991C443.387 97.3991 443.487 97.3909 443.586 97.3743C443.685 97.3544 443.762 97.3395 443.815 97.3295L444.148 98.9055C444.042 98.9387 443.893 98.9768 443.7 99.0199C443.508 99.0663 443.274 99.0945 442.999 99.1044C442.489 99.1243 442.041 99.0563 441.657 98.9006C441.276 98.7448 440.979 98.5028 440.767 98.1747C440.555 97.8466 440.451 97.4323 440.454 96.9318V89.5341ZM448.608 99V97.4489L452.233 94.093C452.541 93.7947 452.8 93.5263 453.008 93.2876C453.22 93.049 453.381 92.8153 453.491 92.5866C453.6 92.3546 453.655 92.1044 453.655 91.8359C453.655 91.5376 453.587 91.2808 453.451 91.0653C453.315 90.8466 453.129 90.6792 452.894 90.5632C452.659 90.4439 452.392 90.3842 452.094 90.3842C451.782 90.3842 451.51 90.4472 451.278 90.5732C451.046 90.6991 450.867 90.8797 450.741 91.1151C450.615 91.3504 450.552 91.6304 450.552 91.9553H448.509C448.509 91.2891 448.66 90.7107 448.961 90.2202C449.263 89.7296 449.686 89.3501 450.229 89.0817C450.773 88.8132 451.399 88.679 452.108 88.679C452.838 88.679 453.472 88.8082 454.013 89.0668C454.556 89.322 454.979 89.6766 455.28 90.1307C455.582 90.5848 455.733 91.1051 455.733 91.6918C455.733 92.0762 455.657 92.4557 455.504 92.8303C455.355 93.2048 455.088 93.6207 454.704 94.0781C454.319 94.5322 453.777 95.0774 453.078 95.7138L451.591 97.1705V97.2401H455.867V99H448.608ZM457.054 97.2102V95.5149L461.305 88.8182H462.766V91.1648H461.901L459.222 95.4055V95.4851H465.262V97.2102H457.054ZM461.941 99V96.6932L461.981 95.9425V88.8182H463.999V99H461.941ZM469.996 99V88.8182H472.149V93.0192H476.519V88.8182H478.667V99H476.519V94.794H472.149V99H469.996ZM483.852 99.1491C483.08 99.1491 482.412 98.9851 481.849 98.657C481.288 98.3255 480.856 97.8648 480.551 97.2749C480.246 96.6816 480.094 95.9938 480.094 95.2116C480.094 94.4228 480.246 93.7334 480.551 93.1435C480.856 92.5502 481.288 92.0895 481.849 91.7614C482.412 91.4299 483.08 91.2642 483.852 91.2642C484.624 91.2642 485.291 91.4299 485.851 91.7614C486.414 92.0895 486.848 92.5502 487.153 93.1435C487.458 93.7334 487.611 94.4228 487.611 95.2116C487.611 95.9938 487.458 96.6816 487.153 97.2749C486.848 97.8648 486.414 98.3255 485.851 98.657C485.291 98.9851 484.624 99.1491 483.852 99.1491ZM483.862 97.5085C484.213 97.5085 484.507 97.4091 484.742 97.2102C484.977 97.008 485.155 96.733 485.274 96.3849C485.397 96.0369 485.458 95.6409 485.458 95.1967C485.458 94.7526 485.397 94.3565 485.274 94.0085C485.155 93.6605 484.977 93.3854 484.742 93.1832C484.507 92.9811 484.213 92.88 483.862 92.88C483.507 92.88 483.209 92.9811 482.967 93.1832C482.729 93.3854 482.548 93.6605 482.425 94.0085C482.306 94.3565 482.246 94.7526 482.246 95.1967C482.246 95.6409 482.306 96.0369 482.425 96.3849C482.548 96.733 482.729 97.008 482.967 97.2102C483.209 97.4091 483.507 97.5085 483.862 97.5085ZM493.885 95.7486V91.3636H496.003V99H493.969V97.6129H493.89C493.717 98.0604 493.431 98.42 493.03 98.6918C492.632 98.9635 492.146 99.0994 491.573 99.0994C491.063 99.0994 490.613 98.9834 490.226 98.7514C489.838 98.5194 489.535 98.1896 489.316 97.7621C489.1 97.3345 488.991 96.8224 488.988 96.2259V91.3636H491.106V95.848C491.109 96.2988 491.23 96.6551 491.469 96.9169C491.707 97.1787 492.027 97.3097 492.428 97.3097C492.683 97.3097 492.922 97.2517 493.144 97.1357C493.366 97.0163 493.545 96.8407 493.681 96.6087C493.82 96.3767 493.888 96.09 493.885 95.7486ZM497.697 99V91.3636H499.75V92.696H499.83C499.969 92.2221 500.202 91.8641 500.531 91.6222C500.859 91.3769 501.237 91.2543 501.664 91.2543C501.77 91.2543 501.884 91.2609 502.007 91.2741C502.13 91.2874 502.237 91.3056 502.33 91.3288V93.2081C502.231 93.1783 502.093 93.1518 501.918 93.1286C501.742 93.1054 501.581 93.0938 501.435 93.0938C501.124 93.0938 500.845 93.1617 500.6 93.2976C500.358 93.4302 500.166 93.6158 500.023 93.8544C499.884 94.093 499.815 94.3681 499.815 94.6797V99H497.697Z" fill="black" fill-opacity="0.7"/>
<path d="M358.885 135V124.818H365.626V126.593H361.038V129.019H365.179V130.794H361.038V135H358.885ZM366.912 135V127.364H368.965V128.696H369.044C369.184 128.222 369.417 127.864 369.745 127.622C370.074 127.377 370.451 127.254 370.879 127.254C370.985 127.254 371.099 127.261 371.222 127.274C371.345 127.287 371.452 127.306 371.545 127.329V129.208C371.446 129.178 371.308 129.152 371.132 129.129C370.957 129.105 370.796 129.094 370.65 129.094C370.339 129.094 370.06 129.162 369.815 129.298C369.573 129.43 369.381 129.616 369.238 129.854C369.099 130.093 369.029 130.368 369.029 130.68V135H366.912ZM375.765 135.149C374.979 135.149 374.303 134.99 373.736 134.672C373.173 134.35 372.739 133.896 372.434 133.31C372.129 132.72 371.976 132.022 371.976 131.217C371.976 130.431 372.129 129.742 372.434 129.148C372.739 128.555 373.168 128.093 373.721 127.761C374.278 127.43 374.931 127.264 375.68 127.264C376.184 127.264 376.653 127.345 377.087 127.508C377.525 127.667 377.906 127.907 378.231 128.229C378.559 128.55 378.814 128.955 378.996 129.442C379.179 129.926 379.27 130.492 379.27 131.142V131.724H372.822V130.411H377.276C377.276 130.106 377.21 129.836 377.077 129.601C376.945 129.366 376.761 129.182 376.525 129.049C376.293 128.913 376.023 128.845 375.715 128.845C375.394 128.845 375.108 128.92 374.86 129.069C374.615 129.215 374.422 129.412 374.283 129.661C374.144 129.906 374.073 130.179 374.069 130.481V131.729C374.069 132.107 374.139 132.433 374.278 132.708C374.421 132.983 374.621 133.195 374.88 133.344C375.138 133.494 375.445 133.568 375.8 133.568C376.035 133.568 376.25 133.535 376.446 133.469C376.641 133.402 376.809 133.303 376.948 133.17C377.087 133.038 377.193 132.875 377.266 132.683L379.225 132.812C379.126 133.283 378.922 133.694 378.613 134.045C378.309 134.393 377.914 134.665 377.43 134.861C376.95 135.053 376.394 135.149 375.765 135.149ZM384.132 135.149C383.346 135.149 382.67 134.99 382.104 134.672C381.54 134.35 381.106 133.896 380.801 133.31C380.496 132.72 380.344 132.022 380.344 131.217C380.344 130.431 380.496 129.742 380.801 129.148C381.106 128.555 381.535 128.093 382.089 127.761C382.645 127.43 383.298 127.264 384.047 127.264C384.551 127.264 385.02 127.345 385.454 127.508C385.892 127.667 386.273 127.907 386.598 128.229C386.926 128.55 387.181 128.955 387.363 129.442C387.546 129.926 387.637 130.492 387.637 131.142V131.724H381.189V130.411H385.643C385.643 130.106 385.577 129.836 385.444 129.601C385.312 129.366 385.128 129.182 384.893 129.049C384.661 128.913 384.39 128.845 384.082 128.845C383.761 128.845 383.476 128.92 383.227 129.069C382.982 129.215 382.79 129.412 382.65 129.661C382.511 129.906 382.44 130.179 382.437 130.481V131.729C382.437 132.107 382.506 132.433 382.645 132.708C382.788 132.983 382.988 133.195 383.247 133.344C383.506 133.494 383.812 133.568 384.167 133.568C384.402 133.568 384.617 133.535 384.813 133.469C385.009 133.402 385.176 133.303 385.315 133.17C385.454 133.038 385.56 132.875 385.633 132.683L387.592 132.812C387.493 133.283 387.289 133.694 386.981 134.045C386.676 134.393 386.281 134.665 385.797 134.861C385.317 135.053 384.762 135.149 384.132 135.149ZM392.299 135V124.818H396.376C397.125 124.818 397.75 124.929 398.25 125.151C398.75 125.373 399.127 125.682 399.379 126.076C399.63 126.467 399.756 126.918 399.756 127.428C399.756 127.826 399.677 128.176 399.518 128.477C399.359 128.776 399.14 129.021 398.862 129.213C398.586 129.402 398.272 129.536 397.917 129.616V129.715C398.305 129.732 398.668 129.841 399.006 130.043C399.347 130.246 399.624 130.529 399.836 130.893C400.048 131.255 400.154 131.686 400.154 132.186C400.154 132.726 400.02 133.209 399.751 133.633C399.486 134.054 399.094 134.387 398.573 134.632C398.053 134.877 397.411 135 396.649 135H392.299ZM394.452 133.24H396.207C396.807 133.24 397.244 133.126 397.519 132.897C397.794 132.665 397.932 132.357 397.932 131.972C397.932 131.691 397.864 131.442 397.728 131.227C397.592 131.011 397.398 130.842 397.146 130.719C396.898 130.597 396.601 130.536 396.256 130.536H394.452V133.24ZM394.452 129.079H396.048C396.343 129.079 396.604 129.027 396.833 128.925C397.065 128.819 397.247 128.67 397.38 128.477C397.516 128.285 397.584 128.055 397.584 127.786C397.584 127.418 397.453 127.122 397.191 126.896C396.933 126.671 396.565 126.558 396.087 126.558H394.452V129.079ZM401.515 135V127.364H403.568V128.696H403.648C403.787 128.222 404.021 127.864 404.349 127.622C404.677 127.377 405.055 127.254 405.482 127.254C405.588 127.254 405.703 127.261 405.825 127.274C405.948 127.287 406.056 127.306 406.149 127.329V129.208C406.049 129.178 405.912 129.152 405.736 129.129C405.56 129.105 405.4 129.094 405.254 129.094C404.942 129.094 404.664 129.162 404.419 129.298C404.177 129.43 403.984 129.616 403.842 129.854C403.703 130.093 403.633 130.368 403.633 130.68V135H401.515ZM410.368 135.149C409.583 135.149 408.907 134.99 408.34 134.672C407.776 134.35 407.342 133.896 407.037 133.31C406.732 132.72 406.58 132.022 406.58 131.217C406.58 130.431 406.732 129.742 407.037 129.148C407.342 128.555 407.771 128.093 408.325 127.761C408.882 127.43 409.535 127.264 410.284 127.264C410.788 127.264 411.257 127.345 411.691 127.508C412.128 127.667 412.509 127.907 412.834 128.229C413.162 128.55 413.417 128.955 413.6 129.442C413.782 129.926 413.873 130.492 413.873 131.142V131.724H407.425V130.411H411.88C411.88 130.106 411.813 129.836 411.681 129.601C411.548 129.366 411.364 129.182 411.129 129.049C410.897 128.913 410.627 128.845 410.319 128.845C409.997 128.845 409.712 128.92 409.463 129.069C409.218 129.215 409.026 129.412 408.887 129.661C408.748 129.906 408.676 130.179 408.673 130.481V131.729C408.673 132.107 408.743 132.433 408.882 132.708C409.024 132.983 409.225 133.195 409.483 133.344C409.742 133.494 410.048 133.568 410.403 133.568C410.638 133.568 410.854 133.535 411.049 133.469C411.245 133.402 411.412 133.303 411.551 133.17C411.691 133.038 411.797 132.875 411.87 132.683L413.828 132.812C413.729 133.283 413.525 133.694 413.217 134.045C412.912 134.393 412.518 134.665 412.034 134.861C411.553 135.053 410.998 135.149 410.368 135.149ZM417.433 135.144C416.946 135.144 416.511 135.06 416.13 134.891C415.749 134.718 415.448 134.465 415.225 134.13C415.007 133.792 414.897 133.371 414.897 132.867C414.897 132.443 414.975 132.087 415.131 131.798C415.287 131.51 415.499 131.278 415.767 131.102C416.036 130.927 416.341 130.794 416.682 130.705C417.027 130.615 417.388 130.552 417.766 130.516C418.21 130.469 418.568 130.426 418.84 130.386C419.112 130.343 419.309 130.28 419.431 130.197C419.554 130.115 419.615 129.992 419.615 129.83V129.8C419.615 129.485 419.516 129.241 419.317 129.069C419.122 128.897 418.843 128.81 418.482 128.81C418.101 128.81 417.797 128.895 417.572 129.064C417.347 129.23 417.198 129.438 417.125 129.69L415.166 129.531C415.265 129.067 415.461 128.666 415.752 128.328C416.044 127.987 416.42 127.725 416.881 127.543C417.345 127.357 417.882 127.264 418.492 127.264C418.916 127.264 419.322 127.314 419.71 127.413C420.101 127.513 420.447 127.667 420.749 127.876C421.054 128.085 421.294 128.353 421.47 128.681C421.645 129.006 421.733 129.395 421.733 129.849V135H419.725V133.941H419.665C419.542 134.18 419.378 134.39 419.173 134.572C418.967 134.751 418.721 134.892 418.432 134.995C418.144 135.094 417.811 135.144 417.433 135.144ZM418.039 133.683C418.351 133.683 418.626 133.621 418.865 133.499C419.103 133.373 419.291 133.204 419.426 132.991C419.562 132.779 419.63 132.539 419.63 132.271V131.46C419.564 131.503 419.473 131.543 419.357 131.58C419.244 131.613 419.117 131.644 418.974 131.674C418.832 131.701 418.689 131.725 418.547 131.749C418.404 131.768 418.275 131.787 418.159 131.803C417.91 131.84 417.693 131.898 417.507 131.977C417.322 132.057 417.178 132.165 417.075 132.3C416.972 132.433 416.921 132.599 416.921 132.798C416.921 133.086 417.025 133.306 417.234 133.459C417.446 133.608 417.715 133.683 418.039 133.683ZM425.295 132.803L425.3 130.262H425.609L428.055 127.364H430.486L427.2 131.202H426.697L425.295 132.803ZM423.376 135V124.818H425.494V135H423.376ZM428.149 135L425.902 131.674L427.314 130.178L430.63 135H428.149ZM435.631 127.364V128.955H430.918V127.364H435.631ZM431.997 135V126.812C431.997 126.258 432.105 125.799 432.32 125.435C432.539 125.07 432.837 124.797 433.215 124.614C433.593 124.432 434.022 124.341 434.503 124.341C434.828 124.341 435.124 124.366 435.393 124.415C435.665 124.465 435.867 124.51 435.999 124.55L435.621 126.141C435.539 126.114 435.436 126.089 435.313 126.066C435.194 126.043 435.071 126.031 434.945 126.031C434.634 126.031 434.417 126.104 434.294 126.25C434.171 126.393 434.11 126.593 434.11 126.852V135H431.997ZM438.829 135.144C438.342 135.144 437.908 135.06 437.527 134.891C437.146 134.718 436.844 134.465 436.622 134.13C436.403 133.792 436.294 133.371 436.294 132.867C436.294 132.443 436.372 132.087 436.528 131.798C436.683 131.51 436.895 131.278 437.164 131.102C437.432 130.927 437.737 130.794 438.079 130.705C438.423 130.615 438.785 130.552 439.162 130.516C439.607 130.469 439.965 130.426 440.236 130.386C440.508 130.343 440.705 130.28 440.828 130.197C440.951 130.115 441.012 129.992 441.012 129.83V129.8C441.012 129.485 440.912 129.241 440.714 129.069C440.518 128.897 440.24 128.81 439.878 128.81C439.497 128.81 439.194 128.895 438.969 129.064C438.743 129.23 438.594 129.438 438.521 129.69L436.562 129.531C436.662 129.067 436.857 128.666 437.149 128.328C437.441 127.987 437.817 127.725 438.278 127.543C438.742 127.357 439.278 127.264 439.888 127.264C440.313 127.264 440.719 127.314 441.106 127.413C441.497 127.513 441.844 127.667 442.145 127.876C442.45 128.085 442.691 128.353 442.866 128.681C443.042 129.006 443.13 129.395 443.13 129.849V135H441.121V133.941H441.062C440.939 134.18 440.775 134.39 440.569 134.572C440.364 134.751 440.117 134.892 439.829 134.995C439.54 135.094 439.207 135.144 438.829 135.144ZM439.436 133.683C439.747 133.683 440.023 133.621 440.261 133.499C440.5 133.373 440.687 133.204 440.823 132.991C440.959 132.779 441.027 132.539 441.027 132.271V131.46C440.961 131.503 440.869 131.543 440.753 131.58C440.641 131.613 440.513 131.644 440.371 131.674C440.228 131.701 440.086 131.725 439.943 131.749C439.8 131.768 439.671 131.787 439.555 131.803C439.307 131.84 439.09 131.898 438.904 131.977C438.718 132.057 438.574 132.165 438.471 132.3C438.369 132.433 438.317 132.599 438.317 132.798C438.317 133.086 438.422 133.306 438.631 133.459C438.843 133.608 439.111 133.683 439.436 133.683ZM451.127 129.541L449.188 129.661C449.155 129.495 449.083 129.346 448.974 129.213C448.865 129.077 448.72 128.969 448.541 128.89C448.366 128.807 448.155 128.766 447.91 128.766C447.582 128.766 447.305 128.835 447.08 128.974C446.854 129.11 446.742 129.293 446.742 129.521C446.742 129.704 446.815 129.858 446.96 129.984C447.106 130.11 447.356 130.211 447.711 130.287L449.093 130.565C449.836 130.718 450.389 130.963 450.754 131.301C451.118 131.639 451.301 132.083 451.301 132.634C451.301 133.134 451.153 133.573 450.858 133.951C450.566 134.329 450.165 134.624 449.655 134.836C449.148 135.045 448.563 135.149 447.9 135.149C446.889 135.149 446.084 134.939 445.484 134.518C444.887 134.094 444.538 133.517 444.435 132.788L446.518 132.678C446.581 132.987 446.733 133.222 446.975 133.384C447.217 133.543 447.527 133.623 447.905 133.623C448.276 133.623 448.575 133.552 448.8 133.409C449.029 133.263 449.145 133.076 449.148 132.847C449.145 132.655 449.063 132.498 448.904 132.375C448.745 132.249 448.5 132.153 448.169 132.087L446.846 131.823C446.1 131.674 445.545 131.415 445.181 131.048C444.819 130.68 444.639 130.211 444.639 129.641C444.639 129.15 444.771 128.728 445.036 128.373C445.305 128.018 445.681 127.745 446.165 127.553C446.652 127.36 447.222 127.264 447.875 127.264C448.84 127.264 449.599 127.468 450.152 127.876C450.709 128.283 451.034 128.839 451.127 129.541ZM456.696 127.364V128.955H452.097V127.364H456.696ZM453.141 125.534H455.259V132.653C455.259 132.849 455.289 133.001 455.349 133.111C455.408 133.217 455.491 133.291 455.597 133.335C455.707 133.378 455.833 133.399 455.975 133.399C456.075 133.399 456.174 133.391 456.273 133.374C456.373 133.354 456.449 133.339 456.502 133.33L456.835 134.906C456.729 134.939 456.58 134.977 456.388 135.02C456.196 135.066 455.962 135.094 455.687 135.104C455.176 135.124 454.729 135.056 454.344 134.901C453.963 134.745 453.667 134.503 453.455 134.175C453.242 133.847 453.138 133.432 453.141 132.932V125.534Z" fill="black" fill-opacity="0.7"/>
<path d="M569.885 61V50.8182H573.902C574.674 50.8182 575.332 50.9657 575.876 51.2607C576.419 51.5523 576.834 51.9583 577.119 52.4787C577.407 52.9957 577.551 53.5923 577.551 54.2685C577.551 54.9446 577.405 55.5412 577.114 56.0582C576.822 56.5753 576.399 56.978 575.846 57.2663C575.296 57.5547 574.629 57.6989 573.847 57.6989H571.287V55.9737H573.499C573.914 55.9737 574.255 55.9025 574.523 55.7599C574.795 55.6141 574.997 55.4136 575.13 55.1584C575.266 54.8999 575.334 54.6032 575.334 54.2685C575.334 53.9304 575.266 53.6354 575.13 53.3835C574.997 53.1283 574.795 52.9311 574.523 52.7919C574.252 52.6494 573.907 52.5781 573.489 52.5781H572.038V61H569.885ZM580.882 61.1442C580.395 61.1442 579.961 61.0597 579.58 60.8906C579.198 60.7183 578.897 60.4647 578.675 60.13C578.456 59.7919 578.347 59.371 578.347 58.8672C578.347 58.4429 578.424 58.0866 578.58 57.7983C578.736 57.5099 578.948 57.2779 579.217 57.1023C579.485 56.9266 579.79 56.794 580.131 56.7045C580.476 56.6151 580.837 56.5521 581.215 56.5156C581.659 56.4692 582.017 56.4261 582.289 56.3864C582.561 56.3433 582.758 56.2803 582.881 56.1974C583.003 56.1146 583.065 55.992 583.065 55.8295V55.7997C583.065 55.4848 582.965 55.2412 582.766 55.0689C582.571 54.8965 582.292 54.8104 581.931 54.8104C581.55 54.8104 581.247 54.8949 581.021 55.0639C580.796 55.2296 580.647 55.4384 580.574 55.6903L578.615 55.5312C578.714 55.0672 578.91 54.6662 579.202 54.3281C579.493 53.9867 579.87 53.7249 580.33 53.5426C580.794 53.357 581.331 53.2642 581.941 53.2642C582.365 53.2642 582.771 53.3139 583.159 53.4134C583.55 53.5128 583.897 53.6669 584.198 53.8757C584.503 54.0845 584.743 54.353 584.919 54.6811C585.095 55.0059 585.183 55.3954 585.183 55.8494V61H583.174V59.9411H583.114C582.992 60.1797 582.828 60.3902 582.622 60.5724C582.417 60.7514 582.17 60.8923 581.881 60.995C581.593 61.0945 581.26 61.1442 580.882 61.1442ZM581.489 59.6825C581.8 59.6825 582.075 59.6212 582.314 59.4986C582.553 59.3726 582.74 59.2036 582.876 58.9915C583.012 58.7794 583.08 58.5391 583.08 58.2706V57.4602C583.013 57.5033 582.922 57.5431 582.806 57.5795C582.693 57.6127 582.566 57.6442 582.423 57.674C582.281 57.7005 582.138 57.7254 581.996 57.7486C581.853 57.7685 581.724 57.7867 581.608 57.8033C581.359 57.8397 581.142 57.8977 580.957 57.9773C580.771 58.0568 580.627 58.1645 580.524 58.3004C580.421 58.433 580.37 58.5987 580.37 58.7976C580.37 59.0859 580.474 59.3063 580.683 59.4588C580.895 59.608 581.164 59.6825 581.489 59.6825ZM586.826 61V53.3636H588.879V54.696H588.958C589.098 54.2221 589.331 53.8641 589.659 53.6222C589.988 53.3769 590.365 53.2543 590.793 53.2543C590.899 53.2543 591.013 53.2609 591.136 53.2741C591.259 53.2874 591.366 53.3056 591.459 53.3288V55.2081C591.36 55.1783 591.222 55.1518 591.047 55.1286C590.871 55.1054 590.71 55.0938 590.564 55.0938C590.253 55.0938 589.974 55.1617 589.729 55.2976C589.487 55.4302 589.295 55.6158 589.152 55.8544C589.013 56.093 588.944 56.3681 588.944 56.6797V61H586.826ZM594.473 58.8026L594.478 56.2621H594.786L597.232 53.3636H599.664L596.377 57.2017H595.875L594.473 58.8026ZM592.554 61V50.8182H594.672V61H592.554ZM597.327 61L595.08 57.674L596.492 56.1776L599.808 61H597.327ZM600.703 61V53.3636H602.82V61H600.703ZM601.767 52.3793C601.452 52.3793 601.182 52.2749 600.956 52.0661C600.734 51.8539 600.623 51.6004 600.623 51.3054C600.623 51.0137 600.734 50.7635 600.956 50.5547C601.182 50.3426 601.452 50.2365 601.767 50.2365C602.081 50.2365 602.35 50.3426 602.572 50.5547C602.797 50.7635 602.91 51.0137 602.91 51.3054C602.91 51.6004 602.797 51.8539 602.572 52.0661C602.35 52.2749 602.081 52.3793 601.767 52.3793ZM606.635 56.5852V61H604.517V53.3636H606.536V54.7109H606.625C606.794 54.2668 607.077 53.9155 607.475 53.657C607.873 53.3951 608.355 53.2642 608.922 53.2642C609.452 53.2642 609.915 53.3802 610.309 53.6122C610.703 53.8442 611.01 54.1757 611.229 54.6065C611.447 55.0341 611.557 55.5445 611.557 56.1378V61H609.439V56.5156C609.442 56.0483 609.323 55.6837 609.081 55.4219C608.839 55.1567 608.506 55.0241 608.082 55.0241C607.797 55.0241 607.545 55.0855 607.326 55.2081C607.111 55.3307 606.942 55.5097 606.819 55.745C606.7 55.977 606.638 56.2571 606.635 56.5852ZM616.666 64.0227C615.98 64.0227 615.392 63.9283 614.901 63.7393C614.414 63.5537 614.026 63.3002 613.738 62.9787C613.45 62.6572 613.262 62.2959 613.176 61.8949L615.135 61.6314C615.195 61.7839 615.289 61.9264 615.419 62.0589C615.548 62.1915 615.718 62.2976 615.931 62.3771C616.146 62.46 616.408 62.5014 616.716 62.5014C617.177 62.5014 617.556 62.3887 617.855 62.1634C618.156 61.9413 618.307 61.5684 618.307 61.0447V59.6477H618.218C618.125 59.8598 617.985 60.0604 617.8 60.2493C617.614 60.4382 617.376 60.5923 617.084 60.7116C616.792 60.831 616.444 60.8906 616.04 60.8906C615.467 60.8906 614.945 60.758 614.474 60.4929C614.007 60.2244 613.634 59.8151 613.355 59.2649C613.08 58.7114 612.943 58.0121 612.943 57.1669C612.943 56.3018 613.084 55.5793 613.365 54.9993C613.647 54.4193 614.021 53.9851 614.489 53.6967C614.959 53.4084 615.475 53.2642 616.035 53.2642C616.463 53.2642 616.82 53.3371 617.109 53.483C617.397 53.6255 617.629 53.8045 617.805 54.0199C617.984 54.232 618.121 54.4408 618.218 54.6463H618.297V53.3636H620.4V61.0746C620.4 61.7242 620.241 62.2678 619.923 62.7053C619.605 63.1428 619.164 63.4709 618.6 63.6896C618.04 63.9117 617.396 64.0227 616.666 64.0227ZM616.711 59.2997C617.052 59.2997 617.341 59.2152 617.576 59.0462C617.815 58.8738 617.997 58.6286 618.123 58.3104C618.252 57.9889 618.317 57.6044 618.317 57.157C618.317 56.7095 618.254 56.3217 618.128 55.9936C618.002 55.6622 617.82 55.4053 617.581 55.223C617.343 55.0407 617.052 54.9496 616.711 54.9496C616.363 54.9496 616.07 55.044 615.831 55.233C615.593 55.4186 615.412 55.6771 615.289 56.0085C615.167 56.34 615.105 56.7228 615.105 57.157C615.105 57.5978 615.167 57.9789 615.289 58.3004C615.415 58.6186 615.596 58.8655 615.831 59.0412C616.07 59.2135 616.363 59.2997 616.711 59.2997Z" fill="black" fill-opacity="0.7"/>
<path d="M571.64 133H569.333L572.848 122.818H575.622L579.132 133H576.825L574.275 125.145H574.195L571.64 133ZM571.496 128.998H576.945V130.678H571.496V128.998ZM588.863 126.383H586.685C586.645 126.101 586.564 125.851 586.442 125.632C586.319 125.41 586.162 125.221 585.969 125.065C585.777 124.91 585.555 124.79 585.303 124.707C585.055 124.625 584.784 124.583 584.493 124.583C583.966 124.583 583.507 124.714 583.116 124.976C582.724 125.234 582.421 125.612 582.206 126.109C581.99 126.603 581.883 127.203 581.883 127.909C581.883 128.635 581.99 129.245 582.206 129.739C582.425 130.232 582.729 130.605 583.121 130.857C583.512 131.109 583.964 131.235 584.478 131.235C584.766 131.235 585.033 131.197 585.278 131.121C585.527 131.045 585.747 130.933 585.939 130.788C586.132 130.638 586.291 130.458 586.417 130.246C586.546 130.034 586.635 129.792 586.685 129.52L588.863 129.53C588.806 129.997 588.666 130.448 588.44 130.882C588.218 131.313 587.918 131.699 587.54 132.04C587.166 132.379 586.718 132.647 586.198 132.846C585.681 133.041 585.096 133.139 584.443 133.139C583.535 133.139 582.723 132.934 582.007 132.523C581.294 132.112 580.731 131.517 580.317 130.738C579.906 129.959 579.7 129.016 579.7 127.909C579.7 126.799 579.909 125.854 580.327 125.075C580.744 124.296 581.311 123.703 582.027 123.295C582.743 122.884 583.548 122.679 584.443 122.679C585.033 122.679 585.58 122.762 586.084 122.928C586.591 123.093 587.04 123.335 587.431 123.653C587.822 123.968 588.14 124.354 588.385 124.812C588.634 125.269 588.793 125.793 588.863 126.383Z" fill="black" fill-opacity="0.7"/>
<path d="M575.408 90.7464C575.369 90.3454 575.198 90.0339 574.896 89.8118C574.595 89.5897 574.185 89.4787 573.668 89.4787C573.317 89.4787 573.02 89.5284 572.778 89.6278C572.536 89.724 572.351 89.8582 572.222 90.0305C572.096 90.2029 572.033 90.3984 572.033 90.6172C572.026 90.7995 572.064 90.9586 572.147 91.0945C572.233 91.2304 572.351 91.348 572.5 91.4474C572.649 91.5436 572.821 91.6281 573.017 91.701C573.213 91.7706 573.421 91.8303 573.643 91.88L574.558 92.0987C575.002 92.1982 575.41 92.3307 575.781 92.4964C576.152 92.6622 576.474 92.866 576.746 93.108C577.018 93.3499 577.228 93.6349 577.377 93.9631C577.53 94.2912 577.607 94.6674 577.611 95.0916C577.607 95.7147 577.448 96.255 577.134 96.7124C576.822 97.1664 576.371 97.5194 575.781 97.7713C575.195 98.0199 574.487 98.1442 573.658 98.1442C572.836 98.1442 572.121 98.0182 571.511 97.7663C570.904 97.5144 570.43 97.1416 570.089 96.6477C569.751 96.1506 569.573 95.5357 569.557 94.8033H571.64C571.663 95.1446 571.761 95.4297 571.933 95.6584C572.109 95.8838 572.343 96.0545 572.634 96.1705C572.929 96.2831 573.262 96.3395 573.634 96.3395C573.998 96.3395 574.315 96.2865 574.583 96.1804C574.855 96.0743 575.065 95.9268 575.214 95.7379C575.364 95.549 575.438 95.3319 575.438 95.0866C575.438 94.858 575.37 94.6657 575.234 94.5099C575.102 94.3542 574.906 94.2216 574.648 94.1122C574.393 94.0028 574.079 93.9034 573.708 93.8139L572.599 93.5355C571.741 93.3267 571.063 93.0002 570.566 92.5561C570.069 92.112 569.822 91.5137 569.825 90.7614C569.822 90.1449 569.986 89.6063 570.317 89.1456C570.652 88.6849 571.111 88.3253 571.695 88.0668C572.278 87.8082 572.941 87.679 573.683 87.679C574.439 87.679 575.098 87.8082 575.662 88.0668C576.229 88.3253 576.67 88.6849 576.984 89.1456C577.299 89.6063 577.462 90.1399 577.472 90.7464H575.408ZM580.525 98L578.447 90.3636H580.59L581.773 95.4943H581.843L583.076 90.3636H585.179L586.432 95.4645H586.496L587.66 90.3636H589.797L587.724 98H585.482L584.17 93.1974H584.075L582.763 98H580.525ZM590.927 98V90.3636H593.045V98H590.927ZM591.991 89.3793C591.676 89.3793 591.406 89.2749 591.181 89.0661C590.959 88.8539 590.848 88.6004 590.848 88.3054C590.848 88.0137 590.959 87.7635 591.181 87.5547C591.406 87.3426 591.676 87.2365 591.991 87.2365C592.306 87.2365 592.574 87.3426 592.797 87.5547C593.022 87.7635 593.135 88.0137 593.135 88.3054C593.135 88.6004 593.022 88.8539 592.797 89.0661C592.574 89.2749 592.306 89.3793 591.991 89.3793ZM594.742 98V90.3636H596.76V91.7109H596.85C597.009 91.2635 597.274 90.9105 597.645 90.652C598.016 90.3935 598.46 90.2642 598.977 90.2642C599.501 90.2642 599.947 90.3951 600.315 90.657C600.683 90.9155 600.928 91.2668 601.051 91.7109H601.13C601.286 91.2734 601.568 90.9238 601.975 90.6619C602.386 90.3968 602.872 90.2642 603.432 90.2642C604.145 90.2642 604.723 90.4912 605.167 90.9453C605.615 91.3961 605.838 92.0357 605.838 92.8643V98H603.725V93.282C603.725 92.8577 603.613 92.5395 603.387 92.3274C603.162 92.1153 602.88 92.0092 602.542 92.0092C602.158 92.0092 601.858 92.1319 601.642 92.3771C601.427 92.6191 601.319 92.9389 601.319 93.3366V98H599.266V93.2372C599.266 92.8627 599.158 92.5644 598.943 92.3423C598.731 92.1203 598.45 92.0092 598.102 92.0092C597.867 92.0092 597.655 92.0689 597.466 92.1882C597.28 92.3042 597.133 92.4683 597.024 92.6804C596.914 92.8892 596.86 93.1345 596.86 93.4162V98H594.742ZM607.511 98V90.3636H609.53V91.7109H609.619C609.778 91.2635 610.043 90.9105 610.415 90.652C610.786 90.3935 611.23 90.2642 611.747 90.2642C612.271 90.2642 612.716 90.3951 613.084 90.657C613.452 90.9155 613.698 91.2668 613.82 91.7109H613.9C614.055 91.2734 614.337 90.9238 614.745 90.6619C615.156 90.3968 615.641 90.2642 616.202 90.2642C616.914 90.2642 617.492 90.4912 617.937 90.9453C618.384 91.3961 618.608 92.0357 618.608 92.8643V98H616.495V93.282C616.495 92.8577 616.382 92.5395 616.157 92.3274C615.931 92.1153 615.65 92.0092 615.312 92.0092C614.927 92.0092 614.627 92.1319 614.412 92.3771C614.196 92.6191 614.089 92.9389 614.089 93.3366V98H612.035V93.2372C612.035 92.8627 611.928 92.5644 611.712 92.3423C611.5 92.1203 611.22 92.0092 610.872 92.0092C610.637 92.0092 610.425 92.0689 610.236 92.1882C610.05 92.3042 609.903 92.4683 609.793 92.6804C609.684 92.8892 609.629 93.1345 609.629 93.4162V98H607.511ZM620.281 98V90.3636H622.399V98H620.281ZM621.345 89.3793C621.03 89.3793 620.76 89.2749 620.534 89.0661C620.312 88.8539 620.201 88.6004 620.201 88.3054C620.201 88.0137 620.312 87.7635 620.534 87.5547C620.76 87.3426 621.03 87.2365 621.345 87.2365C621.66 87.2365 621.928 87.3426 622.15 87.5547C622.375 87.7635 622.488 88.0137 622.488 88.3054C622.488 88.6004 622.375 88.8539 622.15 89.0661C621.928 89.2749 621.66 89.3793 621.345 89.3793ZM626.213 93.5852V98H624.095V90.3636H626.114V91.7109H626.203C626.372 91.2668 626.656 90.9155 627.053 90.657C627.451 90.3951 627.933 90.2642 628.5 90.2642C629.03 90.2642 629.493 90.3802 629.887 90.6122C630.281 90.8442 630.588 91.1757 630.807 91.6065C631.026 92.0341 631.135 92.5445 631.135 93.1378V98H629.017V93.5156C629.02 93.0483 628.901 92.6837 628.659 92.4219C628.417 92.1567 628.084 92.0241 627.66 92.0241C627.375 92.0241 627.123 92.0855 626.904 92.2081C626.689 92.3307 626.52 92.5097 626.397 92.745C626.278 92.977 626.216 93.2571 626.213 93.5852ZM636.244 101.023C635.558 101.023 634.97 100.928 634.48 100.739C633.992 100.554 633.605 100.3 633.316 99.9787C633.028 99.6572 632.841 99.2959 632.754 98.8949L634.713 98.6314C634.773 98.7839 634.867 98.9264 634.997 99.0589C635.126 99.1915 635.297 99.2976 635.509 99.3771C635.724 99.46 635.986 99.5014 636.294 99.5014C636.755 99.5014 637.134 99.3887 637.433 99.1634C637.734 98.9413 637.885 98.5684 637.885 98.0447V96.6477H637.796C637.703 96.8598 637.564 97.0604 637.378 97.2493C637.192 97.4382 636.954 97.5923 636.662 97.7116C636.37 97.831 636.022 97.8906 635.618 97.8906C635.045 97.8906 634.523 97.758 634.052 97.4929C633.585 97.2244 633.212 96.8151 632.933 96.2649C632.658 95.7114 632.521 95.0121 632.521 94.1669C632.521 93.3018 632.662 92.5793 632.943 91.9993C633.225 91.4193 633.6 90.9851 634.067 90.6967C634.538 90.4084 635.053 90.2642 635.613 90.2642C636.041 90.2642 636.399 90.3371 636.687 90.483C636.975 90.6255 637.207 90.8045 637.383 91.0199C637.562 91.232 637.7 91.4408 637.796 91.6463H637.875V90.3636H639.978V98.0746C639.978 98.7242 639.819 99.2678 639.501 99.7053C639.183 100.143 638.742 100.471 638.178 100.69C637.618 100.912 636.974 101.023 636.244 101.023ZM636.289 96.2997C636.631 96.2997 636.919 96.2152 637.154 96.0462C637.393 95.8738 637.575 95.6286 637.701 95.3104C637.83 94.9889 637.895 94.6044 637.895 94.157C637.895 93.7095 637.832 93.3217 637.706 92.9936C637.58 92.6622 637.398 92.4053 637.159 92.223C636.921 92.0407 636.631 91.9496 636.289 91.9496C635.941 91.9496 635.648 92.044 635.409 92.233C635.171 92.4186 634.99 92.6771 634.867 93.0085C634.745 93.34 634.683 93.7228 634.683 94.157C634.683 94.5978 634.745 94.9789 634.867 95.3004C634.993 95.6186 635.174 95.8655 635.409 96.0412C635.648 96.2135 635.941 96.2997 636.289 96.2997ZM644.944 98V87.8182H648.961C649.733 87.8182 650.391 87.9657 650.934 88.2607C651.478 88.5523 651.892 88.9583 652.177 89.4787C652.466 89.9957 652.61 90.5923 652.61 91.2685C652.61 91.9446 652.464 92.5412 652.172 93.0582C651.881 93.5753 651.458 93.978 650.904 94.2663C650.354 94.5547 649.688 94.6989 648.906 94.6989H646.346V92.9737H648.558C648.972 92.9737 649.314 92.9025 649.582 92.7599C649.854 92.6141 650.056 92.4136 650.189 92.1584C650.324 91.8999 650.392 91.6032 650.392 91.2685C650.392 90.9304 650.324 90.6354 650.189 90.3835C650.056 90.1283 649.854 89.9311 649.582 89.7919C649.31 89.6494 648.966 89.5781 648.548 89.5781H647.096V98H644.944ZM657.295 98.1491C656.523 98.1491 655.855 97.9851 655.292 97.657C654.732 97.3255 654.299 96.8648 653.994 96.2749C653.689 95.6816 653.537 94.9938 653.537 94.2116C653.537 93.4228 653.689 92.7334 653.994 92.1435C654.299 91.5502 654.732 91.0895 655.292 90.7614C655.855 90.4299 656.523 90.2642 657.295 90.2642C658.068 90.2642 658.734 90.4299 659.294 90.7614C659.857 91.0895 660.292 91.5502 660.597 92.1435C660.902 92.7334 661.054 93.4228 661.054 94.2116C661.054 94.9938 660.902 95.6816 660.597 96.2749C660.292 96.8648 659.857 97.3255 659.294 97.657C658.734 97.9851 658.068 98.1491 657.295 98.1491ZM657.305 96.5085C657.657 96.5085 657.95 96.4091 658.185 96.2102C658.421 96.008 658.598 95.733 658.717 95.3849C658.84 95.0369 658.901 94.6409 658.901 94.1967C658.901 93.7526 658.84 93.3565 658.717 93.0085C658.598 92.6605 658.421 92.3854 658.185 92.1832C657.95 91.9811 657.657 91.88 657.305 91.88C656.951 91.88 656.652 91.9811 656.411 92.1832C656.172 92.3854 655.991 92.6605 655.869 93.0085C655.749 93.3565 655.69 93.7526 655.69 94.1967C655.69 94.6409 655.749 95.0369 655.869 95.3849C655.991 95.733 656.172 96.008 656.411 96.2102C656.652 96.4091 656.951 96.5085 657.305 96.5085ZM665.881 98.1491C665.109 98.1491 664.441 97.9851 663.878 97.657C663.318 97.3255 662.885 96.8648 662.58 96.2749C662.275 95.6816 662.123 94.9938 662.123 94.2116C662.123 93.4228 662.275 92.7334 662.58 92.1435C662.885 91.5502 663.318 91.0895 663.878 90.7614C664.441 90.4299 665.109 90.2642 665.881 90.2642C666.654 90.2642 667.32 90.4299 667.88 90.7614C668.443 91.0895 668.878 91.5502 669.183 92.1435C669.487 92.7334 669.64 93.4228 669.64 94.2116C669.64 94.9938 669.487 95.6816 669.183 96.2749C668.878 96.8648 668.443 97.3255 667.88 97.657C667.32 97.9851 666.654 98.1491 665.881 98.1491ZM665.891 96.5085C666.243 96.5085 666.536 96.4091 666.771 96.2102C667.007 96.008 667.184 95.733 667.303 95.3849C667.426 95.0369 667.487 94.6409 667.487 94.1967C667.487 93.7526 667.426 93.3565 667.303 93.0085C667.184 92.6605 667.007 92.3854 666.771 92.1832C666.536 91.9811 666.243 91.88 665.891 91.88C665.537 91.88 665.238 91.9811 664.996 92.1832C664.758 92.3854 664.577 92.6605 664.455 93.0085C664.335 93.3565 664.276 93.7526 664.276 94.1967C664.276 94.6409 664.335 95.0369 664.455 95.3849C664.577 95.733 664.758 96.008 664.996 96.2102C665.238 96.4091 665.537 96.5085 665.891 96.5085ZM673.135 87.8182V98H671.017V87.8182H673.135Z" fill="black" fill-opacity="0.7"/>
</g>
<defs>
<filter id="filter0_d_283_127" x="0" y="0" width="769" height="204" filterUnits="userSpaceOnUse" color-interpolation-filters="sRGB">
<feFlood flood-opacity="0" result="BackgroundImageFix"/>
<feColorMatrix in="SourceAlpha" type="matrix" values="0 0 0 0 0 0 0 0 0 0 0 0 0 0 0 0 0 0 127 0" result="hardAlpha"/>
<feOffset dy="4"/>
<feGaussianBlur stdDeviation="2"/>
<feComposite in2="hardAlpha" operator="out"/>
<feColorMatrix type="matrix" values="0 0 0 0 0 0 0 0 0 0 0 0 0 0 0 0 0 0 0.25 0"/>
<feBlend mode="normal" in2="BackgroundImageFix" result="effect1_dropShadow_283_127"/>
<feBlend mode="normal" in="SourceGraphic" in2="effect1_dropShadow_283_127" result="shape"/>
</filter>
<filter id="filter1_i_283_127" x="64.832" y="40.5459" width="122.766" height="71.8271" filterUnits="userSpaceOnUse" color-interpolation-filters="sRGB">
<feFlood flood-opacity="0" result="BackgroundImageFix"/>
<feBlend mode="normal" in="SourceGraphic" in2="BackgroundImageFix" result="shape"/>
<feColorMatrix in="SourceAlpha" type="matrix" values="0 0 0 0 0 0 0 0 0 0 0 0 0 0 0 0 0 0 127 0" result="hardAlpha"/>
<feOffset dy="4"/>
<feGaussianBlur stdDeviation="2"/>
<feComposite in2="hardAlpha" operator="arithmetic" k2="-1" k3="1"/>
<feColorMatrix type="matrix" values="0 0 0 0 0 0 0 0 0 0 0 0 0 0 0 0 0 0 0.25 0"/>
<feBlend mode="normal" in2="shape" result="effect1_innerShadow_283_127"/>
</filter>
</defs>
</svg>
