<svg width="761" height="196" viewBox="0 0 761 196" fill="none" xmlns="http://www.w3.org/2000/svg">
<rect x="0.5" y="0.5" width="760" height="195" rx="19.5" fill="white" stroke="black"/>
<path d="M66.825 156L68.45 148.975L63 144.25L70.2 143.625L73 137L75.8 143.625L83 144.25L77.55 148.975L79.175 156L73 152.275L66.825 156Z" fill="#FFC700"/>
<path d="M88.825 156L90.45 148.975L85 144.25L92.2 143.625L95 137L97.8 143.625L105 144.25L99.55 148.975L101.175 156L95 152.275L88.825 156Z" fill="#FFC700"/>
<path d="M110.825 156L112.45 148.975L107 144.25L114.2 143.625L117 137L119.8 143.625L127 144.25L121.55 148.975L123.175 156L117 152.275L110.825 156Z" fill="#FFC700"/>
<g clip-path="url(#clip0_283_238)">
<path d="M132.825 156L134.45 148.975L129 144.25L136.2 143.625L139 137L141.8 143.625L149 144.25L143.55 148.975L145.175 156L139 152.275L132.825 156Z" fill="#FFC700"/>
</g>
<line x1="269.5" x2="269.5" y2="196" stroke="black"/>
<path d="M330 126H328V119H326V126H324V119H322V126C322 128.12 323.66 129.84 325.75 129.97V139H328.25V129.97C330.34 129.84 332 128.12 332 126V119H330V126ZM335 123V131H337.5V139H340V119C337.24 119 335 121.24 335 123Z" fill="black" fill-opacity="0.7"/>
<g filter="url(#filter0_i_283_238)">
<path d="M76.021 47.8661C75.9215 46.8635 75.4948 46.0846 74.7408 45.5295C73.9867 44.9743 72.9634 44.6967 71.6708 44.6967C70.7925 44.6967 70.0509 44.821 69.446 45.0696C68.8411 45.3099 68.3771 45.6455 68.054 46.0763C67.7391 46.5072 67.5817 46.9961 67.5817 47.543C67.5651 47.9987 67.6604 48.3964 67.8675 48.7362C68.083 49.0759 68.3771 49.37 68.75 49.6186C69.1229 49.8589 69.5537 50.0702 70.0426 50.2525C70.5315 50.4265 71.0535 50.5756 71.6087 50.6999L73.8956 51.2468C75.0059 51.4954 76.0251 51.8268 76.9531 52.2411C77.8812 52.6554 78.6849 53.165 79.3643 53.7699C80.0438 54.3748 80.57 55.0874 80.9428 55.9077C81.324 56.728 81.5187 57.6684 81.527 58.729C81.5187 60.2868 81.121 61.6374 80.3338 62.7809C79.5549 63.9161 78.428 64.7985 76.9531 65.4283C75.4865 66.0497 73.7174 66.3604 71.646 66.3604C69.591 66.3604 67.8013 66.0456 66.2766 65.4158C64.7603 64.7861 63.5754 63.8539 62.7219 62.6193C61.8768 61.3764 61.4335 59.8394 61.392 58.0082H66.5998C66.6578 58.8616 66.9022 59.5742 67.3331 60.146C67.7723 60.7094 68.3564 61.1361 69.0856 61.4261C69.823 61.7079 70.6558 61.8487 71.5838 61.8487C72.4953 61.8487 73.2866 61.7161 73.9577 61.451C74.6372 61.1858 75.1634 60.8171 75.5362 60.3448C75.9091 59.8725 76.0955 59.3298 76.0955 58.7166C76.0955 58.1449 75.9257 57.6643 75.5859 57.2749C75.2545 56.8854 74.7656 56.554 74.1193 56.2805C73.4813 56.0071 72.6983 55.7585 71.7702 55.5348L68.9986 54.8388C66.8525 54.3168 65.158 53.5006 63.9151 52.3903C62.6722 51.2799 62.0549 49.7843 62.0632 47.9034C62.0549 46.3622 62.4651 45.0157 63.2937 43.864C64.1306 42.7122 65.2782 41.8132 66.7365 41.1669C68.1948 40.5206 69.852 40.1974 71.7081 40.1974C73.5973 40.1974 75.2462 40.5206 76.6548 41.1669C78.0717 41.8132 79.1738 42.7122 79.9609 43.864C80.7481 45.0157 81.1541 46.3498 81.179 47.8661H76.021ZM93.7478 66.3729C91.784 66.3729 90.0937 65.9751 88.6768 65.1797C87.2681 64.3759 86.1827 63.2408 85.4204 61.7741C84.6581 60.2992 84.2769 58.555 84.2769 56.5415C84.2769 54.5778 84.6581 52.8543 85.4204 51.3711C86.1827 49.8879 87.2557 48.732 88.6395 47.9034C90.0315 47.0748 91.6639 46.6605 93.5365 46.6605C94.796 46.6605 95.9684 46.8635 97.0539 47.2695C98.1476 47.6673 99.1005 48.268 99.9126 49.0717C100.733 49.8755 101.371 50.8864 101.827 52.1044C102.282 53.3142 102.51 54.7311 102.51 56.3551V57.8093H86.3898V54.5281H97.5262C97.5262 53.7657 97.3605 53.0904 97.029 52.5021C96.6976 51.9138 96.2377 51.454 95.6494 51.1225C95.0694 50.7828 94.3941 50.6129 93.6235 50.6129C92.8198 50.6129 92.1072 50.7994 91.4857 51.1722C90.8725 51.5368 90.392 52.0298 90.0439 52.6513C89.6959 53.2644 89.5178 53.948 89.5095 54.7021V57.8217C89.5095 58.7663 89.6835 59.5825 90.0315 60.2702C90.3878 60.958 90.8891 61.4883 91.5354 61.8612C92.1817 62.234 92.9482 62.4205 93.8348 62.4205C94.4231 62.4205 94.9617 62.3376 95.4506 62.1719C95.9394 62.0062 96.3579 61.7576 96.7059 61.4261C97.0539 61.0947 97.319 60.6887 97.5013 60.2081L102.398 60.5312C102.15 61.7079 101.64 62.7353 100.87 63.6136C100.107 64.4837 99.1212 65.1631 97.9115 65.652C96.71 66.1326 95.3221 66.3729 93.7478 66.3729ZM111.409 66.3604C110.191 66.3604 109.106 66.1491 108.153 65.7266C107.2 65.2957 106.446 64.6618 105.891 63.8249C105.344 62.9798 105.071 61.9274 105.071 60.668C105.071 59.6074 105.265 58.7166 105.655 57.9957C106.044 57.2749 106.574 56.6948 107.246 56.2557C107.917 55.8165 108.679 55.4851 109.533 55.2614C110.394 55.0376 111.297 54.8802 112.242 54.7891C113.352 54.6731 114.247 54.5653 114.927 54.4659C115.606 54.3582 116.099 54.2008 116.406 53.9936C116.712 53.7865 116.866 53.4799 116.866 53.0739V52.9993C116.866 52.2121 116.617 51.6031 116.12 51.1722C115.631 50.7414 114.935 50.5259 114.032 50.5259C113.079 50.5259 112.321 50.7372 111.757 51.1598C111.194 51.5741 110.821 52.0961 110.639 52.7259L105.742 52.3281C105.99 51.1681 106.479 50.1655 107.208 49.3203C107.938 48.4669 108.878 47.8123 110.03 47.3565C111.19 46.8925 112.532 46.6605 114.057 46.6605C115.117 46.6605 116.132 46.7848 117.102 47.0334C118.08 47.282 118.945 47.6673 119.699 48.1893C120.462 48.7113 121.063 49.3825 121.502 50.2028C121.941 51.0148 122.16 51.9884 122.16 53.1236V66H117.139V63.3526H116.99C116.683 63.9492 116.273 64.4754 115.759 64.9311C115.246 65.3786 114.628 65.7307 113.908 65.9876C113.187 66.2362 112.354 66.3604 111.409 66.3604ZM112.926 62.7063C113.705 62.7063 114.392 62.553 114.989 62.2464C115.585 61.9316 116.054 61.509 116.393 60.9787C116.733 60.4484 116.903 59.8477 116.903 59.1765V57.1506C116.737 57.2583 116.509 57.3577 116.219 57.4489C115.938 57.5317 115.619 57.6104 115.262 57.685C114.906 57.7513 114.55 57.8134 114.193 57.8714C113.837 57.9212 113.514 57.9667 113.224 58.0082C112.603 58.0993 112.06 58.2443 111.596 58.4432C111.132 58.642 110.771 58.9113 110.514 59.2511C110.258 59.5825 110.129 59.9968 110.129 60.494C110.129 61.2148 110.39 61.7659 110.912 62.147C111.443 62.5199 112.114 62.7063 112.926 62.7063ZM130.32 66L123.037 40.5455H128.916L133.129 58.2319H133.34L137.989 40.5455H143.022L147.658 58.2692H147.882L152.096 40.5455H157.975L150.691 66H145.446L140.599 49.3576H140.4L135.565 66H130.32ZM167.33 66.3729C165.4 66.3729 163.73 65.9627 162.322 65.1424C160.921 64.3138 159.84 63.1621 159.078 61.6871C158.315 60.204 157.934 58.4846 157.934 56.5291C157.934 54.5571 158.315 52.8336 159.078 51.3587C159.84 49.8755 160.921 48.7237 162.322 47.9034C163.73 47.0748 165.4 46.6605 167.33 46.6605C169.261 46.6605 170.927 47.0748 172.327 47.9034C173.735 48.7237 174.821 49.8755 175.583 51.3587C176.346 52.8336 176.727 54.5571 176.727 56.5291C176.727 58.4846 176.346 60.204 175.583 61.6871C174.821 63.1621 173.735 64.3138 172.327 65.1424C170.927 65.9627 169.261 66.3729 167.33 66.3729ZM167.355 62.2713C168.234 62.2713 168.967 62.0227 169.555 61.5256C170.144 61.0201 170.587 60.3324 170.885 59.4624C171.192 58.5923 171.345 57.6022 171.345 56.4918C171.345 55.3815 171.192 54.3913 170.885 53.5213C170.587 52.6513 170.144 51.9635 169.555 51.4581C168.967 50.9527 168.234 50.6999 167.355 50.6999C166.469 50.6999 165.723 50.9527 165.118 51.4581C164.521 51.9635 164.07 52.6513 163.763 53.5213C163.465 54.3913 163.316 55.3815 163.316 56.4918C163.316 57.6022 163.465 58.5923 163.763 59.4624C164.07 60.3324 164.521 61.0201 165.118 61.5256C165.723 62.0227 166.469 62.2713 167.355 62.2713ZM180.17 66V46.9091H185.303V50.2401H185.502C185.85 49.0552 186.434 48.1603 187.254 47.5554C188.074 46.9422 189.019 46.6357 190.088 46.6357C190.353 46.6357 190.639 46.6522 190.945 46.6854C191.252 46.7185 191.521 46.7641 191.753 46.8221V51.5202C191.505 51.4457 191.161 51.3794 190.722 51.3214C190.283 51.2634 189.881 51.2344 189.516 51.2344C188.737 51.2344 188.041 51.4042 187.428 51.744C186.823 52.0754 186.343 52.5394 185.986 53.136C185.638 53.7326 185.464 54.4203 185.464 55.1992V66H180.17ZM199.786 40.5455V66H194.491V40.5455H199.786ZM211.062 66.3107C209.612 66.3107 208.298 65.9379 207.122 65.1921C205.953 64.4381 205.025 63.3319 204.338 61.8736C203.658 60.407 203.319 58.6089 203.319 56.4794C203.319 54.2919 203.671 52.4731 204.375 51.0231C205.079 49.5647 206.016 48.4751 207.184 47.7543C208.361 47.0251 209.649 46.6605 211.049 46.6605C212.118 46.6605 213.009 46.8428 213.722 47.2074C214.442 47.5637 215.022 48.0111 215.462 48.5497C215.909 49.08 216.249 49.602 216.481 50.1158H216.642V40.5455H221.925V66H216.705V62.9425H216.481C216.232 63.4728 215.88 63.9989 215.424 64.521C214.977 65.0347 214.393 65.4614 213.672 65.8011C212.959 66.1409 212.089 66.3107 211.062 66.3107ZM212.74 62.0973C213.593 62.0973 214.314 61.8653 214.902 61.4013C215.499 60.929 215.955 60.2702 216.27 59.4251C216.593 58.5799 216.754 57.5897 216.754 56.4545C216.754 55.3194 216.597 54.3333 216.282 53.4964C215.967 52.6596 215.511 52.0133 214.915 51.5575C214.318 51.1018 213.593 50.8739 212.74 50.8739C211.87 50.8739 211.136 51.1101 210.54 51.5824C209.943 52.0547 209.492 52.7093 209.185 53.5462C208.878 54.383 208.725 55.3525 208.725 56.4545C208.725 57.5649 208.878 58.5468 209.185 59.4002C209.5 60.2454 209.951 60.9083 210.54 61.3888C211.136 61.8612 211.87 62.0973 212.74 62.0973ZM84.6715 91.457H79.2276C79.1282 90.7527 78.9252 90.1271 78.6186 89.5803C78.312 89.0251 77.9184 88.5528 77.4379 88.1634C76.9573 87.7739 76.4021 87.4756 75.7724 87.2685C75.1509 87.0613 74.4756 86.9577 73.7464 86.9577C72.429 86.9577 71.2814 87.285 70.3036 87.9396C69.3259 88.5859 68.5677 89.5305 68.0291 90.7734C67.4905 92.008 67.2212 93.5078 67.2212 95.2727C67.2212 97.0874 67.4905 98.612 68.0291 99.8466C68.576 101.081 69.3383 102.013 70.3161 102.643C71.2938 103.273 72.4248 103.588 73.7092 103.588C74.43 103.588 75.0971 103.492 75.7102 103.302C76.3317 103.111 76.8827 102.834 77.3633 102.469C77.8439 102.096 78.2416 101.645 78.5565 101.114C78.8796 100.584 79.1033 99.9792 79.2276 99.2997L84.6715 99.3246C84.5307 100.493 84.1785 101.62 83.6151 102.705C83.0599 103.782 82.31 104.748 81.3654 105.601C80.4291 106.446 79.3105 107.118 78.0096 107.615C76.717 108.104 75.2545 108.348 73.6222 108.348C71.3518 108.348 69.3217 107.834 67.532 106.807C65.7505 105.779 64.3419 104.292 63.3061 102.345C62.2786 100.398 61.7649 98.0402 61.7649 95.2727C61.7649 92.4969 62.2869 90.1354 63.331 88.1882C64.375 86.241 65.7919 84.7578 67.5817 83.7386C69.3714 82.7112 71.3849 82.1974 73.6222 82.1974C75.0971 82.1974 76.4643 82.4046 77.7237 82.8189C78.9915 83.2332 80.1142 83.8381 81.092 84.6335C82.0697 85.4207 82.8652 86.386 83.4783 87.5295C84.0998 88.6729 84.4975 89.9821 84.6715 91.457ZM93.726 82.5455V108H88.4313V82.5455H93.726ZM110.21 99.8714V88.9091H115.505V108H110.421V104.532H110.222C109.792 105.651 109.075 106.55 108.072 107.229C107.078 107.909 105.864 108.249 104.43 108.249C103.154 108.249 102.032 107.959 101.062 107.379C100.093 106.799 99.3346 105.974 98.7877 104.905C98.2491 103.836 97.9757 102.556 97.9674 101.065V88.9091H103.262V100.12C103.27 101.247 103.573 102.138 104.169 102.792C104.766 103.447 105.566 103.774 106.568 103.774C107.206 103.774 107.803 103.629 108.358 103.339C108.913 103.041 109.361 102.602 109.7 102.022C110.048 101.442 110.218 100.725 110.21 99.8714ZM119.839 108V82.5455H125.134V92.1158H125.296C125.528 91.602 125.863 91.08 126.302 90.5497C126.75 90.0111 127.33 89.5637 128.042 89.2074C128.763 88.8428 129.658 88.6605 130.727 88.6605C132.119 88.6605 133.403 89.0251 134.58 89.7543C135.757 90.4751 136.697 91.5647 137.401 93.0231C138.106 94.4731 138.458 96.2919 138.458 98.4794C138.458 100.609 138.114 102.407 137.426 103.874C136.747 105.332 135.819 106.438 134.642 107.192C133.474 107.938 132.165 108.311 130.715 108.311C129.687 108.311 128.813 108.141 128.092 107.801C127.38 107.461 126.795 107.035 126.34 106.521C125.884 105.999 125.536 105.473 125.296 104.942H125.059V108H119.839ZM125.022 98.4545C125.022 99.5897 125.18 100.58 125.494 101.425C125.809 102.27 126.265 102.929 126.862 103.401C127.458 103.865 128.183 104.097 129.037 104.097C129.898 104.097 130.628 103.861 131.224 103.389C131.821 102.908 132.272 102.245 132.579 101.4C132.894 100.547 133.051 99.5649 133.051 98.4545C133.051 97.3525 132.898 96.383 132.591 95.5462C132.285 94.7093 131.833 94.0547 131.237 93.5824C130.64 93.1101 129.907 92.8739 129.037 92.8739C128.175 92.8739 127.446 93.1018 126.849 93.5575C126.261 94.0133 125.809 94.6596 125.494 95.4964C125.18 96.3333 125.022 97.3194 125.022 98.4545Z" fill="black" fill-opacity="0.7"/>
</g>
<path d="M329 67C328.358 67 327.816 66.7583 327.373 66.275C326.93 65.7917 326.708 65.2 326.708 64.5C326.708 63.8 326.93 63.2083 327.373 62.725C327.816 62.2417 328.358 62 329 62C329.642 62 330.184 62.2417 330.627 62.725C331.07 63.2083 331.292 63.8 331.292 64.5C331.292 65.2 331.07 65.7917 330.627 66.275C330.184 66.7583 329.642 67 329 67ZM323.821 61.35L321.896 59.2C322.797 58.2167 323.855 57.4377 325.07 56.863C326.285 56.2883 327.595 56.0007 329 56C330.406 56 331.716 56.2917 332.931 56.875C334.146 57.4583 335.203 58.25 336.104 59.25L334.179 61.35C333.507 60.6167 332.728 60.0417 331.842 59.625C330.956 59.2083 330.008 59 329 59C327.992 59 327.044 59.2083 326.158 59.625C325.272 60.0417 324.493 60.6167 323.821 61.35ZM319.925 57.1L318 55C319.406 53.4333 321.048 52.2083 322.927 51.325C324.806 50.4417 326.831 50 329 50C331.169 50 333.194 50.4417 335.073 51.325C336.952 52.2083 338.594 53.4333 340 55L338.075 57.1C336.899 55.8167 335.535 54.8127 333.985 54.088C332.434 53.3633 330.773 53.0007 329 53C327.228 53 325.566 53.3627 324.016 54.088C322.466 54.8133 321.102 55.8173 319.925 57.1Z" fill="black" fill-opacity="0.7"/>
<path d="M534.042 52.75C534.042 52.4185 534.162 52.1005 534.377 51.8661C534.592 51.6317 534.883 51.5 535.187 51.5C535.491 51.5 535.783 51.6317 535.998 51.8661C536.213 52.1005 536.333 52.4185 536.333 52.75V59.036C536.77 59.081 537.23 59.169 537.708 59.31V58H543.667V61.5C544.13 61.4918 544.592 61.4247 545.042 61.3V52.75C545.042 52.0207 544.776 51.3212 544.303 50.8055C543.83 50.2897 543.189 50 542.521 50C541.852 50 541.211 50.2897 540.738 50.8055C540.265 51.3212 540 52.0207 540 52.75V53.25C540 53.4489 540.072 53.6397 540.201 53.7803C540.33 53.921 540.505 54 540.687 54C540.87 54 541.045 53.921 541.174 53.7803C541.302 53.6397 541.375 53.4489 541.375 53.25V52.75C541.375 52.4185 541.496 52.1005 541.71 51.8661C541.925 51.6317 542.217 51.5 542.521 51.5C542.825 51.5 543.116 51.6317 543.331 51.8661C543.546 52.1005 543.667 52.4185 543.667 52.75V56.5H537.708V52.75C537.708 52.0207 537.443 51.3212 536.97 50.8055C536.497 50.2897 535.856 50 535.187 50C534.519 50 533.878 50.2897 533.405 50.8055C532.932 51.3212 532.667 52.0207 532.667 52.75V53.25C532.667 53.4489 532.739 53.6397 532.868 53.7803C532.997 53.921 533.172 54 533.354 54C533.536 54 533.711 53.921 533.84 53.7803C533.969 53.6397 534.042 53.4489 534.042 53.25V52.75ZM532.923 62.526C532.794 62.6633 532.621 62.7398 532.44 62.739C532.26 62.7382 532.087 62.6601 531.959 62.5216C531.831 62.3831 531.758 62.1952 531.756 61.9985C531.754 61.8018 531.822 61.612 531.947 61.47H531.948V61.469L531.951 61.467L531.954 61.462L531.965 61.451C532.012 61.4004 532.061 61.3523 532.112 61.307C532.243 61.188 532.381 61.0774 532.524 60.976C533.002 60.6378 533.525 60.3837 534.075 60.223C535.447 59.817 537.378 59.847 539.759 61.331C541.873 62.648 543.731 62.641 545.054 62.323C545.598 62.1932 546.126 61.9918 546.626 61.723C546.809 61.6234 546.987 61.5123 547.158 61.39L547.159 61.389L547.161 61.388C547.309 61.2749 547.492 61.2299 547.67 61.2627C547.848 61.2955 548.007 61.4035 548.113 61.5632C548.218 61.723 548.262 61.9217 548.235 62.1165C548.207 62.3113 548.111 62.4864 547.966 62.604H547.965L547.963 62.606L547.958 62.609L547.946 62.619C547.885 62.6656 547.824 62.7097 547.76 62.751C547.591 62.8645 547.416 62.9696 547.238 63.066C546.638 63.3895 546.004 63.6319 545.35 63.788C543.744 64.174 541.529 64.161 539.077 62.633C536.997 61.337 535.438 61.373 534.435 61.67C534.024 61.7894 533.634 61.9784 533.277 62.23C533.157 62.3159 533.042 62.4112 532.934 62.515L532.923 62.526ZM531.955 66.531C532.085 66.6699 532.259 66.7473 532.441 66.7463C532.622 66.7454 532.796 66.6662 532.924 66.526L532.934 66.516C532.946 66.504 532.966 66.483 532.996 66.456C533.055 66.402 533.15 66.322 533.277 66.23C533.534 66.047 533.922 65.822 534.435 65.67C535.439 65.374 536.997 65.337 539.077 66.633C541.529 68.161 543.743 68.174 545.35 67.788C546.004 67.6319 546.639 67.3895 547.239 67.066C547.468 66.9415 547.69 66.8026 547.904 66.65L547.946 66.62L547.958 66.61L547.963 66.606L547.965 66.605L547.966 66.604C548.111 66.4864 548.207 66.3113 548.235 66.1165C548.262 65.9217 548.218 65.723 548.113 65.5632C548.007 65.4035 547.848 65.2955 547.67 65.2627C547.492 65.2299 547.309 65.2749 547.161 65.388H547.159L547.158 65.39C546.987 65.5123 546.809 65.6234 546.626 65.723C546.259 65.922 545.722 66.163 545.054 66.323C543.731 66.642 541.874 66.648 539.759 65.331C537.378 63.847 535.447 63.817 534.075 64.223C533.4 64.423 532.879 64.722 532.524 64.976C532.339 65.1079 532.164 65.255 531.999 65.416C531.988 65.4275 531.976 65.4392 531.965 65.451L531.954 65.462L531.951 65.467L531.949 65.469L531.947 65.47C531.819 65.6118 531.748 65.8031 531.75 66.0019C531.752 66.2006 531.825 66.3916 531.955 66.531Z" fill="black" fill-opacity="0.7"/>
<path d="M550.167 93V85.6C550.167 85.4409 550.109 85.2883 550.006 85.1757C549.903 85.0632 549.763 85 549.617 85H532.384C532.238 85 532.098 85.0632 531.995 85.1757C531.892 85.2883 531.834 85.4409 531.834 85.6V93M550.167 93H531.834M550.167 93L549.443 95.584C549.329 95.9936 549.096 96.3523 548.781 96.6072C548.465 96.8621 548.083 96.9998 547.69 97H546.501M531.834 93L532.558 95.584C532.673 95.9936 532.905 96.3523 533.22 96.6072C533.536 96.8621 533.918 96.9998 534.311 97H535.501M546.501 89H547.417M538.709 96.5C538.709 96.5 538.709 103.5 535.501 103.5M543.292 96.5C543.292 96.5 543.292 103.5 546.501 103.5M541.001 96.5V103.5" stroke="black" stroke-opacity="0.7" stroke-width="1.5" stroke-linecap="round" stroke-linejoin="round"/>
<path d="M357.177 64L354.263 53.8182H356.615L358.3 60.8928H358.385L360.244 53.8182H362.258L364.112 60.9077H364.202L365.887 53.8182H368.239L365.325 64H363.227L361.288 57.343H361.209L359.275 64H357.177ZM369.351 64V56.3636H371.469V64H369.351ZM370.415 55.3793C370.1 55.3793 369.83 55.2749 369.605 55.0661C369.383 54.8539 369.271 54.6004 369.271 54.3054C369.271 54.0137 369.383 53.7635 369.605 53.5547C369.83 53.3426 370.1 53.2365 370.415 53.2365C370.73 53.2365 370.998 53.3426 371.22 53.5547C371.446 53.7635 371.558 54.0137 371.558 54.3054C371.558 54.6004 371.446 54.8539 371.22 55.0661C370.998 55.2749 370.73 55.3793 370.415 55.3793ZM373.205 64V53.8182H379.947V55.593H375.358V58.0192H379.499V59.794H375.358V64H373.205ZM381.355 64V56.3636H383.473V64H381.355ZM382.419 55.3793C382.104 55.3793 381.834 55.2749 381.608 55.0661C381.386 54.8539 381.275 54.6004 381.275 54.3054C381.275 54.0137 381.386 53.7635 381.608 53.5547C381.834 53.3426 382.104 53.2365 382.419 53.2365C382.734 53.2365 383.002 53.3426 383.224 53.5547C383.45 53.7635 383.562 54.0137 383.562 54.3054C383.562 54.6004 383.45 54.8539 383.224 55.0661C383.002 55.2749 382.734 55.3793 382.419 55.3793Z" fill="black" fill-opacity="0.7"/>
<path d="M354.885 99V88.8182H358.962C359.711 88.8182 360.335 88.9292 360.836 89.1513C361.336 89.3733 361.713 89.6816 361.964 90.076C362.216 90.4671 362.342 90.9179 362.342 91.4283C362.342 91.826 362.263 92.1757 362.104 92.4773C361.945 92.7756 361.726 93.0208 361.447 93.2131C361.172 93.402 360.857 93.5362 360.503 93.6158V93.7152C360.891 93.7318 361.254 93.8411 361.592 94.0433C361.933 94.2455 362.21 94.5289 362.422 94.8935C362.634 95.2547 362.74 95.6856 362.74 96.1861C362.74 96.7263 362.606 97.2086 362.337 97.6328C362.072 98.0537 361.679 98.3868 361.159 98.6321C360.639 98.8774 359.997 99 359.235 99H354.885ZM357.038 97.2401H358.793C359.393 97.2401 359.83 97.1257 360.105 96.897C360.38 96.665 360.518 96.3568 360.518 95.9723C360.518 95.6906 360.45 95.442 360.314 95.2266C360.178 95.0111 359.984 94.8421 359.732 94.7195C359.484 94.5968 359.187 94.5355 358.842 94.5355H357.038V97.2401ZM357.038 93.0788H358.634C358.929 93.0788 359.19 93.0275 359.419 92.9247C359.651 92.8187 359.833 92.6695 359.966 92.4773C360.102 92.285 360.17 92.0547 360.17 91.7862C360.17 91.4183 360.039 91.1217 359.777 90.8963C359.518 90.6709 359.151 90.5582 358.673 90.5582H357.038V93.0788ZM367.581 99.1491C366.796 99.1491 366.119 98.9901 365.553 98.6719C364.989 98.3504 364.555 97.8963 364.25 97.3097C363.945 96.7197 363.793 96.022 363.793 95.2166C363.793 94.4311 363.945 93.7417 364.25 93.1484C364.555 92.5552 364.984 92.0928 365.538 91.7614C366.095 91.4299 366.748 91.2642 367.497 91.2642C368 91.2642 368.469 91.3454 368.904 91.5078C369.341 91.6669 369.722 91.9072 370.047 92.2287C370.375 92.5502 370.63 92.9545 370.813 93.4418C370.995 93.9257 371.086 94.4924 371.086 95.142V95.7237H364.638V94.4112H369.093C369.093 94.1063 369.026 93.8362 368.894 93.6009C368.761 93.3655 368.577 93.1816 368.342 93.049C368.11 92.9131 367.84 92.8452 367.531 92.8452C367.21 92.8452 366.925 92.9197 366.676 93.0689C366.431 93.2147 366.239 93.4119 366.1 93.6605C365.96 93.9058 365.889 94.1792 365.886 94.4808V95.7287C365.886 96.1065 365.955 96.433 366.095 96.7081C366.237 96.9832 366.438 97.1953 366.696 97.3445C366.955 97.4936 367.261 97.5682 367.616 97.5682C367.851 97.5682 368.067 97.535 368.262 97.4688C368.458 97.4025 368.625 97.303 368.764 97.1705C368.904 97.0379 369.01 96.8755 369.083 96.6832L371.041 96.8125C370.942 97.2831 370.738 97.6941 370.43 98.0455C370.125 98.3935 369.731 98.6652 369.247 98.8608C368.766 99.053 368.211 99.1491 367.581 99.1491ZM374.646 99.1442C374.159 99.1442 373.724 99.0597 373.343 98.8906C372.962 98.7183 372.66 98.4647 372.438 98.13C372.22 97.7919 372.11 97.371 372.11 96.8672C372.11 96.4429 372.188 96.0866 372.344 95.7983C372.5 95.5099 372.712 95.2779 372.98 95.1023C373.249 94.9266 373.554 94.794 373.895 94.7045C374.24 94.6151 374.601 94.5521 374.979 94.5156C375.423 94.4692 375.781 94.4261 376.053 94.3864C376.325 94.3433 376.522 94.2803 376.644 94.1974C376.767 94.1146 376.828 93.992 376.828 93.8295V93.7997C376.828 93.4848 376.729 93.2412 376.53 93.0689C376.334 92.8965 376.056 92.8104 375.695 92.8104C375.314 92.8104 375.01 92.8949 374.785 93.0639C374.56 93.2296 374.41 93.4384 374.338 93.6903L372.379 93.5312C372.478 93.0672 372.674 92.6662 372.965 92.3281C373.257 91.9867 373.633 91.7249 374.094 91.5426C374.558 91.357 375.095 91.2642 375.705 91.2642C376.129 91.2642 376.535 91.3139 376.923 91.4134C377.314 91.5128 377.66 91.6669 377.962 91.8757C378.267 92.0845 378.507 92.353 378.683 92.6811C378.858 93.0059 378.946 93.3954 378.946 93.8494V99H376.938V97.9411H376.878C376.755 98.1797 376.591 98.3902 376.386 98.5724C376.18 98.7514 375.933 98.8923 375.645 98.995C375.357 99.0945 375.024 99.1442 374.646 99.1442ZM375.252 97.6825C375.564 97.6825 375.839 97.6212 376.078 97.4986C376.316 97.3726 376.503 97.2036 376.639 96.9915C376.775 96.7794 376.843 96.5391 376.843 96.2706V95.4602C376.777 95.5033 376.686 95.5431 376.57 95.5795C376.457 95.6127 376.329 95.6442 376.187 95.674C376.044 95.7005 375.902 95.7254 375.759 95.7486C375.617 95.7685 375.488 95.7867 375.372 95.8033C375.123 95.8397 374.906 95.8977 374.72 95.9773C374.535 96.0568 374.391 96.1645 374.288 96.3004C374.185 96.433 374.134 96.5987 374.134 96.7976C374.134 97.0859 374.238 97.3063 374.447 97.4588C374.659 97.608 374.927 97.6825 375.252 97.6825ZM384.04 99.1491C383.257 99.1491 382.585 98.9834 382.021 98.652C381.461 98.3172 381.03 97.8532 380.729 97.2599C380.43 96.6667 380.281 95.9839 380.281 95.2116C380.281 94.4295 380.432 93.7434 380.733 93.1534C381.038 92.5601 381.471 92.0978 382.031 91.7663C382.591 91.4316 383.257 91.2642 384.03 91.2642C384.696 91.2642 385.279 91.3852 385.78 91.6271C386.28 91.8691 386.676 92.2088 386.968 92.6463C387.26 93.0838 387.42 93.5975 387.45 94.1875H385.452C385.395 93.8063 385.246 93.4998 385.004 93.2678C384.765 93.0324 384.452 92.9148 384.064 92.9148C383.736 92.9148 383.45 93.0043 383.204 93.1832C382.962 93.3589 382.773 93.6158 382.638 93.9538C382.502 94.2919 382.434 94.7012 382.434 95.1818C382.434 95.669 382.5 96.0833 382.633 96.4247C382.769 96.7661 382.959 97.0263 383.204 97.2053C383.45 97.3842 383.736 97.4737 384.064 97.4737C384.306 97.4737 384.523 97.424 384.716 97.3246C384.911 97.2251 385.072 97.081 385.198 96.892C385.327 96.6998 385.412 96.4695 385.452 96.201H387.45C387.417 96.7843 387.258 97.2981 386.973 97.7422C386.691 98.183 386.302 98.5277 385.805 98.7763C385.307 99.0249 384.719 99.1491 384.04 99.1491ZM390.924 94.5852V99H388.806V88.8182H390.864V92.7109H390.954C391.126 92.2602 391.405 91.9072 391.789 91.652C392.174 91.3935 392.656 91.2642 393.236 91.2642C393.766 91.2642 394.228 91.3802 394.623 91.6122C395.021 91.8409 395.329 92.1707 395.548 92.6016C395.77 93.0291 395.879 93.5412 395.876 94.1378V99H393.758V94.5156C393.761 94.045 393.642 93.6787 393.4 93.4169C393.161 93.1551 392.826 93.0241 392.396 93.0241C392.107 93.0241 391.852 93.0855 391.63 93.2081C391.411 93.3307 391.239 93.5097 391.113 93.745C390.99 93.977 390.927 94.2571 390.924 94.5852ZM402.577 99H400.271L403.786 88.8182H406.56L410.07 99H407.763L405.212 91.1449H405.133L402.577 99ZM402.433 94.9979H407.882V96.6783H402.433V94.9979ZM414.35 99.1491C413.568 99.1491 412.895 98.9834 412.332 98.652C411.772 98.3172 411.341 97.8532 411.039 97.2599C410.741 96.6667 410.592 95.9839 410.592 95.2116C410.592 94.4295 410.742 93.7434 411.044 93.1534C411.349 92.5601 411.781 92.0978 412.342 91.7663C412.902 91.4316 413.568 91.2642 414.34 91.2642C415.006 91.2642 415.59 91.3852 416.09 91.6271C416.591 91.8691 416.987 92.2088 417.278 92.6463C417.57 93.0838 417.731 93.5975 417.761 94.1875H415.762C415.706 93.8063 415.557 93.4998 415.315 93.2678C415.076 93.0324 414.763 92.9148 414.375 92.9148C414.047 92.9148 413.76 93.0043 413.515 93.1832C413.273 93.3589 413.084 93.6158 412.948 93.9538C412.812 94.2919 412.744 94.7012 412.744 95.1818C412.744 95.669 412.811 96.0833 412.943 96.4247C413.079 96.7661 413.27 97.0263 413.515 97.2053C413.76 97.3842 414.047 97.4737 414.375 97.4737C414.617 97.4737 414.834 97.424 415.026 97.3246C415.222 97.2251 415.383 97.081 415.509 96.892C415.638 96.6998 415.722 96.4695 415.762 96.201H417.761C417.728 96.7843 417.568 97.2981 417.283 97.7422C417.002 98.183 416.612 98.5277 416.115 98.7763C415.618 99.0249 415.03 99.1491 414.35 99.1491ZM422.567 99.1491C421.785 99.1491 421.112 98.9834 420.548 98.652C419.988 98.3172 419.557 97.8532 419.256 97.2599C418.958 96.6667 418.808 95.9839 418.808 95.2116C418.808 94.4295 418.959 93.7434 419.261 93.1534C419.566 92.5601 419.998 92.0978 420.558 91.7663C421.119 91.4316 421.785 91.2642 422.557 91.2642C423.223 91.2642 423.807 91.3852 424.307 91.6271C424.807 91.8691 425.204 92.2088 425.495 92.6463C425.787 93.0838 425.948 93.5975 425.977 94.1875H423.979C423.923 93.8063 423.773 93.4998 423.531 93.2678C423.293 93.0324 422.98 92.9148 422.592 92.9148C422.264 92.9148 421.977 93.0043 421.732 93.1832C421.49 93.3589 421.301 93.6158 421.165 93.9538C421.029 94.2919 420.961 94.7012 420.961 95.1818C420.961 95.669 421.027 96.0833 421.16 96.4247C421.296 96.7661 421.486 97.0263 421.732 97.2053C421.977 97.3842 422.264 97.4737 422.592 97.4737C422.834 97.4737 423.051 97.424 423.243 97.3246C423.439 97.2251 423.599 97.081 423.725 96.892C423.855 96.6998 423.939 96.4695 423.979 96.201H425.977C425.944 96.7843 425.785 97.2981 425.5 97.7422C425.218 98.183 424.829 98.5277 424.332 98.7763C423.835 99.0249 423.246 99.1491 422.567 99.1491ZM430.814 99.1491C430.028 99.1491 429.352 98.9901 428.785 98.6719C428.222 98.3504 427.788 97.8963 427.483 97.3097C427.178 96.7197 427.025 96.022 427.025 95.2166C427.025 94.4311 427.178 93.7417 427.483 93.1484C427.788 92.5552 428.217 92.0928 428.77 91.7614C429.327 91.4299 429.98 91.2642 430.729 91.2642C431.233 91.2642 431.702 91.3454 432.136 91.5078C432.574 91.6669 432.955 91.9072 433.279 92.2287C433.608 92.5502 433.863 92.9545 434.045 93.4418C434.227 93.9257 434.319 94.4924 434.319 95.142V95.7237H427.87V94.4112H432.325C432.325 94.1063 432.259 93.8362 432.126 93.6009C431.993 93.3655 431.81 93.1816 431.574 93.049C431.342 92.9131 431.072 92.8452 430.764 92.8452C430.442 92.8452 430.157 92.9197 429.909 93.0689C429.663 93.2147 429.471 93.4119 429.332 93.6605C429.193 93.9058 429.122 94.1792 429.118 94.4808V95.7287C429.118 96.1065 429.188 96.433 429.327 96.7081C429.47 96.9832 429.67 97.1953 429.929 97.3445C430.187 97.4936 430.494 97.5682 430.848 97.5682C431.084 97.5682 431.299 97.535 431.495 97.4688C431.69 97.4025 431.858 97.303 431.997 97.1705C432.136 97.0379 432.242 96.8755 432.315 96.6832L434.274 96.8125C434.174 97.2831 433.971 97.6941 433.662 98.0455C433.357 98.3935 432.963 98.6652 432.479 98.8608C431.998 99.053 431.443 99.1491 430.814 99.1491ZM442.054 93.5412L440.115 93.6605C440.082 93.4948 440.011 93.3456 439.902 93.2131C439.792 93.0772 439.648 92.9695 439.469 92.8899C439.293 92.8071 439.083 92.7656 438.838 92.7656C438.51 92.7656 438.233 92.8352 438.007 92.9744C437.782 93.1103 437.669 93.2926 437.669 93.5213C437.669 93.7036 437.742 93.8577 437.888 93.9837C438.034 94.1096 438.284 94.2107 438.639 94.2869L440.021 94.5653C440.763 94.7178 441.317 94.9631 441.681 95.3011C442.046 95.6392 442.228 96.0833 442.228 96.6335C442.228 97.134 442.081 97.5732 441.786 97.951C441.494 98.3288 441.093 98.6238 440.583 98.8359C440.076 99.0447 439.491 99.1491 438.828 99.1491C437.817 99.1491 437.011 98.9387 436.412 98.5178C435.815 98.0935 435.465 97.5168 435.363 96.7876L437.446 96.6783C437.509 96.9865 437.661 97.2218 437.903 97.3842C438.145 97.5433 438.455 97.6229 438.833 97.6229C439.204 97.6229 439.502 97.5516 439.728 97.4091C439.956 97.2633 440.072 97.076 440.076 96.8473C440.072 96.6551 439.991 96.4976 439.832 96.375C439.673 96.2491 439.428 96.1529 439.096 96.0866L437.774 95.8232C437.028 95.674 436.473 95.4155 436.108 95.0476C435.747 94.6797 435.566 94.2107 435.566 93.6406C435.566 93.1501 435.699 92.7275 435.964 92.3729C436.233 92.0182 436.609 91.7448 437.093 91.5526C437.58 91.3603 438.15 91.2642 438.803 91.2642C439.767 91.2642 440.526 91.468 441.08 91.8757C441.637 92.2834 441.962 92.8385 442.054 93.5412ZM449.916 93.5412L447.977 93.6605C447.944 93.4948 447.872 93.3456 447.763 93.2131C447.654 93.0772 447.509 92.9695 447.33 92.8899C447.155 92.8071 446.944 92.7656 446.699 92.7656C446.371 92.7656 446.094 92.8352 445.869 92.9744C445.643 93.1103 445.531 93.2926 445.531 93.5213C445.531 93.7036 445.604 93.8577 445.749 93.9837C445.895 94.1096 446.146 94.2107 446.5 94.2869L447.882 94.5653C448.625 94.7178 449.178 94.9631 449.543 95.3011C449.907 95.6392 450.09 96.0833 450.09 96.6335C450.09 97.134 449.942 97.5732 449.647 97.951C449.356 98.3288 448.954 98.6238 448.444 98.8359C447.937 99.0447 447.352 99.1491 446.689 99.1491C445.678 99.1491 444.873 98.9387 444.273 98.5178C443.676 98.0935 443.327 97.5168 443.224 96.7876L445.307 96.6783C445.37 96.9865 445.522 97.2218 445.764 97.3842C446.006 97.5433 446.316 97.6229 446.694 97.6229C447.065 97.6229 447.364 97.5516 447.589 97.4091C447.818 97.2633 447.934 97.076 447.937 96.8473C447.934 96.6551 447.852 96.4976 447.693 96.375C447.534 96.2491 447.289 96.1529 446.958 96.0866L445.635 95.8232C444.889 95.674 444.334 95.4155 443.97 95.0476C443.608 94.6797 443.428 94.2107 443.428 93.6406C443.428 93.1501 443.56 92.7275 443.825 92.3729C444.094 92.0182 444.47 91.7448 444.954 91.5526C445.441 91.3603 446.011 91.2642 446.664 91.2642C447.629 91.2642 448.388 91.468 448.941 91.8757C449.498 92.2834 449.823 92.8385 449.916 93.5412Z" fill="black" fill-opacity="0.7"/>
<path d="M339.501 90.8715C339.33 88.9082 338.611 87.0323 337.428 85.4566C336.244 83.8809 334.643 82.6685 332.805 81.9571C330.967 81.2456 328.967 81.0635 327.031 81.4315C325.095 81.7995 323.301 82.7028 321.852 84.039C319.919 85.8155 318.724 88.2545 318.506 90.8715C318.488 91.0786 318.513 91.2871 318.58 91.4839C318.647 91.6806 318.755 91.8613 318.895 92.0144C319.036 92.1675 319.207 92.2898 319.397 92.3733C319.587 92.4569 319.793 92.5 320.001 92.4999H328.251V97.7499C328.251 98.5455 328.567 99.3086 329.13 99.8712C329.692 100.434 330.455 100.75 331.251 100.75C332.046 100.75 332.81 100.434 333.372 99.8712C333.935 99.3086 334.251 98.5455 334.251 97.7499C334.251 97.551 334.172 97.3602 334.031 97.2196C333.891 97.0789 333.7 96.9999 333.501 96.9999C333.302 96.9999 333.111 97.0789 332.97 97.2196C332.83 97.3602 332.751 97.551 332.751 97.7499C332.751 98.1477 332.593 98.5292 332.311 98.8106C332.03 99.0919 331.649 99.2499 331.251 99.2499C330.853 99.2499 330.471 99.0919 330.19 98.8106C329.909 98.5292 329.751 98.1477 329.751 97.7499V92.4999H338.001C338.209 92.5007 338.415 92.458 338.606 92.3748C338.797 92.2915 338.969 92.1693 339.11 92.0162C339.251 91.863 339.358 91.6821 339.426 91.485C339.493 91.2879 339.519 91.079 339.501 90.8715ZM320.001 90.9999C320.167 89.0679 320.952 87.241 322.239 85.7904C323.526 84.3398 325.246 83.3429 327.145 82.9477C326.046 84.4374 324.674 87.0727 324.517 90.9999H320.001ZM326.015 90.9999C326.145 88.1152 327.002 86.049 327.731 84.7899C328.09 84.1644 328.516 83.5798 329.001 83.0461C329.485 83.5799 329.91 84.1645 330.268 84.7899C331.513 86.9405 331.907 89.2449 331.984 90.9999H326.015ZM333.482 90.9999C333.325 87.0727 331.953 84.4374 330.857 82.943C332.757 83.3374 334.478 84.3346 335.766 85.7863C337.053 87.2381 337.837 89.0666 338.001 90.9999H333.482Z" fill="#4D4D4D"/>
<path d="M354.885 135V124.818H358.902C359.671 124.818 360.327 124.956 360.871 125.231C361.418 125.503 361.834 125.889 362.119 126.389C362.407 126.886 362.551 127.471 362.551 128.144C362.551 128.82 362.405 129.402 362.114 129.889C361.822 130.373 361.399 130.744 360.846 131.003C360.296 131.261 359.629 131.391 358.847 131.391H356.158V129.661H358.499C358.91 129.661 359.252 129.604 359.523 129.491C359.795 129.379 359.997 129.21 360.13 128.984C360.266 128.759 360.334 128.479 360.334 128.144C360.334 127.806 360.266 127.521 360.13 127.289C359.997 127.057 359.794 126.881 359.518 126.762C359.247 126.639 358.904 126.578 358.489 126.578H357.038V135H354.885ZM360.384 130.366L362.914 135H360.538L358.062 130.366H360.384ZM367.39 135.149C366.604 135.149 365.928 134.99 365.361 134.672C364.798 134.35 364.364 133.896 364.059 133.31C363.754 132.72 363.601 132.022 363.601 131.217C363.601 130.431 363.754 129.742 364.059 129.148C364.364 128.555 364.793 128.093 365.346 127.761C365.903 127.43 366.556 127.264 367.305 127.264C367.809 127.264 368.278 127.345 368.712 127.508C369.15 127.667 369.531 127.907 369.856 128.229C370.184 128.55 370.439 128.955 370.621 129.442C370.804 129.926 370.895 130.492 370.895 131.142V131.724H364.447V130.411H368.901C368.901 130.106 368.835 129.836 368.702 129.601C368.57 129.366 368.386 129.182 368.15 129.049C367.918 128.913 367.648 128.845 367.34 128.845C367.019 128.845 366.733 128.92 366.485 129.069C366.24 129.215 366.047 129.412 365.908 129.661C365.769 129.906 365.698 130.179 365.694 130.481V131.729C365.694 132.107 365.764 132.433 365.903 132.708C366.046 132.983 366.246 133.195 366.505 133.344C366.763 133.494 367.07 133.568 367.425 133.568C367.66 133.568 367.875 133.535 368.071 133.469C368.266 133.402 368.434 133.303 368.573 133.17C368.712 133.038 368.818 132.875 368.891 132.683L370.85 132.812C370.751 133.283 370.547 133.694 370.238 134.045C369.934 134.393 369.539 134.665 369.055 134.861C368.575 135.053 368.019 135.149 367.39 135.149ZM378.631 129.541L376.692 129.661C376.658 129.495 376.587 129.346 376.478 129.213C376.368 129.077 376.224 128.969 376.045 128.89C375.87 128.807 375.659 128.766 375.414 128.766C375.086 128.766 374.809 128.835 374.584 128.974C374.358 129.11 374.246 129.293 374.246 129.521C374.246 129.704 374.318 129.858 374.464 129.984C374.61 130.11 374.86 130.211 375.215 130.287L376.597 130.565C377.34 130.718 377.893 130.963 378.258 131.301C378.622 131.639 378.805 132.083 378.805 132.634C378.805 133.134 378.657 133.573 378.362 133.951C378.07 134.329 377.669 134.624 377.159 134.836C376.652 135.045 376.067 135.149 375.404 135.149C374.393 135.149 373.588 134.939 372.988 134.518C372.391 134.094 372.041 133.517 371.939 132.788L374.022 132.678C374.085 132.987 374.237 133.222 374.479 133.384C374.721 133.543 375.031 133.623 375.409 133.623C375.78 133.623 376.078 133.552 376.304 133.409C376.532 133.263 376.648 133.076 376.652 132.847C376.648 132.655 376.567 132.498 376.408 132.375C376.249 132.249 376.004 132.153 375.672 132.087L374.35 131.823C373.604 131.674 373.049 131.415 372.684 131.048C372.323 130.68 372.143 130.211 372.143 129.641C372.143 129.15 372.275 128.728 372.54 128.373C372.809 128.018 373.185 127.745 373.669 127.553C374.156 127.36 374.726 127.264 375.379 127.264C376.344 127.264 377.103 127.468 377.656 127.876C378.213 128.283 378.538 128.839 378.631 129.541ZM384.2 127.364V128.955H379.601V127.364H384.2ZM380.645 125.534H382.763V132.653C382.763 132.849 382.793 133.001 382.853 133.111C382.912 133.217 382.995 133.291 383.101 133.335C383.211 133.378 383.337 133.399 383.479 133.399C383.578 133.399 383.678 133.391 383.777 133.374C383.877 133.354 383.953 133.339 384.006 133.33L384.339 134.906C384.233 134.939 384.084 134.977 383.892 135.02C383.699 135.066 383.466 135.094 383.191 135.104C382.68 135.124 382.233 135.056 381.848 134.901C381.467 134.745 381.171 134.503 380.958 134.175C380.746 133.847 380.642 133.432 380.645 132.932V125.534ZM387.757 135.144C387.27 135.144 386.836 135.06 386.455 134.891C386.073 134.718 385.772 134.465 385.55 134.13C385.331 133.792 385.222 133.371 385.222 132.867C385.222 132.443 385.299 132.087 385.455 131.798C385.611 131.51 385.823 131.278 386.092 131.102C386.36 130.927 386.665 130.794 387.006 130.705C387.351 130.615 387.712 130.552 388.09 130.516C388.534 130.469 388.892 130.426 389.164 130.386C389.436 130.343 389.633 130.28 389.756 130.197C389.878 130.115 389.94 129.992 389.94 129.83V129.8C389.94 129.485 389.84 129.241 389.641 129.069C389.446 128.897 389.167 128.81 388.806 128.81C388.425 128.81 388.122 128.895 387.896 129.064C387.671 129.23 387.522 129.438 387.449 129.69L385.49 129.531C385.589 129.067 385.785 128.666 386.077 128.328C386.368 127.987 386.745 127.725 387.205 127.543C387.669 127.357 388.206 127.264 388.816 127.264C389.24 127.264 389.646 127.314 390.034 127.413C390.425 127.513 390.772 127.667 391.073 127.876C391.378 128.085 391.618 128.353 391.794 128.681C391.97 129.006 392.058 129.395 392.058 129.849V135H390.049V133.941H389.989C389.867 134.18 389.703 134.39 389.497 134.572C389.292 134.751 389.045 134.892 388.756 134.995C388.468 135.094 388.135 135.144 387.757 135.144ZM388.364 133.683C388.675 133.683 388.95 133.621 389.189 133.499C389.428 133.373 389.615 133.204 389.751 132.991C389.887 132.779 389.955 132.539 389.955 132.271V131.46C389.888 131.503 389.797 131.543 389.681 131.58C389.568 131.613 389.441 131.644 389.298 131.674C389.156 131.701 389.013 131.725 388.871 131.749C388.728 131.768 388.599 131.787 388.483 131.803C388.234 131.84 388.017 131.898 387.832 131.977C387.646 132.057 387.502 132.165 387.399 132.3C387.296 132.433 387.245 132.599 387.245 132.798C387.245 133.086 387.349 133.306 387.558 133.459C387.77 133.608 388.039 133.683 388.364 133.683ZM398.598 131.749V127.364H400.716V135H398.682V133.613H398.603C398.43 134.06 398.144 134.42 397.743 134.692C397.345 134.964 396.859 135.099 396.286 135.099C395.775 135.099 395.326 134.983 394.939 134.751C394.551 134.519 394.248 134.19 394.029 133.762C393.813 133.335 393.704 132.822 393.701 132.226V127.364H395.819V131.848C395.822 132.299 395.943 132.655 396.181 132.917C396.42 133.179 396.74 133.31 397.141 133.31C397.396 133.31 397.635 133.252 397.857 133.136C398.079 133.016 398.258 132.841 398.394 132.609C398.533 132.377 398.601 132.09 398.598 131.749ZM402.41 135V127.364H404.463V128.696H404.542C404.682 128.222 404.915 127.864 405.243 127.622C405.572 127.377 405.949 127.254 406.377 127.254C406.483 127.254 406.597 127.261 406.72 127.274C406.843 127.287 406.95 127.306 407.043 127.329V129.208C406.944 129.178 406.806 129.152 406.631 129.129C406.455 129.105 406.294 129.094 406.148 129.094C405.837 129.094 405.558 129.162 405.313 129.298C405.071 129.43 404.879 129.616 404.736 129.854C404.597 130.093 404.528 130.368 404.528 130.68V135H402.41ZM410.097 135.144C409.61 135.144 409.176 135.06 408.794 134.891C408.413 134.718 408.112 134.465 407.89 134.13C407.671 133.792 407.561 133.371 407.561 132.867C407.561 132.443 407.639 132.087 407.795 131.798C407.951 131.51 408.163 131.278 408.431 131.102C408.7 130.927 409.005 130.794 409.346 130.705C409.691 130.615 410.052 130.552 410.43 130.516C410.874 130.469 411.232 130.426 411.504 130.386C411.776 130.343 411.973 130.28 412.096 130.197C412.218 130.115 412.279 129.992 412.279 129.83V129.8C412.279 129.485 412.18 129.241 411.981 129.069C411.786 128.897 411.507 128.81 411.146 128.81C410.765 128.81 410.462 128.895 410.236 129.064C410.011 129.23 409.862 129.438 409.789 129.69L407.83 129.531C407.929 129.067 408.125 128.666 408.417 128.328C408.708 127.987 409.084 127.725 409.545 127.543C410.009 127.357 410.546 127.264 411.156 127.264C411.58 127.264 411.986 127.314 412.374 127.413C412.765 127.513 413.111 127.667 413.413 127.876C413.718 128.085 413.958 128.353 414.134 128.681C414.31 129.006 414.397 129.395 414.397 129.849V135H412.389V133.941H412.329C412.207 134.18 412.042 134.39 411.837 134.572C411.632 134.751 411.385 134.892 411.096 134.995C410.808 135.094 410.475 135.144 410.097 135.144ZM410.703 133.683C411.015 133.683 411.29 133.621 411.529 133.499C411.767 133.373 411.955 133.204 412.091 132.991C412.226 132.779 412.294 132.539 412.294 132.271V131.46C412.228 131.503 412.137 131.543 412.021 131.58C411.908 131.613 411.781 131.644 411.638 131.674C411.496 131.701 411.353 131.725 411.211 131.749C411.068 131.768 410.939 131.787 410.823 131.803C410.574 131.84 410.357 131.898 410.172 131.977C409.986 132.057 409.842 132.165 409.739 132.3C409.636 132.433 409.585 132.599 409.585 132.798C409.585 133.086 409.689 133.306 409.898 133.459C410.11 133.608 410.379 133.683 410.703 133.683ZM418.158 130.585V135H416.04V127.364H418.059V128.711H418.148C418.317 128.267 418.601 127.915 418.999 127.657C419.396 127.395 419.879 127.264 420.445 127.264C420.976 127.264 421.438 127.38 421.832 127.612C422.227 127.844 422.533 128.176 422.752 128.607C422.971 129.034 423.08 129.545 423.08 130.138V135H420.962V130.516C420.966 130.048 420.846 129.684 420.604 129.422C420.362 129.157 420.029 129.024 419.605 129.024C419.32 129.024 419.068 129.085 418.849 129.208C418.634 129.331 418.465 129.51 418.342 129.745C418.223 129.977 418.162 130.257 418.158 130.585ZM428.811 127.364V128.955H424.213V127.364H428.811ZM425.257 125.534H427.374V132.653C427.374 132.849 427.404 133.001 427.464 133.111C427.524 133.217 427.606 133.291 427.713 133.335C427.822 133.378 427.948 133.399 428.09 133.399C428.19 133.399 428.289 133.391 428.389 133.374C428.488 133.354 428.564 133.339 428.617 133.33L428.95 134.906C428.844 134.939 428.695 134.977 428.503 135.02C428.311 135.066 428.077 135.094 427.802 135.104C427.292 135.124 426.844 135.056 426.46 134.901C426.079 134.745 425.782 134.503 425.57 134.175C425.358 133.847 425.253 133.432 425.257 132.932V125.534Z" fill="black" fill-opacity="0.7"/>
<path d="M567.64 98H565.333L568.848 87.8182H571.622L575.132 98H572.825L570.275 90.1449H570.195L567.64 98ZM567.496 93.9979H572.945V95.6783H567.496V93.9979ZM584.863 91.3828H582.685C582.645 91.1011 582.564 90.8509 582.442 90.6321C582.319 90.41 582.162 90.2211 581.969 90.0653C581.777 89.9096 581.555 89.7902 581.303 89.7074C581.055 89.6245 580.784 89.5831 580.493 89.5831C579.966 89.5831 579.507 89.714 579.116 89.9759C578.724 90.2344 578.421 90.6122 578.206 91.1094C577.99 91.6032 577.883 92.2031 577.883 92.9091C577.883 93.6349 577.99 94.2448 578.206 94.7386C578.425 95.2325 578.729 95.6054 579.121 95.8572C579.512 96.1091 579.964 96.2351 580.478 96.2351C580.766 96.2351 581.033 96.197 581.278 96.1207C581.527 96.0445 581.747 95.9335 581.939 95.7876C582.132 95.6385 582.291 95.4579 582.417 95.2457C582.546 95.0336 582.635 94.7917 582.685 94.5199L584.863 94.5298C584.806 94.9972 584.666 95.4479 584.44 95.8821C584.218 96.313 583.918 96.6991 583.54 97.0405C583.166 97.3786 582.718 97.647 582.198 97.8459C581.681 98.0414 581.096 98.1392 580.443 98.1392C579.535 98.1392 578.723 97.9337 578.007 97.5227C577.294 97.1117 576.731 96.5168 576.317 95.7379C575.906 94.959 575.7 94.0161 575.7 92.9091C575.7 91.7988 575.909 90.8542 576.327 90.0753C576.744 89.2964 577.311 88.7031 578.027 88.2955C578.743 87.8845 579.548 87.679 580.443 87.679C581.033 87.679 581.58 87.7618 582.084 87.9276C582.591 88.0933 583.04 88.3352 583.431 88.6534C583.822 88.9683 584.14 89.3544 584.385 89.8118C584.634 90.2692 584.793 90.7929 584.863 91.3828Z" fill="black" fill-opacity="0.7"/>
<path d="M565.885 135V124.818H569.902C570.674 124.818 571.332 124.966 571.876 125.261C572.419 125.552 572.834 125.958 573.119 126.479C573.407 126.996 573.551 127.592 573.551 128.268C573.551 128.945 573.405 129.541 573.114 130.058C572.822 130.575 572.399 130.978 571.846 131.266C571.296 131.555 570.629 131.699 569.847 131.699H567.287V129.974H569.499C569.914 129.974 570.255 129.902 570.523 129.76C570.795 129.614 570.997 129.414 571.13 129.158C571.266 128.9 571.334 128.603 571.334 128.268C571.334 127.93 571.266 127.635 571.13 127.384C570.997 127.128 570.795 126.931 570.523 126.792C570.252 126.649 569.907 126.578 569.489 126.578H568.038V135H565.885ZM578.267 135.149C577.481 135.149 576.805 134.99 576.238 134.672C575.675 134.35 575.241 133.896 574.936 133.31C574.631 132.72 574.478 132.022 574.478 131.217C574.478 130.431 574.631 129.742 574.936 129.148C575.241 128.555 575.67 128.093 576.223 127.761C576.78 127.43 577.433 127.264 578.182 127.264C578.686 127.264 579.155 127.345 579.589 127.508C580.027 127.667 580.408 127.907 580.733 128.229C581.061 128.55 581.316 128.955 581.498 129.442C581.681 129.926 581.772 130.492 581.772 131.142V131.724H575.324V130.411H579.778C579.778 130.106 579.712 129.836 579.579 129.601C579.447 129.366 579.263 129.182 579.027 129.049C578.795 128.913 578.525 128.845 578.217 128.845C577.895 128.845 577.61 128.92 577.362 129.069C577.117 129.215 576.924 129.412 576.785 129.661C576.646 129.906 576.575 130.179 576.571 130.481V131.729C576.571 132.107 576.641 132.433 576.78 132.708C576.923 132.983 577.123 133.195 577.382 133.344C577.64 133.494 577.947 133.568 578.301 133.568C578.537 133.568 578.752 133.535 578.948 133.469C579.143 133.402 579.311 133.303 579.45 133.17C579.589 133.038 579.695 132.875 579.768 132.683L581.727 132.812C581.627 133.283 581.424 133.694 581.115 134.045C580.81 134.393 580.416 134.665 579.932 134.861C579.452 135.053 578.896 135.149 578.267 135.149ZM587.216 127.364V128.955H582.617V127.364H587.216ZM583.661 125.534H585.779V132.653C585.779 132.849 585.809 133.001 585.868 133.111C585.928 133.217 586.011 133.291 586.117 133.335C586.226 133.378 586.352 133.399 586.495 133.399C586.594 133.399 586.694 133.391 586.793 133.374C586.892 133.354 586.969 133.339 587.022 133.33L587.355 134.906C587.249 134.939 587.1 134.977 586.907 135.02C586.715 135.066 586.481 135.094 586.206 135.104C585.696 135.124 585.248 135.056 584.864 134.901C584.483 134.745 584.186 134.503 583.974 134.175C583.762 133.847 583.658 133.432 583.661 132.932V125.534ZM591.875 135V124.818H598.617V126.593H594.028V129.019H598.169V130.794H594.028V135H591.875ZM599.902 135V127.364H601.955V128.696H602.035C602.174 128.222 602.407 127.864 602.736 127.622C603.064 127.377 603.442 127.254 603.869 127.254C603.975 127.254 604.09 127.261 604.212 127.274C604.335 127.287 604.443 127.306 604.535 127.329V129.208C604.436 129.178 604.298 129.152 604.123 129.129C603.947 129.105 603.786 129.094 603.64 129.094C603.329 129.094 603.05 129.162 602.805 129.298C602.563 129.43 602.371 129.616 602.229 129.854C602.089 130.093 602.02 130.368 602.02 130.68V135H599.902ZM605.63 135V127.364H607.748V135H605.63ZM606.694 126.379C606.379 126.379 606.109 126.275 605.884 126.066C605.662 125.854 605.551 125.6 605.551 125.305C605.551 125.014 605.662 124.763 605.884 124.555C606.109 124.343 606.379 124.237 606.694 124.237C607.009 124.237 607.278 124.343 607.5 124.555C607.725 124.763 607.838 125.014 607.838 125.305C607.838 125.6 607.725 125.854 607.5 126.066C607.278 126.275 607.009 126.379 606.694 126.379ZM612.925 135.149C612.139 135.149 611.463 134.99 610.896 134.672C610.333 134.35 609.899 133.896 609.594 133.31C609.289 132.72 609.137 132.022 609.137 131.217C609.137 130.431 609.289 129.742 609.594 129.148C609.899 128.555 610.328 128.093 610.882 127.761C611.438 127.43 612.091 127.264 612.84 127.264C613.344 127.264 613.813 127.345 614.247 127.508C614.685 127.667 615.066 127.907 615.391 128.229C615.719 128.55 615.974 128.955 616.156 129.442C616.339 129.926 616.43 130.492 616.43 131.142V131.724H609.982V130.411H614.436C614.436 130.106 614.37 129.836 614.237 129.601C614.105 129.366 613.921 129.182 613.686 129.049C613.454 128.913 613.183 128.845 612.875 128.845C612.554 128.845 612.269 128.92 612.02 129.069C611.775 129.215 611.583 129.412 611.443 129.661C611.304 129.906 611.233 130.179 611.23 130.481V131.729C611.23 132.107 611.299 132.433 611.438 132.708C611.581 132.983 611.781 133.195 612.04 133.344C612.298 133.494 612.605 133.568 612.96 133.568C613.195 133.568 613.41 133.535 613.606 133.469C613.802 133.402 613.969 133.303 614.108 133.17C614.247 133.038 614.353 132.875 614.426 132.683L616.385 132.812C616.286 133.283 616.082 133.694 615.774 134.045C615.469 134.393 615.074 134.665 614.59 134.861C614.11 135.053 613.555 135.149 612.925 135.149ZM619.93 130.585V135H617.812V127.364H619.83V128.711H619.92C620.089 128.267 620.372 127.915 620.77 127.657C621.168 127.395 621.65 127.264 622.217 127.264C622.747 127.264 623.209 127.38 623.604 127.612C623.998 127.844 624.305 128.176 624.524 128.607C624.742 129.034 624.852 129.545 624.852 130.138V135H622.734V130.516C622.737 130.048 622.618 129.684 622.376 129.422C622.134 129.157 621.801 129.024 621.377 129.024C621.092 129.024 620.84 129.085 620.621 129.208C620.405 129.331 620.236 129.51 620.114 129.745C619.994 129.977 619.933 130.257 619.93 130.585ZM629.335 135.124C628.755 135.124 628.23 134.975 627.759 134.677C627.292 134.375 626.92 133.933 626.645 133.349C626.373 132.763 626.238 132.044 626.238 131.192C626.238 130.317 626.378 129.589 626.66 129.009C626.942 128.426 627.316 127.99 627.784 127.702C628.254 127.41 628.77 127.264 629.33 127.264C629.757 127.264 630.114 127.337 630.399 127.483C630.687 127.625 630.919 127.804 631.095 128.02C631.274 128.232 631.41 128.441 631.502 128.646H631.567V124.818H633.68V135H631.592V133.777H631.502C631.403 133.989 631.262 134.2 631.08 134.408C630.901 134.614 630.667 134.785 630.379 134.92C630.094 135.056 629.746 135.124 629.335 135.124ZM630.006 133.439C630.347 133.439 630.636 133.346 630.871 133.161C631.11 132.972 631.292 132.708 631.418 132.37C631.547 132.032 631.612 131.636 631.612 131.182C631.612 130.728 631.549 130.333 631.423 129.999C631.297 129.664 631.115 129.405 630.876 129.223C630.637 129.041 630.347 128.95 630.006 128.95C629.658 128.95 629.365 129.044 629.126 129.233C628.887 129.422 628.707 129.684 628.584 130.018C628.462 130.353 628.4 130.741 628.4 131.182C628.4 131.626 628.462 132.019 628.584 132.36C628.71 132.698 628.891 132.963 629.126 133.156C629.365 133.344 629.658 133.439 630.006 133.439ZM637.539 124.818V135H635.421V124.818H637.539ZM640.543 137.864C640.275 137.864 640.023 137.842 639.788 137.799C639.556 137.759 639.363 137.708 639.211 137.645L639.688 136.064C639.937 136.14 640.161 136.182 640.359 136.188C640.562 136.195 640.736 136.148 640.881 136.049C641.031 135.95 641.152 135.781 641.244 135.542L641.369 135.219L638.629 127.364H640.857L642.438 132.972H642.517L644.113 127.364H646.355L643.387 135.825C643.245 136.236 643.051 136.594 642.805 136.899C642.563 137.207 642.257 137.444 641.886 137.61C641.514 137.779 641.067 137.864 640.543 137.864Z" fill="black" fill-opacity="0.7"/>
<path d="M571.408 56.7464C571.369 56.3454 571.198 56.0339 570.896 55.8118C570.595 55.5897 570.185 55.4787 569.668 55.4787C569.317 55.4787 569.02 55.5284 568.778 55.6278C568.536 55.724 568.351 55.8582 568.222 56.0305C568.096 56.2029 568.033 56.3984 568.033 56.6172C568.026 56.7995 568.064 56.9586 568.147 57.0945C568.233 57.2304 568.351 57.348 568.5 57.4474C568.649 57.5436 568.821 57.6281 569.017 57.701C569.213 57.7706 569.421 57.8303 569.643 57.88L570.558 58.0987C571.002 58.1982 571.41 58.3307 571.781 58.4964C572.152 58.6622 572.474 58.866 572.746 59.108C573.018 59.3499 573.228 59.6349 573.377 59.9631C573.53 60.2912 573.607 60.6674 573.611 61.0916C573.607 61.7147 573.448 62.255 573.134 62.7124C572.822 63.1664 572.371 63.5194 571.781 63.7713C571.195 64.0199 570.487 64.1442 569.658 64.1442C568.836 64.1442 568.121 64.0182 567.511 63.7663C566.904 63.5144 566.43 63.1416 566.089 62.6477C565.751 62.1506 565.573 61.5357 565.557 60.8033H567.64C567.663 61.1446 567.761 61.4297 567.933 61.6584C568.109 61.8838 568.343 62.0545 568.634 62.1705C568.929 62.2831 569.262 62.3395 569.634 62.3395C569.998 62.3395 570.315 62.2865 570.583 62.1804C570.855 62.0743 571.065 61.9268 571.214 61.7379C571.364 61.549 571.438 61.3319 571.438 61.0866C571.438 60.858 571.37 60.6657 571.234 60.5099C571.102 60.3542 570.906 60.2216 570.648 60.1122C570.393 60.0028 570.079 59.9034 569.708 59.8139L568.599 59.5355C567.741 59.3267 567.063 59.0002 566.566 58.5561C566.069 58.112 565.822 57.5137 565.825 56.7614C565.822 56.1449 565.986 55.6063 566.317 55.1456C566.652 54.6849 567.111 54.3253 567.695 54.0668C568.278 53.8082 568.941 53.679 569.683 53.679C570.439 53.679 571.098 53.8082 571.662 54.0668C572.229 54.3253 572.67 54.6849 572.984 55.1456C573.299 55.6063 573.462 56.1399 573.472 56.7464H571.408ZM576.525 64L574.447 56.3636H576.59L577.773 61.4943H577.843L579.076 56.3636H581.179L582.432 61.4645H582.496L583.66 56.3636H585.797L583.724 64H581.482L580.17 59.1974H580.075L578.763 64H576.525ZM586.927 64V56.3636H589.045V64H586.927ZM587.991 55.3793C587.676 55.3793 587.406 55.2749 587.181 55.0661C586.959 54.8539 586.848 54.6004 586.848 54.3054C586.848 54.0137 586.959 53.7635 587.181 53.5547C587.406 53.3426 587.676 53.2365 587.991 53.2365C588.306 53.2365 588.574 53.3426 588.797 53.5547C589.022 53.7635 589.135 54.0137 589.135 54.3054C589.135 54.6004 589.022 54.8539 588.797 55.0661C588.574 55.2749 588.306 55.3793 587.991 55.3793ZM590.742 64V56.3636H592.76V57.7109H592.85C593.009 57.2635 593.274 56.9105 593.645 56.652C594.016 56.3935 594.46 56.2642 594.977 56.2642C595.501 56.2642 595.947 56.3951 596.315 56.657C596.683 56.9155 596.928 57.2668 597.051 57.7109H597.13C597.286 57.2734 597.568 56.9238 597.975 56.6619C598.386 56.3968 598.872 56.2642 599.432 56.2642C600.145 56.2642 600.723 56.4912 601.167 56.9453C601.615 57.3961 601.838 58.0357 601.838 58.8643V64H599.725V59.282C599.725 58.8577 599.613 58.5395 599.387 58.3274C599.162 58.1153 598.88 58.0092 598.542 58.0092C598.158 58.0092 597.858 58.1319 597.642 58.3771C597.427 58.6191 597.319 58.9389 597.319 59.3366V64H595.266V59.2372C595.266 58.8627 595.158 58.5644 594.943 58.3423C594.731 58.1203 594.45 58.0092 594.102 58.0092C593.867 58.0092 593.655 58.0689 593.466 58.1882C593.28 58.3042 593.133 58.4683 593.024 58.6804C592.914 58.8892 592.86 59.1345 592.86 59.4162V64H590.742ZM603.511 64V56.3636H605.53V57.7109H605.619C605.778 57.2635 606.043 56.9105 606.415 56.652C606.786 56.3935 607.23 56.2642 607.747 56.2642C608.271 56.2642 608.716 56.3951 609.084 56.657C609.452 56.9155 609.698 57.2668 609.82 57.7109H609.9C610.055 57.2734 610.337 56.9238 610.745 56.6619C611.156 56.3968 611.641 56.2642 612.202 56.2642C612.914 56.2642 613.492 56.4912 613.937 56.9453C614.384 57.3961 614.608 58.0357 614.608 58.8643V64H612.495V59.282C612.495 58.8577 612.382 58.5395 612.157 58.3274C611.931 58.1153 611.65 58.0092 611.312 58.0092C610.927 58.0092 610.627 58.1319 610.412 58.3771C610.196 58.6191 610.089 58.9389 610.089 59.3366V64H608.035V59.2372C608.035 58.8627 607.928 58.5644 607.712 58.3423C607.5 58.1203 607.22 58.0092 606.872 58.0092C606.637 58.0092 606.425 58.0689 606.236 58.1882C606.05 58.3042 605.903 58.4683 605.793 58.6804C605.684 58.8892 605.629 59.1345 605.629 59.4162V64H603.511ZM616.281 64V56.3636H618.399V64H616.281ZM617.345 55.3793C617.03 55.3793 616.76 55.2749 616.534 55.0661C616.312 54.8539 616.201 54.6004 616.201 54.3054C616.201 54.0137 616.312 53.7635 616.534 53.5547C616.76 53.3426 617.03 53.2365 617.345 53.2365C617.66 53.2365 617.928 53.3426 618.15 53.5547C618.375 53.7635 618.488 54.0137 618.488 54.3054C618.488 54.6004 618.375 54.8539 618.15 55.0661C617.928 55.2749 617.66 55.3793 617.345 55.3793ZM622.213 59.5852V64H620.095V56.3636H622.114V57.7109H622.203C622.372 57.2668 622.656 56.9155 623.053 56.657C623.451 56.3951 623.933 56.2642 624.5 56.2642C625.03 56.2642 625.493 56.3802 625.887 56.6122C626.281 56.8442 626.588 57.1757 626.807 57.6065C627.026 58.0341 627.135 58.5445 627.135 59.1378V64H625.017V59.5156C625.02 59.0483 624.901 58.6837 624.659 58.4219C624.417 58.1567 624.084 58.0241 623.66 58.0241C623.375 58.0241 623.123 58.0855 622.904 58.2081C622.689 58.3307 622.52 58.5097 622.397 58.745C622.278 58.977 622.216 59.2571 622.213 59.5852ZM632.244 67.0227C631.558 67.0227 630.97 66.9283 630.48 66.7393C629.992 66.5537 629.605 66.3002 629.316 65.9787C629.028 65.6572 628.841 65.2959 628.754 64.8949L630.713 64.6314C630.773 64.7839 630.867 64.9264 630.997 65.0589C631.126 65.1915 631.297 65.2976 631.509 65.3771C631.724 65.46 631.986 65.5014 632.294 65.5014C632.755 65.5014 633.134 65.3887 633.433 65.1634C633.734 64.9413 633.885 64.5684 633.885 64.0447V62.6477H633.796C633.703 62.8598 633.564 63.0604 633.378 63.2493C633.192 63.4382 632.954 63.5923 632.662 63.7116C632.37 63.831 632.022 63.8906 631.618 63.8906C631.045 63.8906 630.523 63.758 630.052 63.4929C629.585 63.2244 629.212 62.8151 628.933 62.2649C628.658 61.7114 628.521 61.0121 628.521 60.1669C628.521 59.3018 628.662 58.5793 628.943 57.9993C629.225 57.4193 629.6 56.9851 630.067 56.6967C630.538 56.4084 631.053 56.2642 631.613 56.2642C632.041 56.2642 632.399 56.3371 632.687 56.483C632.975 56.6255 633.207 56.8045 633.383 57.0199C633.562 57.232 633.7 57.4408 633.796 57.6463H633.875V56.3636H635.978V64.0746C635.978 64.7242 635.819 65.2678 635.501 65.7053C635.183 66.1428 634.742 66.4709 634.178 66.6896C633.618 66.9117 632.974 67.0227 632.244 67.0227ZM632.289 62.2997C632.631 62.2997 632.919 62.2152 633.154 62.0462C633.393 61.8738 633.575 61.6286 633.701 61.3104C633.83 60.9889 633.895 60.6044 633.895 60.157C633.895 59.7095 633.832 59.3217 633.706 58.9936C633.58 58.6622 633.398 58.4053 633.159 58.223C632.921 58.0407 632.631 57.9496 632.289 57.9496C631.941 57.9496 631.648 58.044 631.409 58.233C631.171 58.4186 630.99 58.6771 630.867 59.0085C630.745 59.34 630.683 59.7228 630.683 60.157C630.683 60.5978 630.745 60.9789 630.867 61.3004C630.993 61.6186 631.174 61.8655 631.409 62.0412C631.648 62.2135 631.941 62.2997 632.289 62.2997ZM640.944 64V53.8182H644.961C645.733 53.8182 646.391 53.9657 646.934 54.2607C647.478 54.5523 647.892 54.9583 648.177 55.4787C648.466 55.9957 648.61 56.5923 648.61 57.2685C648.61 57.9446 648.464 58.5412 648.172 59.0582C647.881 59.5753 647.458 59.978 646.904 60.2663C646.354 60.5547 645.688 60.6989 644.906 60.6989H642.346V58.9737H644.558C644.972 58.9737 645.314 58.9025 645.582 58.7599C645.854 58.6141 646.056 58.4136 646.189 58.1584C646.324 57.8999 646.392 57.6032 646.392 57.2685C646.392 56.9304 646.324 56.6354 646.189 56.3835C646.056 56.1283 645.854 55.9311 645.582 55.7919C645.31 55.6494 644.966 55.5781 644.548 55.5781H643.096V64H640.944ZM653.295 64.1491C652.523 64.1491 651.855 63.9851 651.292 63.657C650.732 63.3255 650.299 62.8648 649.994 62.2749C649.689 61.6816 649.537 60.9938 649.537 60.2116C649.537 59.4228 649.689 58.7334 649.994 58.1435C650.299 57.5502 650.732 57.0895 651.292 56.7614C651.855 56.4299 652.523 56.2642 653.295 56.2642C654.068 56.2642 654.734 56.4299 655.294 56.7614C655.857 57.0895 656.292 57.5502 656.597 58.1435C656.902 58.7334 657.054 59.4228 657.054 60.2116C657.054 60.9938 656.902 61.6816 656.597 62.2749C656.292 62.8648 655.857 63.3255 655.294 63.657C654.734 63.9851 654.068 64.1491 653.295 64.1491ZM653.305 62.5085C653.657 62.5085 653.95 62.4091 654.185 62.2102C654.421 62.008 654.598 61.733 654.717 61.3849C654.84 61.0369 654.901 60.6409 654.901 60.1967C654.901 59.7526 654.84 59.3565 654.717 59.0085C654.598 58.6605 654.421 58.3854 654.185 58.1832C653.95 57.9811 653.657 57.88 653.305 57.88C652.951 57.88 652.652 57.9811 652.411 58.1832C652.172 58.3854 651.991 58.6605 651.869 59.0085C651.749 59.3565 651.69 59.7526 651.69 60.1967C651.69 60.6409 651.749 61.0369 651.869 61.3849C651.991 61.733 652.172 62.008 652.411 62.2102C652.652 62.4091 652.951 62.5085 653.305 62.5085ZM661.881 64.1491C661.109 64.1491 660.441 63.9851 659.878 63.657C659.318 63.3255 658.885 62.8648 658.58 62.2749C658.275 61.6816 658.123 60.9938 658.123 60.2116C658.123 59.4228 658.275 58.7334 658.58 58.1435C658.885 57.5502 659.318 57.0895 659.878 56.7614C660.441 56.4299 661.109 56.2642 661.881 56.2642C662.654 56.2642 663.32 56.4299 663.88 56.7614C664.443 57.0895 664.878 57.5502 665.183 58.1435C665.487 58.7334 665.64 59.4228 665.64 60.2116C665.64 60.9938 665.487 61.6816 665.183 62.2749C664.878 62.8648 664.443 63.3255 663.88 63.657C663.32 63.9851 662.654 64.1491 661.881 64.1491ZM661.891 62.5085C662.243 62.5085 662.536 62.4091 662.771 62.2102C663.007 62.008 663.184 61.733 663.303 61.3849C663.426 61.0369 663.487 60.6409 663.487 60.1967C663.487 59.7526 663.426 59.3565 663.303 59.0085C663.184 58.6605 663.007 58.3854 662.771 58.1832C662.536 57.9811 662.243 57.88 661.891 57.88C661.537 57.88 661.238 57.9811 660.996 58.1832C660.758 58.3854 660.577 58.6605 660.455 59.0085C660.335 59.3565 660.276 59.7526 660.276 60.1967C660.276 60.6409 660.335 61.0369 660.455 61.3849C660.577 61.733 660.758 62.008 660.996 62.2102C661.238 62.4091 661.537 62.5085 661.891 62.5085ZM669.135 53.8182V64H667.017V53.8182H669.135Z" fill="black" fill-opacity="0.7"/>
<path d="M534.5 130C535.881 130 537 128.881 537 127.5C537 126.119 535.881 125 534.5 125C533.119 125 532 126.119 532 127.5C532 128.881 533.119 130 534.5 130Z" fill="#4D4D4D"/>
<path d="M539 126C540.381 126 541.5 124.881 541.5 123.5C541.5 122.119 540.381 121 539 121C537.619 121 536.5 122.119 536.5 123.5C536.5 124.881 537.619 126 539 126Z" fill="#4D4D4D"/>
<path d="M545 126C546.381 126 547.5 124.881 547.5 123.5C547.5 122.119 546.381 121 545 121C543.619 121 542.5 122.119 542.5 123.5C542.5 124.881 543.619 126 545 126Z" fill="#4D4D4D"/>
<path d="M549.5 130C550.881 130 552 128.881 552 127.5C552 126.119 550.881 125 549.5 125C548.119 125 547 126.119 547 127.5C547 128.881 548.119 130 549.5 130Z" fill="#4D4D4D"/>
<path d="M547.341 132.86C546.471 131.84 545.741 130.97 544.861 129.95C544.401 129.41 543.811 128.87 543.111 128.63C543.001 128.59 542.891 128.56 542.781 128.54C542.531 128.5 542.261 128.5 542.001 128.5C541.741 128.5 541.471 128.5 541.211 128.55C541.101 128.57 540.991 128.6 540.881 128.64C540.181 128.88 539.601 129.42 539.131 129.96C538.261 130.98 537.531 131.85 536.651 132.87C535.341 134.18 533.731 135.63 534.031 137.66C534.321 138.68 535.051 139.69 536.361 139.98C537.091 140.13 539.421 139.54 541.901 139.54H542.081C544.561 139.54 546.891 140.12 547.621 139.98C548.931 139.69 549.661 138.67 549.951 137.66C550.261 135.62 548.651 134.17 547.341 132.86Z" fill="#4D4D4D"/>
<defs>
<filter id="filter0_i_283_238" x="61.3926" y="40.1973" width="160.531" height="72.1504" filterUnits="userSpaceOnUse" color-interpolation-filters="sRGB">
<feFlood flood-opacity="0" result="BackgroundImageFix"/>
<feBlend mode="normal" in="SourceGraphic" in2="BackgroundImageFix" result="shape"/>
<feColorMatrix in="SourceAlpha" type="matrix" values="0 0 0 0 0 0 0 0 0 0 0 0 0 0 0 0 0 0 127 0" result="hardAlpha"/>
<feOffset dy="4"/>
<feGaussianBlur stdDeviation="2"/>
<feComposite in2="hardAlpha" operator="arithmetic" k2="-1" k3="1"/>
<feColorMatrix type="matrix" values="0 0 0 0 0 0 0 0 0 0 0 0 0 0 0 0 0 0 0.25 0"/>
<feBlend mode="normal" in2="shape" result="effect1_innerShadow_283_238"/>
</filter>
<clipPath id="clip0_283_238">
<rect width="14" height="19" fill="white" transform="translate(129 137)"/>
</clipPath>
</defs>
</svg>
