<svg width="761" height="196" viewBox="0 0 761 196" fill="none" xmlns="http://www.w3.org/2000/svg">
<rect x="0.5" y="0.5" width="760" height="195" rx="19.5" fill="white" stroke="black"/>
<path d="M66.825 156L68.45 148.975L63 144.25L70.2 143.625L73 137L75.8 143.625L83 144.25L77.55 148.975L79.175 156L73 152.275L66.825 156Z" fill="#FFC700"/>
<path d="M66.825 156L68.45 148.975L63 144.25L70.2 143.625L73 137L75.8 143.625L83 144.25L77.55 148.975L79.175 156L73 152.275L66.825 156Z" fill="#FFC700"/>
<path d="M88.825 156L90.45 148.975L85 144.25L92.2 143.625L95 137L97.8 143.625L105 144.25L99.55 148.975L101.175 156L95 152.275L88.825 156Z" fill="#FFC700"/>
<path d="M110.825 156L112.45 148.975L107 144.25L114.2 143.625L117 137L119.8 143.625L127 144.25L121.55 148.975L123.175 156L117 152.275L110.825 156Z" fill="#FFC700"/>
<path d="M132.825 156L134.45 148.975L129 144.25L136.2 143.625L139 137L141.8 143.625L149 144.25L143.55 148.975L145.175 156L139 152.275L132.825 156Z" fill="#FFC700"/>
<path d="M154.825 156L156.45 148.975L151 144.25L158.2 143.625L161 137L163.8 143.625L171 144.25L165.55 148.975L167.175 156L161 152.275L154.825 156Z" fill="#FFC700"/>
<path d="M88.825 156L90.45 148.975L85 144.25L92.2 143.625L95 137L97.8 143.625L105 144.25L99.55 148.975L101.175 156L95 152.275L88.825 156Z" fill="#FFC700"/>
<path d="M110.825 156L112.45 148.975L107 144.25L114.2 143.625L117 137L119.8 143.625L127 144.25L121.55 148.975L123.175 156L117 152.275L110.825 156Z" fill="#FFC700"/>
<line x1="269.5" x2="269.5" y2="196" stroke="black"/>
<path d="M330 126H328V119H326V126H324V119H322V126C322 128.12 323.66 129.84 325.75 129.97V139H328.25V129.97C330.34 129.84 332 128.12 332 126V119H330V126ZM335 123V131H337.5V139H340V119C337.24 119 335 121.24 335 123Z" fill="black" fill-opacity="0.7"/>
<g filter="url(#filter0_i_283_205)">
<path d="M62.2124 66V40.5455H67.5941V51.7688H67.9297L77.0898 40.5455H83.5405L74.0945 51.9428L83.6523 66H77.2141L70.2415 55.5348L67.5941 58.7663V66H62.2124ZM93.4681 66.3729C91.5375 66.3729 89.8679 65.9627 88.4593 65.1424C87.0589 64.3138 85.9776 63.1621 85.2153 61.6871C84.453 60.204 84.0718 58.4846 84.0718 56.5291C84.0718 54.5571 84.453 52.8336 85.2153 51.3587C85.9776 49.8755 87.0589 48.7237 88.4593 47.9034C89.8679 47.0748 91.5375 46.6605 93.4681 46.6605C95.3988 46.6605 97.0642 47.0748 98.4646 47.9034C99.8732 48.7237 100.959 49.8755 101.721 51.3587C102.483 52.8336 102.864 54.5571 102.864 56.5291C102.864 58.4846 102.483 60.204 101.721 61.6871C100.959 63.1621 99.8732 64.3138 98.4646 65.1424C97.0642 65.9627 95.3988 66.3729 93.4681 66.3729ZM93.493 62.2713C94.3713 62.2713 95.1046 62.0227 95.6929 61.5256C96.2812 61.0201 96.7245 60.3324 97.0228 59.4624C97.3294 58.5923 97.4827 57.6022 97.4827 56.4918C97.4827 55.3815 97.3294 54.3913 97.0228 53.5213C96.7245 52.6513 96.2812 51.9635 95.6929 51.4581C95.1046 50.9527 94.3713 50.6999 93.493 50.6999C92.6064 50.6999 91.8606 50.9527 91.2558 51.4581C90.6592 51.9635 90.2076 52.6513 89.901 53.5213C89.6027 54.3913 89.4536 55.3815 89.4536 56.4918C89.4536 57.6022 89.6027 58.5923 89.901 59.4624C90.2076 60.3324 90.6592 61.0201 91.2558 61.5256C91.8606 62.0227 92.6064 62.2713 93.493 62.2713ZM106.307 66V46.9091H111.353V50.2773H111.577C111.975 49.1587 112.638 48.2763 113.566 47.63C114.494 46.9837 115.604 46.6605 116.897 46.6605C118.206 46.6605 119.32 46.9878 120.24 47.6424C121.16 48.2887 121.773 49.167 122.08 50.2773H122.278C122.668 49.1836 123.372 48.3094 124.391 47.6548C125.419 46.992 126.633 46.6605 128.033 46.6605C129.815 46.6605 131.261 47.2281 132.371 48.3633C133.489 49.4902 134.049 51.0894 134.049 53.1609V66H128.766V54.2049C128.766 53.1443 128.485 52.3488 127.921 51.8185C127.358 51.2882 126.653 51.0231 125.808 51.0231C124.847 51.0231 124.097 51.3297 123.559 51.9428C123.02 52.5477 122.751 53.3473 122.751 54.3416V66H117.618V54.093C117.618 53.1567 117.348 52.411 116.81 51.8558C116.279 51.3007 115.579 51.0231 114.709 51.0231C114.121 51.0231 113.591 51.1722 113.118 51.4705C112.654 51.7605 112.286 52.1707 112.012 52.701C111.739 53.223 111.602 53.8362 111.602 54.5405V66H106.307ZM146.857 66.3729C144.926 66.3729 143.257 65.9627 141.848 65.1424C140.448 64.3138 139.366 63.1621 138.604 61.6871C137.842 60.204 137.46 58.4846 137.46 56.5291C137.46 54.5571 137.842 52.8336 138.604 51.3587C139.366 49.8755 140.448 48.7237 141.848 47.9034C143.257 47.0748 144.926 46.6605 146.857 46.6605C148.787 46.6605 150.453 47.0748 151.853 47.9034C153.262 48.7237 154.347 49.8755 155.11 51.3587C155.872 52.8336 156.253 54.5571 156.253 56.5291C156.253 58.4846 155.872 60.204 155.11 61.6871C154.347 63.1621 153.262 64.3138 151.853 65.1424C150.453 65.9627 148.787 66.3729 146.857 66.3729ZM146.882 62.2713C147.76 62.2713 148.493 62.0227 149.082 61.5256C149.67 61.0201 150.113 60.3324 150.411 59.4624C150.718 58.5923 150.871 57.6022 150.871 56.4918C150.871 55.3815 150.718 54.3913 150.411 53.5213C150.113 52.6513 149.67 51.9635 149.082 51.4581C148.493 50.9527 147.76 50.6999 146.882 50.6999C145.995 50.6999 145.249 50.9527 144.644 51.4581C144.048 51.9635 143.596 52.6513 143.29 53.5213C142.991 54.3913 142.842 55.3815 142.842 56.4918C142.842 57.6022 142.991 58.5923 143.29 59.4624C143.596 60.3324 144.048 61.0201 144.644 61.5256C145.249 62.0227 145.995 62.2713 146.882 62.2713ZM166.731 66.3107C165.281 66.3107 163.967 65.9379 162.791 65.1921C161.622 64.4381 160.694 63.3319 160.007 61.8736C159.327 60.407 158.987 58.6089 158.987 56.4794C158.987 54.2919 159.34 52.4731 160.044 51.0231C160.748 49.5647 161.685 48.4751 162.853 47.7543C164.03 47.0251 165.318 46.6605 166.718 46.6605C167.787 46.6605 168.678 46.8428 169.391 47.2074C170.111 47.5637 170.691 48.0111 171.131 48.5497C171.578 49.08 171.918 49.602 172.15 50.1158H172.311V40.5455H177.594V66H172.373V62.9425H172.15C171.901 63.4728 171.549 63.9989 171.093 64.521C170.646 65.0347 170.062 65.4614 169.341 65.8011C168.628 66.1409 167.758 66.3107 166.731 66.3107ZM168.409 62.0973C169.262 62.0973 169.983 61.8653 170.571 61.4013C171.168 60.929 171.624 60.2702 171.938 59.4251C172.262 58.5799 172.423 57.5897 172.423 56.4545C172.423 55.3194 172.266 54.3333 171.951 53.4964C171.636 52.6596 171.18 52.0133 170.584 51.5575C169.987 51.1018 169.262 50.8739 168.409 50.8739C167.539 50.8739 166.805 51.1101 166.209 51.5824C165.612 52.0547 165.161 52.7093 164.854 53.5462C164.547 54.383 164.394 55.3525 164.394 56.4545C164.394 57.5649 164.547 58.5468 164.854 59.4002C165.169 60.2454 165.62 60.9083 166.209 61.3888C166.805 61.8612 167.539 62.0973 168.409 62.0973ZM190.573 66.3729C188.642 66.3729 186.972 65.9627 185.564 65.1424C184.163 64.3138 183.082 63.1621 182.32 61.6871C181.557 60.204 181.176 58.4846 181.176 56.5291C181.176 54.5571 181.557 52.8336 182.32 51.3587C183.082 49.8755 184.163 48.7237 185.564 47.9034C186.972 47.0748 188.642 46.6605 190.573 46.6605C192.503 46.6605 194.169 47.0748 195.569 47.9034C196.978 48.7237 198.063 49.8755 198.825 51.3587C199.588 52.8336 199.969 54.5571 199.969 56.5291C199.969 58.4846 199.588 60.204 198.825 61.6871C198.063 63.1621 196.978 64.3138 195.569 65.1424C194.169 65.9627 192.503 66.3729 190.573 66.3729ZM190.597 62.2713C191.476 62.2713 192.209 62.0227 192.797 61.5256C193.386 61.0201 193.829 60.3324 194.127 59.4624C194.434 58.5923 194.587 57.6022 194.587 56.4918C194.587 55.3815 194.434 54.3913 194.127 53.5213C193.829 52.6513 193.386 51.9635 192.797 51.4581C192.209 50.9527 191.476 50.6999 190.597 50.6999C189.711 50.6999 188.965 50.9527 188.36 51.4581C187.764 51.9635 187.312 52.6513 187.006 53.5213C186.707 54.3913 186.558 55.3815 186.558 56.4918C186.558 57.6022 186.707 58.5923 187.006 59.4624C187.312 60.3324 187.764 61.0201 188.36 61.5256C188.965 62.0227 189.711 62.2713 190.597 62.2713ZM62.2124 108V82.5455H79.0661V86.9826H67.5941V93.0479H77.9474V97.4851H67.5941V108H62.2124ZM87.8813 82.5455V108H82.5866V82.5455H87.8813ZM100.748 108.373C98.8178 108.373 97.1481 107.963 95.7395 107.142C94.3392 106.314 93.2579 105.162 92.4956 103.687C91.7333 102.204 91.3521 100.485 91.3521 98.5291C91.3521 96.5571 91.7333 94.8336 92.4956 93.3587C93.2579 91.8755 94.3392 90.7237 95.7395 89.9034C97.1481 89.0748 98.8178 88.6605 100.748 88.6605C102.679 88.6605 104.345 89.0748 105.745 89.9034C107.153 90.7237 108.239 91.8755 109.001 93.3587C109.764 94.8336 110.145 96.5571 110.145 98.5291C110.145 100.485 109.764 102.204 109.001 103.687C108.239 105.162 107.153 106.314 105.745 107.142C104.345 107.963 102.679 108.373 100.748 108.373ZM100.773 104.271C101.652 104.271 102.385 104.023 102.973 103.526C103.561 103.02 104.005 102.332 104.303 101.462C104.61 100.592 104.763 99.6022 104.763 98.4918C104.763 97.3815 104.61 96.3913 104.303 95.5213C104.005 94.6513 103.561 93.9635 102.973 93.4581C102.385 92.9527 101.652 92.6999 100.773 92.6999C99.8867 92.6999 99.1409 92.9527 98.536 93.4581C97.9395 93.9635 97.4879 94.6513 97.1813 95.5213C96.883 96.3913 96.7338 97.3815 96.7338 98.4918C96.7338 99.6022 96.883 100.592 97.1813 101.462C97.4879 102.332 97.9395 103.02 98.536 103.526C99.1409 104.023 99.8867 104.271 100.773 104.271ZM113.588 108V88.9091H118.721V92.2401H118.92C119.268 91.0552 119.852 90.1603 120.672 89.5554C121.492 88.9422 122.437 88.6357 123.506 88.6357C123.771 88.6357 124.057 88.6522 124.363 88.6854C124.67 88.7185 124.939 88.7641 125.171 88.8221V93.5202C124.923 93.4457 124.579 93.3794 124.14 93.3214C123.701 93.2634 123.299 93.2344 122.934 93.2344C122.155 93.2344 121.459 93.4042 120.846 93.744C120.241 94.0754 119.761 94.5394 119.404 95.136C119.056 95.7326 118.882 96.4203 118.882 97.1992V108H113.588ZM135.72 108.373C133.757 108.373 132.066 107.975 130.649 107.18C129.241 106.376 128.155 105.241 127.393 103.774C126.631 102.299 126.25 100.555 126.25 98.5415C126.25 96.5778 126.631 94.8543 127.393 93.3711C128.155 91.8879 129.228 90.732 130.612 89.9034C132.004 89.0748 133.637 88.6605 135.509 88.6605C136.769 88.6605 137.941 88.8635 139.027 89.2695C140.12 89.6673 141.073 90.268 141.885 91.0717C142.706 91.8755 143.344 92.8864 143.799 94.1044C144.255 95.3142 144.483 96.7311 144.483 98.3551V99.8093H128.362V96.5281H139.499C139.499 95.7657 139.333 95.0904 139.002 94.5021C138.67 93.9138 138.21 93.454 137.622 93.1225C137.042 92.7828 136.367 92.6129 135.596 92.6129C134.792 92.6129 134.08 92.7994 133.458 93.1722C132.845 93.5368 132.365 94.0298 132.017 94.6513C131.669 95.2644 131.49 95.948 131.482 96.7021V99.8217C131.482 100.766 131.656 101.583 132.004 102.27C132.36 102.958 132.862 103.488 133.508 103.861C134.154 104.234 134.921 104.42 135.807 104.42C136.396 104.42 136.934 104.338 137.423 104.172C137.912 104.006 138.331 103.758 138.679 103.426C139.027 103.095 139.292 102.689 139.474 102.208L144.371 102.531C144.122 103.708 143.613 104.735 142.842 105.614C142.08 106.484 141.094 107.163 139.884 107.652C138.683 108.133 137.295 108.373 135.72 108.373ZM163.822 94.353L158.975 94.6513C158.892 94.237 158.714 93.8641 158.441 93.5327C158.167 93.1929 157.807 92.9237 157.359 92.7248C156.92 92.5176 156.394 92.4141 155.781 92.4141C154.96 92.4141 154.269 92.5881 153.705 92.9361C153.142 93.2758 152.86 93.7315 152.86 94.3033C152.86 94.759 153.042 95.1443 153.407 95.4592C153.771 95.774 154.397 96.0268 155.284 96.2173L158.739 96.9134C160.595 97.2945 161.979 97.9077 162.89 98.7528C163.802 99.598 164.257 100.708 164.257 102.084C164.257 103.335 163.889 104.433 163.151 105.377C162.422 106.322 161.419 107.06 160.143 107.59C158.876 108.112 157.413 108.373 155.756 108.373C153.229 108.373 151.215 107.847 149.715 106.794C148.224 105.734 147.35 104.292 147.093 102.469L152.301 102.196C152.458 102.966 152.839 103.555 153.444 103.961C154.049 104.358 154.824 104.557 155.768 104.557C156.696 104.557 157.442 104.379 158.006 104.023C158.577 103.658 158.867 103.19 158.876 102.618C158.867 102.138 158.664 101.744 158.267 101.438C157.869 101.123 157.256 100.882 156.427 100.717L153.121 100.058C151.257 99.685 149.869 99.0387 148.957 98.119C148.054 97.1992 147.603 96.0268 147.603 94.6016C147.603 93.3752 147.934 92.3188 148.597 91.4322C149.268 90.5456 150.208 89.862 151.418 89.3814C152.636 88.9008 154.061 88.6605 155.694 88.6605C158.105 88.6605 160.003 89.1701 161.386 90.1893C162.778 91.2085 163.59 92.5964 163.822 94.353Z" fill="black" fill-opacity="0.7"/>
</g>
<path d="M329 67C328.358 67 327.816 66.7583 327.373 66.275C326.93 65.7917 326.708 65.2 326.708 64.5C326.708 63.8 326.93 63.2083 327.373 62.725C327.816 62.2417 328.358 62 329 62C329.642 62 330.184 62.2417 330.627 62.725C331.07 63.2083 331.292 63.8 331.292 64.5C331.292 65.2 331.07 65.7917 330.627 66.275C330.184 66.7583 329.642 67 329 67ZM323.821 61.35L321.896 59.2C322.797 58.2167 323.855 57.4377 325.07 56.863C326.285 56.2883 327.595 56.0007 329 56C330.406 56 331.716 56.2917 332.931 56.875C334.146 57.4583 335.203 58.25 336.104 59.25L334.179 61.35C333.507 60.6167 332.728 60.0417 331.842 59.625C330.956 59.2083 330.008 59 329 59C327.992 59 327.044 59.2083 326.158 59.625C325.272 60.0417 324.493 60.6167 323.821 61.35ZM319.925 57.1L318 55C319.406 53.4333 321.048 52.2083 322.927 51.325C324.806 50.4417 326.831 50 329 50C331.169 50 333.194 50.4417 335.073 51.325C336.952 52.2083 338.594 53.4333 340 55L338.075 57.1C336.899 55.8167 335.535 54.8127 333.985 54.088C332.434 53.3633 330.773 53.0007 329 53C327.228 53 325.566 53.3627 324.016 54.088C322.466 54.8133 321.102 55.8173 319.925 57.1Z" fill="black" fill-opacity="0.7"/>
<path d="M534.042 52.75C534.042 52.4185 534.162 52.1005 534.377 51.8661C534.592 51.6317 534.883 51.5 535.187 51.5C535.491 51.5 535.783 51.6317 535.998 51.8661C536.213 52.1005 536.333 52.4185 536.333 52.75V59.036C536.77 59.081 537.23 59.169 537.708 59.31V58H543.667V61.5C544.13 61.4918 544.592 61.4247 545.042 61.3V52.75C545.042 52.0207 544.776 51.3212 544.303 50.8055C543.83 50.2897 543.189 50 542.521 50C541.852 50 541.211 50.2897 540.738 50.8055C540.265 51.3212 540 52.0207 540 52.75V53.25C540 53.4489 540.072 53.6397 540.201 53.7803C540.33 53.921 540.505 54 540.687 54C540.87 54 541.045 53.921 541.174 53.7803C541.302 53.6397 541.375 53.4489 541.375 53.25V52.75C541.375 52.4185 541.496 52.1005 541.71 51.8661C541.925 51.6317 542.217 51.5 542.521 51.5C542.825 51.5 543.116 51.6317 543.331 51.8661C543.546 52.1005 543.667 52.4185 543.667 52.75V56.5H537.708V52.75C537.708 52.0207 537.443 51.3212 536.97 50.8055C536.497 50.2897 535.856 50 535.187 50C534.519 50 533.878 50.2897 533.405 50.8055C532.932 51.3212 532.667 52.0207 532.667 52.75V53.25C532.667 53.4489 532.739 53.6397 532.868 53.7803C532.997 53.921 533.172 54 533.354 54C533.536 54 533.711 53.921 533.84 53.7803C533.969 53.6397 534.042 53.4489 534.042 53.25V52.75ZM532.923 62.526C532.794 62.6633 532.621 62.7398 532.44 62.739C532.26 62.7382 532.087 62.6601 531.959 62.5216C531.831 62.3831 531.758 62.1952 531.756 61.9985C531.754 61.8018 531.822 61.612 531.947 61.47H531.948V61.469L531.951 61.467L531.954 61.462L531.965 61.451C532.012 61.4004 532.061 61.3523 532.112 61.307C532.243 61.188 532.381 61.0774 532.524 60.976C533.002 60.6378 533.525 60.3837 534.075 60.223C535.447 59.817 537.378 59.847 539.759 61.331C541.873 62.648 543.731 62.641 545.054 62.323C545.598 62.1932 546.126 61.9918 546.626 61.723C546.809 61.6234 546.987 61.5123 547.158 61.39L547.159 61.389L547.161 61.388C547.309 61.2749 547.492 61.2299 547.67 61.2627C547.848 61.2955 548.007 61.4035 548.113 61.5632C548.218 61.723 548.262 61.9217 548.235 62.1165C548.207 62.3113 548.111 62.4864 547.966 62.604H547.965L547.963 62.606L547.958 62.609L547.946 62.619C547.885 62.6656 547.824 62.7097 547.76 62.751C547.591 62.8645 547.416 62.9696 547.238 63.066C546.638 63.3895 546.004 63.6319 545.35 63.788C543.744 64.174 541.529 64.161 539.077 62.633C536.997 61.337 535.438 61.373 534.435 61.67C534.024 61.7894 533.634 61.9784 533.277 62.23C533.157 62.3159 533.042 62.4112 532.934 62.515L532.923 62.526ZM531.955 66.531C532.085 66.6699 532.259 66.7473 532.441 66.7463C532.622 66.7454 532.796 66.6662 532.924 66.526L532.934 66.516C532.946 66.504 532.966 66.483 532.996 66.456C533.055 66.402 533.15 66.322 533.277 66.23C533.534 66.047 533.922 65.822 534.435 65.67C535.439 65.374 536.997 65.337 539.077 66.633C541.529 68.161 543.743 68.174 545.35 67.788C546.004 67.6319 546.639 67.3895 547.239 67.066C547.468 66.9415 547.69 66.8026 547.904 66.65L547.946 66.62L547.958 66.61L547.963 66.606L547.965 66.605L547.966 66.604C548.111 66.4864 548.207 66.3113 548.235 66.1165C548.262 65.9217 548.218 65.723 548.113 65.5632C548.007 65.4035 547.848 65.2955 547.67 65.2627C547.492 65.2299 547.309 65.2749 547.161 65.388H547.159L547.158 65.39C546.987 65.5123 546.809 65.6234 546.626 65.723C546.259 65.922 545.722 66.163 545.054 66.323C543.731 66.642 541.874 66.648 539.759 65.331C537.378 63.847 535.447 63.817 534.075 64.223C533.4 64.423 532.879 64.722 532.524 64.976C532.339 65.1079 532.164 65.255 531.999 65.416C531.988 65.4275 531.976 65.4392 531.965 65.451L531.954 65.462L531.951 65.467L531.949 65.469L531.947 65.47C531.819 65.6118 531.748 65.8031 531.75 66.0019C531.752 66.2006 531.825 66.3916 531.955 66.531Z" fill="black" fill-opacity="0.7"/>
<path d="M550.167 93V85.6C550.167 85.4409 550.109 85.2883 550.006 85.1757C549.903 85.0632 549.763 85 549.617 85H532.384C532.238 85 532.098 85.0632 531.995 85.1757C531.892 85.2883 531.834 85.4409 531.834 85.6V93M550.167 93H531.834M550.167 93L549.443 95.584C549.329 95.9936 549.096 96.3523 548.781 96.6072C548.465 96.8621 548.083 96.9998 547.69 97H546.501M531.834 93L532.558 95.584C532.673 95.9936 532.905 96.3523 533.22 96.6072C533.536 96.8621 533.918 96.9998 534.311 97H535.501M546.501 89H547.417M538.709 96.5C538.709 96.5 538.709 103.5 535.501 103.5M543.292 96.5C543.292 96.5 543.292 103.5 546.501 103.5M541.001 96.5V103.5" stroke="black" stroke-opacity="0.7" stroke-width="1.5" stroke-linecap="round" stroke-linejoin="round"/>
<path d="M357.177 64L354.263 53.8182H356.615L358.3 60.8928H358.385L360.244 53.8182H362.258L364.112 60.9077H364.202L365.887 53.8182H368.239L365.325 64H363.227L361.288 57.343H361.209L359.275 64H357.177ZM369.351 64V56.3636H371.469V64H369.351ZM370.415 55.3793C370.1 55.3793 369.83 55.2749 369.605 55.0661C369.383 54.8539 369.271 54.6004 369.271 54.3054C369.271 54.0137 369.383 53.7635 369.605 53.5547C369.83 53.3426 370.1 53.2365 370.415 53.2365C370.73 53.2365 370.998 53.3426 371.22 53.5547C371.446 53.7635 371.558 54.0137 371.558 54.3054C371.558 54.6004 371.446 54.8539 371.22 55.0661C370.998 55.2749 370.73 55.3793 370.415 55.3793ZM373.205 64V53.8182H379.947V55.593H375.358V58.0192H379.499V59.794H375.358V64H373.205ZM381.355 64V56.3636H383.473V64H381.355ZM382.419 55.3793C382.104 55.3793 381.834 55.2749 381.608 55.0661C381.386 54.8539 381.275 54.6004 381.275 54.3054C381.275 54.0137 381.386 53.7635 381.608 53.5547C381.834 53.3426 382.104 53.2365 382.419 53.2365C382.734 53.2365 383.002 53.3426 383.224 53.5547C383.45 53.7635 383.562 54.0137 383.562 54.3054C383.562 54.6004 383.45 54.8539 383.224 55.0661C383.002 55.2749 382.734 55.3793 382.419 55.3793Z" fill="black" fill-opacity="0.7"/>
<path d="M354.885 99V88.8182H358.962C359.711 88.8182 360.335 88.9292 360.836 89.1513C361.336 89.3733 361.713 89.6816 361.964 90.076C362.216 90.4671 362.342 90.9179 362.342 91.4283C362.342 91.826 362.263 92.1757 362.104 92.4773C361.945 92.7756 361.726 93.0208 361.447 93.2131C361.172 93.402 360.857 93.5362 360.503 93.6158V93.7152C360.891 93.7318 361.254 93.8411 361.592 94.0433C361.933 94.2455 362.21 94.5289 362.422 94.8935C362.634 95.2547 362.74 95.6856 362.74 96.1861C362.74 96.7263 362.606 97.2086 362.337 97.6328C362.072 98.0537 361.679 98.3868 361.159 98.6321C360.639 98.8774 359.997 99 359.235 99H354.885ZM357.038 97.2401H358.793C359.393 97.2401 359.83 97.1257 360.105 96.897C360.38 96.665 360.518 96.3568 360.518 95.9723C360.518 95.6906 360.45 95.442 360.314 95.2266C360.178 95.0111 359.984 94.8421 359.732 94.7195C359.484 94.5968 359.187 94.5355 358.842 94.5355H357.038V97.2401ZM357.038 93.0788H358.634C358.929 93.0788 359.19 93.0275 359.419 92.9247C359.651 92.8187 359.833 92.6695 359.966 92.4773C360.102 92.285 360.17 92.0547 360.17 91.7862C360.17 91.4183 360.039 91.1217 359.777 90.8963C359.518 90.6709 359.151 90.5582 358.673 90.5582H357.038V93.0788ZM367.581 99.1491C366.796 99.1491 366.119 98.9901 365.553 98.6719C364.989 98.3504 364.555 97.8963 364.25 97.3097C363.945 96.7197 363.793 96.022 363.793 95.2166C363.793 94.4311 363.945 93.7417 364.25 93.1484C364.555 92.5552 364.984 92.0928 365.538 91.7614C366.095 91.4299 366.748 91.2642 367.497 91.2642C368 91.2642 368.469 91.3454 368.904 91.5078C369.341 91.6669 369.722 91.9072 370.047 92.2287C370.375 92.5502 370.63 92.9545 370.813 93.4418C370.995 93.9257 371.086 94.4924 371.086 95.142V95.7237H364.638V94.4112H369.093C369.093 94.1063 369.026 93.8362 368.894 93.6009C368.761 93.3655 368.577 93.1816 368.342 93.049C368.11 92.9131 367.84 92.8452 367.531 92.8452C367.21 92.8452 366.925 92.9197 366.676 93.0689C366.431 93.2147 366.239 93.4119 366.1 93.6605C365.96 93.9058 365.889 94.1792 365.886 94.4808V95.7287C365.886 96.1065 365.955 96.433 366.095 96.7081C366.237 96.9832 366.438 97.1953 366.696 97.3445C366.955 97.4936 367.261 97.5682 367.616 97.5682C367.851 97.5682 368.067 97.535 368.262 97.4688C368.458 97.4025 368.625 97.303 368.764 97.1705C368.904 97.0379 369.01 96.8755 369.083 96.6832L371.041 96.8125C370.942 97.2831 370.738 97.6941 370.43 98.0455C370.125 98.3935 369.731 98.6652 369.247 98.8608C368.766 99.053 368.211 99.1491 367.581 99.1491ZM374.646 99.1442C374.159 99.1442 373.724 99.0597 373.343 98.8906C372.962 98.7183 372.66 98.4647 372.438 98.13C372.22 97.7919 372.11 97.371 372.11 96.8672C372.11 96.4429 372.188 96.0866 372.344 95.7983C372.5 95.5099 372.712 95.2779 372.98 95.1023C373.249 94.9266 373.554 94.794 373.895 94.7045C374.24 94.6151 374.601 94.5521 374.979 94.5156C375.423 94.4692 375.781 94.4261 376.053 94.3864C376.325 94.3433 376.522 94.2803 376.644 94.1974C376.767 94.1146 376.828 93.992 376.828 93.8295V93.7997C376.828 93.4848 376.729 93.2412 376.53 93.0689C376.334 92.8965 376.056 92.8104 375.695 92.8104C375.314 92.8104 375.01 92.8949 374.785 93.0639C374.56 93.2296 374.41 93.4384 374.338 93.6903L372.379 93.5312C372.478 93.0672 372.674 92.6662 372.965 92.3281C373.257 91.9867 373.633 91.7249 374.094 91.5426C374.558 91.357 375.095 91.2642 375.705 91.2642C376.129 91.2642 376.535 91.3139 376.923 91.4134C377.314 91.5128 377.66 91.6669 377.962 91.8757C378.267 92.0845 378.507 92.353 378.683 92.6811C378.858 93.0059 378.946 93.3954 378.946 93.8494V99H376.938V97.9411H376.878C376.755 98.1797 376.591 98.3902 376.386 98.5724C376.18 98.7514 375.933 98.8923 375.645 98.995C375.357 99.0945 375.024 99.1442 374.646 99.1442ZM375.252 97.6825C375.564 97.6825 375.839 97.6212 376.078 97.4986C376.316 97.3726 376.503 97.2036 376.639 96.9915C376.775 96.7794 376.843 96.5391 376.843 96.2706V95.4602C376.777 95.5033 376.686 95.5431 376.57 95.5795C376.457 95.6127 376.329 95.6442 376.187 95.674C376.044 95.7005 375.902 95.7254 375.759 95.7486C375.617 95.7685 375.488 95.7867 375.372 95.8033C375.123 95.8397 374.906 95.8977 374.72 95.9773C374.535 96.0568 374.391 96.1645 374.288 96.3004C374.185 96.433 374.134 96.5987 374.134 96.7976C374.134 97.0859 374.238 97.3063 374.447 97.4588C374.659 97.608 374.927 97.6825 375.252 97.6825ZM384.04 99.1491C383.257 99.1491 382.585 98.9834 382.021 98.652C381.461 98.3172 381.03 97.8532 380.729 97.2599C380.43 96.6667 380.281 95.9839 380.281 95.2116C380.281 94.4295 380.432 93.7434 380.733 93.1534C381.038 92.5601 381.471 92.0978 382.031 91.7663C382.591 91.4316 383.257 91.2642 384.03 91.2642C384.696 91.2642 385.279 91.3852 385.78 91.6271C386.28 91.8691 386.676 92.2088 386.968 92.6463C387.26 93.0838 387.42 93.5975 387.45 94.1875H385.452C385.395 93.8063 385.246 93.4998 385.004 93.2678C384.765 93.0324 384.452 92.9148 384.064 92.9148C383.736 92.9148 383.45 93.0043 383.204 93.1832C382.962 93.3589 382.773 93.6158 382.638 93.9538C382.502 94.2919 382.434 94.7012 382.434 95.1818C382.434 95.669 382.5 96.0833 382.633 96.4247C382.769 96.7661 382.959 97.0263 383.204 97.2053C383.45 97.3842 383.736 97.4737 384.064 97.4737C384.306 97.4737 384.523 97.424 384.716 97.3246C384.911 97.2251 385.072 97.081 385.198 96.892C385.327 96.6998 385.412 96.4695 385.452 96.201H387.45C387.417 96.7843 387.258 97.2981 386.973 97.7422C386.691 98.183 386.302 98.5277 385.805 98.7763C385.307 99.0249 384.719 99.1491 384.04 99.1491ZM390.924 94.5852V99H388.806V88.8182H390.864V92.7109H390.954C391.126 92.2602 391.405 91.9072 391.789 91.652C392.174 91.3935 392.656 91.2642 393.236 91.2642C393.766 91.2642 394.228 91.3802 394.623 91.6122C395.021 91.8409 395.329 92.1707 395.548 92.6016C395.77 93.0291 395.879 93.5412 395.876 94.1378V99H393.758V94.5156C393.761 94.045 393.642 93.6787 393.4 93.4169C393.161 93.1551 392.826 93.0241 392.396 93.0241C392.107 93.0241 391.852 93.0855 391.63 93.2081C391.411 93.3307 391.239 93.5097 391.113 93.745C390.99 93.977 390.927 94.2571 390.924 94.5852ZM402.577 99H400.271L403.786 88.8182H406.56L410.07 99H407.763L405.212 91.1449H405.133L402.577 99ZM402.433 94.9979H407.882V96.6783H402.433V94.9979ZM414.35 99.1491C413.568 99.1491 412.895 98.9834 412.332 98.652C411.772 98.3172 411.341 97.8532 411.039 97.2599C410.741 96.6667 410.592 95.9839 410.592 95.2116C410.592 94.4295 410.742 93.7434 411.044 93.1534C411.349 92.5601 411.781 92.0978 412.342 91.7663C412.902 91.4316 413.568 91.2642 414.34 91.2642C415.006 91.2642 415.59 91.3852 416.09 91.6271C416.591 91.8691 416.987 92.2088 417.278 92.6463C417.57 93.0838 417.731 93.5975 417.761 94.1875H415.762C415.706 93.8063 415.557 93.4998 415.315 93.2678C415.076 93.0324 414.763 92.9148 414.375 92.9148C414.047 92.9148 413.76 93.0043 413.515 93.1832C413.273 93.3589 413.084 93.6158 412.948 93.9538C412.812 94.2919 412.744 94.7012 412.744 95.1818C412.744 95.669 412.811 96.0833 412.943 96.4247C413.079 96.7661 413.27 97.0263 413.515 97.2053C413.76 97.3842 414.047 97.4737 414.375 97.4737C414.617 97.4737 414.834 97.424 415.026 97.3246C415.222 97.2251 415.383 97.081 415.509 96.892C415.638 96.6998 415.722 96.4695 415.762 96.201H417.761C417.728 96.7843 417.568 97.2981 417.283 97.7422C417.002 98.183 416.612 98.5277 416.115 98.7763C415.618 99.0249 415.03 99.1491 414.35 99.1491ZM422.567 99.1491C421.785 99.1491 421.112 98.9834 420.548 98.652C419.988 98.3172 419.557 97.8532 419.256 97.2599C418.958 96.6667 418.808 95.9839 418.808 95.2116C418.808 94.4295 418.959 93.7434 419.261 93.1534C419.566 92.5601 419.998 92.0978 420.558 91.7663C421.119 91.4316 421.785 91.2642 422.557 91.2642C423.223 91.2642 423.807 91.3852 424.307 91.6271C424.807 91.8691 425.204 92.2088 425.495 92.6463C425.787 93.0838 425.948 93.5975 425.977 94.1875H423.979C423.923 93.8063 423.773 93.4998 423.531 93.2678C423.293 93.0324 422.98 92.9148 422.592 92.9148C422.264 92.9148 421.977 93.0043 421.732 93.1832C421.49 93.3589 421.301 93.6158 421.165 93.9538C421.029 94.2919 420.961 94.7012 420.961 95.1818C420.961 95.669 421.027 96.0833 421.16 96.4247C421.296 96.7661 421.486 97.0263 421.732 97.2053C421.977 97.3842 422.264 97.4737 422.592 97.4737C422.834 97.4737 423.051 97.424 423.243 97.3246C423.439 97.2251 423.599 97.081 423.725 96.892C423.855 96.6998 423.939 96.4695 423.979 96.201H425.977C425.944 96.7843 425.785 97.2981 425.5 97.7422C425.218 98.183 424.829 98.5277 424.332 98.7763C423.835 99.0249 423.246 99.1491 422.567 99.1491ZM430.814 99.1491C430.028 99.1491 429.352 98.9901 428.785 98.6719C428.222 98.3504 427.788 97.8963 427.483 97.3097C427.178 96.7197 427.025 96.022 427.025 95.2166C427.025 94.4311 427.178 93.7417 427.483 93.1484C427.788 92.5552 428.217 92.0928 428.77 91.7614C429.327 91.4299 429.98 91.2642 430.729 91.2642C431.233 91.2642 431.702 91.3454 432.136 91.5078C432.574 91.6669 432.955 91.9072 433.279 92.2287C433.608 92.5502 433.863 92.9545 434.045 93.4418C434.227 93.9257 434.319 94.4924 434.319 95.142V95.7237H427.87V94.4112H432.325C432.325 94.1063 432.259 93.8362 432.126 93.6009C431.993 93.3655 431.81 93.1816 431.574 93.049C431.342 92.9131 431.072 92.8452 430.764 92.8452C430.442 92.8452 430.157 92.9197 429.909 93.0689C429.663 93.2147 429.471 93.4119 429.332 93.6605C429.193 93.9058 429.122 94.1792 429.118 94.4808V95.7287C429.118 96.1065 429.188 96.433 429.327 96.7081C429.47 96.9832 429.67 97.1953 429.929 97.3445C430.187 97.4936 430.494 97.5682 430.848 97.5682C431.084 97.5682 431.299 97.535 431.495 97.4688C431.69 97.4025 431.858 97.303 431.997 97.1705C432.136 97.0379 432.242 96.8755 432.315 96.6832L434.274 96.8125C434.174 97.2831 433.971 97.6941 433.662 98.0455C433.357 98.3935 432.963 98.6652 432.479 98.8608C431.998 99.053 431.443 99.1491 430.814 99.1491ZM442.054 93.5412L440.115 93.6605C440.082 93.4948 440.011 93.3456 439.902 93.2131C439.792 93.0772 439.648 92.9695 439.469 92.8899C439.293 92.8071 439.083 92.7656 438.838 92.7656C438.51 92.7656 438.233 92.8352 438.007 92.9744C437.782 93.1103 437.669 93.2926 437.669 93.5213C437.669 93.7036 437.742 93.8577 437.888 93.9837C438.034 94.1096 438.284 94.2107 438.639 94.2869L440.021 94.5653C440.763 94.7178 441.317 94.9631 441.681 95.3011C442.046 95.6392 442.228 96.0833 442.228 96.6335C442.228 97.134 442.081 97.5732 441.786 97.951C441.494 98.3288 441.093 98.6238 440.583 98.8359C440.076 99.0447 439.491 99.1491 438.828 99.1491C437.817 99.1491 437.011 98.9387 436.412 98.5178C435.815 98.0935 435.465 97.5168 435.363 96.7876L437.446 96.6783C437.509 96.9865 437.661 97.2218 437.903 97.3842C438.145 97.5433 438.455 97.6229 438.833 97.6229C439.204 97.6229 439.502 97.5516 439.728 97.4091C439.956 97.2633 440.072 97.076 440.076 96.8473C440.072 96.6551 439.991 96.4976 439.832 96.375C439.673 96.2491 439.428 96.1529 439.096 96.0866L437.774 95.8232C437.028 95.674 436.473 95.4155 436.108 95.0476C435.747 94.6797 435.566 94.2107 435.566 93.6406C435.566 93.1501 435.699 92.7275 435.964 92.3729C436.233 92.0182 436.609 91.7448 437.093 91.5526C437.58 91.3603 438.15 91.2642 438.803 91.2642C439.767 91.2642 440.526 91.468 441.08 91.8757C441.637 92.2834 441.962 92.8385 442.054 93.5412ZM449.916 93.5412L447.977 93.6605C447.944 93.4948 447.872 93.3456 447.763 93.2131C447.654 93.0772 447.509 92.9695 447.33 92.8899C447.155 92.8071 446.944 92.7656 446.699 92.7656C446.371 92.7656 446.094 92.8352 445.869 92.9744C445.643 93.1103 445.531 93.2926 445.531 93.5213C445.531 93.7036 445.604 93.8577 445.749 93.9837C445.895 94.1096 446.146 94.2107 446.5 94.2869L447.882 94.5653C448.625 94.7178 449.178 94.9631 449.543 95.3011C449.907 95.6392 450.09 96.0833 450.09 96.6335C450.09 97.134 449.942 97.5732 449.647 97.951C449.356 98.3288 448.954 98.6238 448.444 98.8359C447.937 99.0447 447.352 99.1491 446.689 99.1491C445.678 99.1491 444.873 98.9387 444.273 98.5178C443.676 98.0935 443.327 97.5168 443.224 96.7876L445.307 96.6783C445.37 96.9865 445.522 97.2218 445.764 97.3842C446.006 97.5433 446.316 97.6229 446.694 97.6229C447.065 97.6229 447.364 97.5516 447.589 97.4091C447.818 97.2633 447.934 97.076 447.937 96.8473C447.934 96.6551 447.852 96.4976 447.693 96.375C447.534 96.2491 447.289 96.1529 446.958 96.0866L445.635 95.8232C444.889 95.674 444.334 95.4155 443.97 95.0476C443.608 94.6797 443.428 94.2107 443.428 93.6406C443.428 93.1501 443.56 92.7275 443.825 92.3729C444.094 92.0182 444.47 91.7448 444.954 91.5526C445.441 91.3603 446.011 91.2642 446.664 91.2642C447.629 91.2642 448.388 91.468 448.941 91.8757C449.498 92.2834 449.823 92.8385 449.916 93.5412Z" fill="black" fill-opacity="0.7"/>
<path d="M339.501 90.8715C339.33 88.9082 338.611 87.0323 337.428 85.4566C336.244 83.8809 334.643 82.6685 332.805 81.9571C330.967 81.2456 328.967 81.0635 327.031 81.4315C325.095 81.7995 323.301 82.7028 321.852 84.039C319.919 85.8155 318.724 88.2545 318.506 90.8715C318.488 91.0786 318.513 91.2871 318.58 91.4839C318.647 91.6806 318.755 91.8613 318.895 92.0144C319.036 92.1675 319.207 92.2898 319.397 92.3733C319.587 92.4569 319.793 92.5 320.001 92.4999H328.251V97.7499C328.251 98.5455 328.567 99.3086 329.13 99.8712C329.692 100.434 330.455 100.75 331.251 100.75C332.046 100.75 332.81 100.434 333.372 99.8712C333.935 99.3086 334.251 98.5455 334.251 97.7499C334.251 97.551 334.172 97.3602 334.031 97.2196C333.891 97.0789 333.7 96.9999 333.501 96.9999C333.302 96.9999 333.111 97.0789 332.97 97.2196C332.83 97.3602 332.751 97.551 332.751 97.7499C332.751 98.1477 332.593 98.5292 332.311 98.8106C332.03 99.0919 331.649 99.2499 331.251 99.2499C330.853 99.2499 330.471 99.0919 330.19 98.8106C329.909 98.5292 329.751 98.1477 329.751 97.7499V92.4999H338.001C338.209 92.5007 338.415 92.458 338.606 92.3748C338.797 92.2915 338.969 92.1693 339.11 92.0162C339.251 91.863 339.358 91.6821 339.426 91.485C339.493 91.2879 339.519 91.079 339.501 90.8715ZM320.001 90.9999C320.167 89.0679 320.952 87.241 322.239 85.7904C323.526 84.3398 325.246 83.3429 327.145 82.9477C326.046 84.4374 324.674 87.0727 324.517 90.9999H320.001ZM326.015 90.9999C326.145 88.1152 327.002 86.049 327.731 84.7899C328.09 84.1644 328.516 83.5798 329.001 83.0461C329.485 83.5799 329.91 84.1645 330.268 84.7899C331.513 86.9405 331.907 89.2449 331.984 90.9999H326.015ZM333.482 90.9999C333.325 87.0727 331.953 84.4374 330.857 82.943C332.757 83.3374 334.478 84.3346 335.766 85.7863C337.053 87.2381 337.837 89.0666 338.001 90.9999H333.482Z" fill="#4D4D4D"/>
<path d="M354.885 135V124.818H358.902C359.671 124.818 360.327 124.956 360.871 125.231C361.418 125.503 361.834 125.889 362.119 126.389C362.407 126.886 362.551 127.471 362.551 128.144C362.551 128.82 362.405 129.402 362.114 129.889C361.822 130.373 361.399 130.744 360.846 131.003C360.296 131.261 359.629 131.391 358.847 131.391H356.158V129.661H358.499C358.91 129.661 359.252 129.604 359.523 129.491C359.795 129.379 359.997 129.21 360.13 128.984C360.266 128.759 360.334 128.479 360.334 128.144C360.334 127.806 360.266 127.521 360.13 127.289C359.997 127.057 359.794 126.881 359.518 126.762C359.247 126.639 358.904 126.578 358.489 126.578H357.038V135H354.885ZM360.384 130.366L362.914 135H360.538L358.062 130.366H360.384ZM367.39 135.149C366.604 135.149 365.928 134.99 365.361 134.672C364.798 134.35 364.364 133.896 364.059 133.31C363.754 132.72 363.601 132.022 363.601 131.217C363.601 130.431 363.754 129.742 364.059 129.148C364.364 128.555 364.793 128.093 365.346 127.761C365.903 127.43 366.556 127.264 367.305 127.264C367.809 127.264 368.278 127.345 368.712 127.508C369.15 127.667 369.531 127.907 369.856 128.229C370.184 128.55 370.439 128.955 370.621 129.442C370.804 129.926 370.895 130.492 370.895 131.142V131.724H364.447V130.411H368.901C368.901 130.106 368.835 129.836 368.702 129.601C368.57 129.366 368.386 129.182 368.15 129.049C367.918 128.913 367.648 128.845 367.34 128.845C367.019 128.845 366.733 128.92 366.485 129.069C366.24 129.215 366.047 129.412 365.908 129.661C365.769 129.906 365.698 130.179 365.694 130.481V131.729C365.694 132.107 365.764 132.433 365.903 132.708C366.046 132.983 366.246 133.195 366.505 133.344C366.763 133.494 367.07 133.568 367.425 133.568C367.66 133.568 367.875 133.535 368.071 133.469C368.266 133.402 368.434 133.303 368.573 133.17C368.712 133.038 368.818 132.875 368.891 132.683L370.85 132.812C370.751 133.283 370.547 133.694 370.238 134.045C369.934 134.393 369.539 134.665 369.055 134.861C368.575 135.053 368.019 135.149 367.39 135.149ZM378.631 129.541L376.692 129.661C376.658 129.495 376.587 129.346 376.478 129.213C376.368 129.077 376.224 128.969 376.045 128.89C375.87 128.807 375.659 128.766 375.414 128.766C375.086 128.766 374.809 128.835 374.584 128.974C374.358 129.11 374.246 129.293 374.246 129.521C374.246 129.704 374.318 129.858 374.464 129.984C374.61 130.11 374.86 130.211 375.215 130.287L376.597 130.565C377.34 130.718 377.893 130.963 378.258 131.301C378.622 131.639 378.805 132.083 378.805 132.634C378.805 133.134 378.657 133.573 378.362 133.951C378.07 134.329 377.669 134.624 377.159 134.836C376.652 135.045 376.067 135.149 375.404 135.149C374.393 135.149 373.588 134.939 372.988 134.518C372.391 134.094 372.041 133.517 371.939 132.788L374.022 132.678C374.085 132.987 374.237 133.222 374.479 133.384C374.721 133.543 375.031 133.623 375.409 133.623C375.78 133.623 376.078 133.552 376.304 133.409C376.532 133.263 376.648 133.076 376.652 132.847C376.648 132.655 376.567 132.498 376.408 132.375C376.249 132.249 376.004 132.153 375.672 132.087L374.35 131.823C373.604 131.674 373.049 131.415 372.684 131.048C372.323 130.68 372.143 130.211 372.143 129.641C372.143 129.15 372.275 128.728 372.54 128.373C372.809 128.018 373.185 127.745 373.669 127.553C374.156 127.36 374.726 127.264 375.379 127.264C376.344 127.264 377.103 127.468 377.656 127.876C378.213 128.283 378.538 128.839 378.631 129.541ZM384.2 127.364V128.955H379.601V127.364H384.2ZM380.645 125.534H382.763V132.653C382.763 132.849 382.793 133.001 382.853 133.111C382.912 133.217 382.995 133.291 383.101 133.335C383.211 133.378 383.337 133.399 383.479 133.399C383.578 133.399 383.678 133.391 383.777 133.374C383.877 133.354 383.953 133.339 384.006 133.33L384.339 134.906C384.233 134.939 384.084 134.977 383.892 135.02C383.699 135.066 383.466 135.094 383.191 135.104C382.68 135.124 382.233 135.056 381.848 134.901C381.467 134.745 381.171 134.503 380.958 134.175C380.746 133.847 380.642 133.432 380.645 132.932V125.534ZM387.757 135.144C387.27 135.144 386.836 135.06 386.455 134.891C386.073 134.718 385.772 134.465 385.55 134.13C385.331 133.792 385.222 133.371 385.222 132.867C385.222 132.443 385.299 132.087 385.455 131.798C385.611 131.51 385.823 131.278 386.092 131.102C386.36 130.927 386.665 130.794 387.006 130.705C387.351 130.615 387.712 130.552 388.09 130.516C388.534 130.469 388.892 130.426 389.164 130.386C389.436 130.343 389.633 130.28 389.756 130.197C389.878 130.115 389.94 129.992 389.94 129.83V129.8C389.94 129.485 389.84 129.241 389.641 129.069C389.446 128.897 389.167 128.81 388.806 128.81C388.425 128.81 388.122 128.895 387.896 129.064C387.671 129.23 387.522 129.438 387.449 129.69L385.49 129.531C385.589 129.067 385.785 128.666 386.077 128.328C386.368 127.987 386.745 127.725 387.205 127.543C387.669 127.357 388.206 127.264 388.816 127.264C389.24 127.264 389.646 127.314 390.034 127.413C390.425 127.513 390.772 127.667 391.073 127.876C391.378 128.085 391.618 128.353 391.794 128.681C391.97 129.006 392.058 129.395 392.058 129.849V135H390.049V133.941H389.989C389.867 134.18 389.703 134.39 389.497 134.572C389.292 134.751 389.045 134.892 388.756 134.995C388.468 135.094 388.135 135.144 387.757 135.144ZM388.364 133.683C388.675 133.683 388.95 133.621 389.189 133.499C389.428 133.373 389.615 133.204 389.751 132.991C389.887 132.779 389.955 132.539 389.955 132.271V131.46C389.888 131.503 389.797 131.543 389.681 131.58C389.568 131.613 389.441 131.644 389.298 131.674C389.156 131.701 389.013 131.725 388.871 131.749C388.728 131.768 388.599 131.787 388.483 131.803C388.234 131.84 388.017 131.898 387.832 131.977C387.646 132.057 387.502 132.165 387.399 132.3C387.296 132.433 387.245 132.599 387.245 132.798C387.245 133.086 387.349 133.306 387.558 133.459C387.77 133.608 388.039 133.683 388.364 133.683ZM398.598 131.749V127.364H400.716V135H398.682V133.613H398.603C398.43 134.06 398.144 134.42 397.743 134.692C397.345 134.964 396.859 135.099 396.286 135.099C395.775 135.099 395.326 134.983 394.939 134.751C394.551 134.519 394.248 134.19 394.029 133.762C393.813 133.335 393.704 132.822 393.701 132.226V127.364H395.819V131.848C395.822 132.299 395.943 132.655 396.181 132.917C396.42 133.179 396.74 133.31 397.141 133.31C397.396 133.31 397.635 133.252 397.857 133.136C398.079 133.016 398.258 132.841 398.394 132.609C398.533 132.377 398.601 132.09 398.598 131.749ZM402.41 135V127.364H404.463V128.696H404.542C404.682 128.222 404.915 127.864 405.243 127.622C405.572 127.377 405.949 127.254 406.377 127.254C406.483 127.254 406.597 127.261 406.72 127.274C406.843 127.287 406.95 127.306 407.043 127.329V129.208C406.944 129.178 406.806 129.152 406.631 129.129C406.455 129.105 406.294 129.094 406.148 129.094C405.837 129.094 405.558 129.162 405.313 129.298C405.071 129.43 404.879 129.616 404.736 129.854C404.597 130.093 404.528 130.368 404.528 130.68V135H402.41ZM410.097 135.144C409.61 135.144 409.176 135.06 408.794 134.891C408.413 134.718 408.112 134.465 407.89 134.13C407.671 133.792 407.561 133.371 407.561 132.867C407.561 132.443 407.639 132.087 407.795 131.798C407.951 131.51 408.163 131.278 408.431 131.102C408.7 130.927 409.005 130.794 409.346 130.705C409.691 130.615 410.052 130.552 410.43 130.516C410.874 130.469 411.232 130.426 411.504 130.386C411.776 130.343 411.973 130.28 412.096 130.197C412.218 130.115 412.279 129.992 412.279 129.83V129.8C412.279 129.485 412.18 129.241 411.981 129.069C411.786 128.897 411.507 128.81 411.146 128.81C410.765 128.81 410.462 128.895 410.236 129.064C410.011 129.23 409.862 129.438 409.789 129.69L407.83 129.531C407.929 129.067 408.125 128.666 408.417 128.328C408.708 127.987 409.084 127.725 409.545 127.543C410.009 127.357 410.546 127.264 411.156 127.264C411.58 127.264 411.986 127.314 412.374 127.413C412.765 127.513 413.111 127.667 413.413 127.876C413.718 128.085 413.958 128.353 414.134 128.681C414.31 129.006 414.397 129.395 414.397 129.849V135H412.389V133.941H412.329C412.207 134.18 412.042 134.39 411.837 134.572C411.632 134.751 411.385 134.892 411.096 134.995C410.808 135.094 410.475 135.144 410.097 135.144ZM410.703 133.683C411.015 133.683 411.29 133.621 411.529 133.499C411.767 133.373 411.955 133.204 412.091 132.991C412.226 132.779 412.294 132.539 412.294 132.271V131.46C412.228 131.503 412.137 131.543 412.021 131.58C411.908 131.613 411.781 131.644 411.638 131.674C411.496 131.701 411.353 131.725 411.211 131.749C411.068 131.768 410.939 131.787 410.823 131.803C410.574 131.84 410.357 131.898 410.172 131.977C409.986 132.057 409.842 132.165 409.739 132.3C409.636 132.433 409.585 132.599 409.585 132.798C409.585 133.086 409.689 133.306 409.898 133.459C410.11 133.608 410.379 133.683 410.703 133.683ZM418.158 130.585V135H416.04V127.364H418.059V128.711H418.148C418.317 128.267 418.601 127.915 418.999 127.657C419.396 127.395 419.879 127.264 420.445 127.264C420.976 127.264 421.438 127.38 421.832 127.612C422.227 127.844 422.533 128.176 422.752 128.607C422.971 129.034 423.08 129.545 423.08 130.138V135H420.962V130.516C420.966 130.048 420.846 129.684 420.604 129.422C420.362 129.157 420.029 129.024 419.605 129.024C419.32 129.024 419.068 129.085 418.849 129.208C418.634 129.331 418.465 129.51 418.342 129.745C418.223 129.977 418.162 130.257 418.158 130.585ZM428.811 127.364V128.955H424.213V127.364H428.811ZM425.257 125.534H427.374V132.653C427.374 132.849 427.404 133.001 427.464 133.111C427.524 133.217 427.606 133.291 427.713 133.335C427.822 133.378 427.948 133.399 428.09 133.399C428.19 133.399 428.289 133.391 428.389 133.374C428.488 133.354 428.564 133.339 428.617 133.33L428.95 134.906C428.844 134.939 428.695 134.977 428.503 135.02C428.311 135.066 428.077 135.094 427.802 135.104C427.292 135.124 426.844 135.056 426.46 134.901C426.079 134.745 425.782 134.503 425.57 134.175C425.358 133.847 425.253 133.432 425.257 132.932V125.534Z" fill="black" fill-opacity="0.7"/>
<path d="M567.64 98H565.333L568.848 87.8182H571.622L575.132 98H572.825L570.275 90.1449H570.195L567.64 98ZM567.496 93.9979H572.945V95.6783H567.496V93.9979ZM584.863 91.3828H582.685C582.645 91.1011 582.564 90.8509 582.442 90.6321C582.319 90.41 582.162 90.2211 581.969 90.0653C581.777 89.9096 581.555 89.7902 581.303 89.7074C581.055 89.6245 580.784 89.5831 580.493 89.5831C579.966 89.5831 579.507 89.714 579.116 89.9759C578.724 90.2344 578.421 90.6122 578.206 91.1094C577.99 91.6032 577.883 92.2031 577.883 92.9091C577.883 93.6349 577.99 94.2448 578.206 94.7386C578.425 95.2325 578.729 95.6054 579.121 95.8572C579.512 96.1091 579.964 96.2351 580.478 96.2351C580.766 96.2351 581.033 96.197 581.278 96.1207C581.527 96.0445 581.747 95.9335 581.939 95.7876C582.132 95.6385 582.291 95.4579 582.417 95.2457C582.546 95.0336 582.635 94.7917 582.685 94.5199L584.863 94.5298C584.806 94.9972 584.666 95.4479 584.44 95.8821C584.218 96.313 583.918 96.6991 583.54 97.0405C583.166 97.3786 582.718 97.647 582.198 97.8459C581.681 98.0414 581.096 98.1392 580.443 98.1392C579.535 98.1392 578.723 97.9337 578.007 97.5227C577.294 97.1117 576.731 96.5168 576.317 95.7379C575.906 94.959 575.7 94.0161 575.7 92.9091C575.7 91.7988 575.909 90.8542 576.327 90.0753C576.744 89.2964 577.311 88.7031 578.027 88.2955C578.743 87.8845 579.548 87.679 580.443 87.679C581.033 87.679 581.58 87.7618 582.084 87.9276C582.591 88.0933 583.04 88.3352 583.431 88.6534C583.822 88.9683 584.14 89.3544 584.385 89.8118C584.634 90.2692 584.793 90.7929 584.863 91.3828Z" fill="black" fill-opacity="0.7"/>
<path d="M571.408 56.7464C571.369 56.3454 571.198 56.0339 570.896 55.8118C570.595 55.5897 570.185 55.4787 569.668 55.4787C569.317 55.4787 569.02 55.5284 568.778 55.6278C568.536 55.724 568.351 55.8582 568.222 56.0305C568.096 56.2029 568.033 56.3984 568.033 56.6172C568.026 56.7995 568.064 56.9586 568.147 57.0945C568.233 57.2304 568.351 57.348 568.5 57.4474C568.649 57.5436 568.821 57.6281 569.017 57.701C569.213 57.7706 569.421 57.8303 569.643 57.88L570.558 58.0987C571.002 58.1982 571.41 58.3307 571.781 58.4964C572.152 58.6622 572.474 58.866 572.746 59.108C573.018 59.3499 573.228 59.6349 573.377 59.9631C573.53 60.2912 573.607 60.6674 573.611 61.0916C573.607 61.7147 573.448 62.255 573.134 62.7124C572.822 63.1664 572.371 63.5194 571.781 63.7713C571.195 64.0199 570.487 64.1442 569.658 64.1442C568.836 64.1442 568.121 64.0182 567.511 63.7663C566.904 63.5144 566.43 63.1416 566.089 62.6477C565.751 62.1506 565.573 61.5357 565.557 60.8033H567.64C567.663 61.1446 567.761 61.4297 567.933 61.6584C568.109 61.8838 568.343 62.0545 568.634 62.1705C568.929 62.2831 569.262 62.3395 569.634 62.3395C569.998 62.3395 570.315 62.2865 570.583 62.1804C570.855 62.0743 571.065 61.9268 571.214 61.7379C571.364 61.549 571.438 61.3319 571.438 61.0866C571.438 60.858 571.37 60.6657 571.234 60.5099C571.102 60.3542 570.906 60.2216 570.648 60.1122C570.393 60.0028 570.079 59.9034 569.708 59.8139L568.599 59.5355C567.741 59.3267 567.063 59.0002 566.566 58.5561C566.069 58.112 565.822 57.5137 565.825 56.7614C565.822 56.1449 565.986 55.6063 566.317 55.1456C566.652 54.6849 567.111 54.3253 567.695 54.0668C568.278 53.8082 568.941 53.679 569.683 53.679C570.439 53.679 571.098 53.8082 571.662 54.0668C572.229 54.3253 572.67 54.6849 572.984 55.1456C573.299 55.6063 573.462 56.1399 573.472 56.7464H571.408ZM576.525 64L574.447 56.3636H576.59L577.773 61.4943H577.843L579.076 56.3636H581.179L582.432 61.4645H582.496L583.66 56.3636H585.797L583.724 64H581.482L580.17 59.1974H580.075L578.763 64H576.525ZM586.927 64V56.3636H589.045V64H586.927ZM587.991 55.3793C587.676 55.3793 587.406 55.2749 587.181 55.0661C586.959 54.8539 586.848 54.6004 586.848 54.3054C586.848 54.0137 586.959 53.7635 587.181 53.5547C587.406 53.3426 587.676 53.2365 587.991 53.2365C588.306 53.2365 588.574 53.3426 588.797 53.5547C589.022 53.7635 589.135 54.0137 589.135 54.3054C589.135 54.6004 589.022 54.8539 588.797 55.0661C588.574 55.2749 588.306 55.3793 587.991 55.3793ZM590.742 64V56.3636H592.76V57.7109H592.85C593.009 57.2635 593.274 56.9105 593.645 56.652C594.016 56.3935 594.46 56.2642 594.977 56.2642C595.501 56.2642 595.947 56.3951 596.315 56.657C596.683 56.9155 596.928 57.2668 597.051 57.7109H597.13C597.286 57.2734 597.568 56.9238 597.975 56.6619C598.386 56.3968 598.872 56.2642 599.432 56.2642C600.145 56.2642 600.723 56.4912 601.167 56.9453C601.615 57.3961 601.838 58.0357 601.838 58.8643V64H599.725V59.282C599.725 58.8577 599.613 58.5395 599.387 58.3274C599.162 58.1153 598.88 58.0092 598.542 58.0092C598.158 58.0092 597.858 58.1319 597.642 58.3771C597.427 58.6191 597.319 58.9389 597.319 59.3366V64H595.266V59.2372C595.266 58.8627 595.158 58.5644 594.943 58.3423C594.731 58.1203 594.45 58.0092 594.102 58.0092C593.867 58.0092 593.655 58.0689 593.466 58.1882C593.28 58.3042 593.133 58.4683 593.024 58.6804C592.914 58.8892 592.86 59.1345 592.86 59.4162V64H590.742ZM603.511 64V56.3636H605.53V57.7109H605.619C605.778 57.2635 606.043 56.9105 606.415 56.652C606.786 56.3935 607.23 56.2642 607.747 56.2642C608.271 56.2642 608.716 56.3951 609.084 56.657C609.452 56.9155 609.698 57.2668 609.82 57.7109H609.9C610.055 57.2734 610.337 56.9238 610.745 56.6619C611.156 56.3968 611.641 56.2642 612.202 56.2642C612.914 56.2642 613.492 56.4912 613.937 56.9453C614.384 57.3961 614.608 58.0357 614.608 58.8643V64H612.495V59.282C612.495 58.8577 612.382 58.5395 612.157 58.3274C611.931 58.1153 611.65 58.0092 611.312 58.0092C610.927 58.0092 610.627 58.1319 610.412 58.3771C610.196 58.6191 610.089 58.9389 610.089 59.3366V64H608.035V59.2372C608.035 58.8627 607.928 58.5644 607.712 58.3423C607.5 58.1203 607.22 58.0092 606.872 58.0092C606.637 58.0092 606.425 58.0689 606.236 58.1882C606.05 58.3042 605.903 58.4683 605.793 58.6804C605.684 58.8892 605.629 59.1345 605.629 59.4162V64H603.511ZM616.281 64V56.3636H618.399V64H616.281ZM617.345 55.3793C617.03 55.3793 616.76 55.2749 616.534 55.0661C616.312 54.8539 616.201 54.6004 616.201 54.3054C616.201 54.0137 616.312 53.7635 616.534 53.5547C616.76 53.3426 617.03 53.2365 617.345 53.2365C617.66 53.2365 617.928 53.3426 618.15 53.5547C618.375 53.7635 618.488 54.0137 618.488 54.3054C618.488 54.6004 618.375 54.8539 618.15 55.0661C617.928 55.2749 617.66 55.3793 617.345 55.3793ZM622.213 59.5852V64H620.095V56.3636H622.114V57.7109H622.203C622.372 57.2668 622.656 56.9155 623.053 56.657C623.451 56.3951 623.933 56.2642 624.5 56.2642C625.03 56.2642 625.493 56.3802 625.887 56.6122C626.281 56.8442 626.588 57.1757 626.807 57.6065C627.026 58.0341 627.135 58.5445 627.135 59.1378V64H625.017V59.5156C625.02 59.0483 624.901 58.6837 624.659 58.4219C624.417 58.1567 624.084 58.0241 623.66 58.0241C623.375 58.0241 623.123 58.0855 622.904 58.2081C622.689 58.3307 622.52 58.5097 622.397 58.745C622.278 58.977 622.216 59.2571 622.213 59.5852ZM632.244 67.0227C631.558 67.0227 630.97 66.9283 630.48 66.7393C629.992 66.5537 629.605 66.3002 629.316 65.9787C629.028 65.6572 628.841 65.2959 628.754 64.8949L630.713 64.6314C630.773 64.7839 630.867 64.9264 630.997 65.0589C631.126 65.1915 631.297 65.2976 631.509 65.3771C631.724 65.46 631.986 65.5014 632.294 65.5014C632.755 65.5014 633.134 65.3887 633.433 65.1634C633.734 64.9413 633.885 64.5684 633.885 64.0447V62.6477H633.796C633.703 62.8598 633.564 63.0604 633.378 63.2493C633.192 63.4382 632.954 63.5923 632.662 63.7116C632.37 63.831 632.022 63.8906 631.618 63.8906C631.045 63.8906 630.523 63.758 630.052 63.4929C629.585 63.2244 629.212 62.8151 628.933 62.2649C628.658 61.7114 628.521 61.0121 628.521 60.1669C628.521 59.3018 628.662 58.5793 628.943 57.9993C629.225 57.4193 629.6 56.9851 630.067 56.6967C630.538 56.4084 631.053 56.2642 631.613 56.2642C632.041 56.2642 632.399 56.3371 632.687 56.483C632.975 56.6255 633.207 56.8045 633.383 57.0199C633.562 57.232 633.7 57.4408 633.796 57.6463H633.875V56.3636H635.978V64.0746C635.978 64.7242 635.819 65.2678 635.501 65.7053C635.183 66.1428 634.742 66.4709 634.178 66.6896C633.618 66.9117 632.974 67.0227 632.244 67.0227ZM632.289 62.2997C632.631 62.2997 632.919 62.2152 633.154 62.0462C633.393 61.8738 633.575 61.6286 633.701 61.3104C633.83 60.9889 633.895 60.6044 633.895 60.157C633.895 59.7095 633.832 59.3217 633.706 58.9936C633.58 58.6622 633.398 58.4053 633.159 58.223C632.921 58.0407 632.631 57.9496 632.289 57.9496C631.941 57.9496 631.648 58.044 631.409 58.233C631.171 58.4186 630.99 58.6771 630.867 59.0085C630.745 59.34 630.683 59.7228 630.683 60.157C630.683 60.5978 630.745 60.9789 630.867 61.3004C630.993 61.6186 631.174 61.8655 631.409 62.0412C631.648 62.2135 631.941 62.2997 632.289 62.2997ZM640.944 64V53.8182H644.961C645.733 53.8182 646.391 53.9657 646.934 54.2607C647.478 54.5523 647.892 54.9583 648.177 55.4787C648.466 55.9957 648.61 56.5923 648.61 57.2685C648.61 57.9446 648.464 58.5412 648.172 59.0582C647.881 59.5753 647.458 59.978 646.904 60.2663C646.354 60.5547 645.688 60.6989 644.906 60.6989H642.346V58.9737H644.558C644.972 58.9737 645.314 58.9025 645.582 58.7599C645.854 58.6141 646.056 58.4136 646.189 58.1584C646.324 57.8999 646.392 57.6032 646.392 57.2685C646.392 56.9304 646.324 56.6354 646.189 56.3835C646.056 56.1283 645.854 55.9311 645.582 55.7919C645.31 55.6494 644.966 55.5781 644.548 55.5781H643.096V64H640.944ZM653.295 64.1491C652.523 64.1491 651.855 63.9851 651.292 63.657C650.732 63.3255 650.299 62.8648 649.994 62.2749C649.689 61.6816 649.537 60.9938 649.537 60.2116C649.537 59.4228 649.689 58.7334 649.994 58.1435C650.299 57.5502 650.732 57.0895 651.292 56.7614C651.855 56.4299 652.523 56.2642 653.295 56.2642C654.068 56.2642 654.734 56.4299 655.294 56.7614C655.857 57.0895 656.292 57.5502 656.597 58.1435C656.902 58.7334 657.054 59.4228 657.054 60.2116C657.054 60.9938 656.902 61.6816 656.597 62.2749C656.292 62.8648 655.857 63.3255 655.294 63.657C654.734 63.9851 654.068 64.1491 653.295 64.1491ZM653.305 62.5085C653.657 62.5085 653.95 62.4091 654.185 62.2102C654.421 62.008 654.598 61.733 654.717 61.3849C654.84 61.0369 654.901 60.6409 654.901 60.1967C654.901 59.7526 654.84 59.3565 654.717 59.0085C654.598 58.6605 654.421 58.3854 654.185 58.1832C653.95 57.9811 653.657 57.88 653.305 57.88C652.951 57.88 652.652 57.9811 652.411 58.1832C652.172 58.3854 651.991 58.6605 651.869 59.0085C651.749 59.3565 651.69 59.7526 651.69 60.1967C651.69 60.6409 651.749 61.0369 651.869 61.3849C651.991 61.733 652.172 62.008 652.411 62.2102C652.652 62.4091 652.951 62.5085 653.305 62.5085ZM661.881 64.1491C661.109 64.1491 660.441 63.9851 659.878 63.657C659.318 63.3255 658.885 62.8648 658.58 62.2749C658.275 61.6816 658.123 60.9938 658.123 60.2116C658.123 59.4228 658.275 58.7334 658.58 58.1435C658.885 57.5502 659.318 57.0895 659.878 56.7614C660.441 56.4299 661.109 56.2642 661.881 56.2642C662.654 56.2642 663.32 56.4299 663.88 56.7614C664.443 57.0895 664.878 57.5502 665.183 58.1435C665.487 58.7334 665.64 59.4228 665.64 60.2116C665.64 60.9938 665.487 61.6816 665.183 62.2749C664.878 62.8648 664.443 63.3255 663.88 63.657C663.32 63.9851 662.654 64.1491 661.881 64.1491ZM661.891 62.5085C662.243 62.5085 662.536 62.4091 662.771 62.2102C663.007 62.008 663.184 61.733 663.303 61.3849C663.426 61.0369 663.487 60.6409 663.487 60.1967C663.487 59.7526 663.426 59.3565 663.303 59.0085C663.184 58.6605 663.007 58.3854 662.771 58.1832C662.536 57.9811 662.243 57.88 661.891 57.88C661.537 57.88 661.238 57.9811 660.996 58.1832C660.758 58.3854 660.577 58.6605 660.455 59.0085C660.335 59.3565 660.276 59.7526 660.276 60.1967C660.276 60.6409 660.335 61.0369 660.455 61.3849C660.577 61.733 660.758 62.008 660.996 62.2102C661.238 62.4091 661.537 62.5085 661.891 62.5085ZM669.135 53.8182V64H667.017V53.8182H669.135Z" fill="black" fill-opacity="0.7"/>
<path d="M542.918 137.962C541.661 137.838 540.413 137.566 539.174 137.148C537.935 136.728 536.813 136.117 535.807 135.315C534.8 134.513 533.964 133.495 533.298 132.263C532.632 131.031 532.245 129.546 532.136 127.808L532.09 127L533.019 127.038C533.86 127.076 534.859 127.252 536.016 127.565C537.173 127.878 538.156 128.277 538.964 128.762C539.066 127.508 539.44 126.187 540.087 124.801C540.733 123.414 541.538 122.237 542.5 121.269C543.461 122.237 544.266 123.42 544.913 124.82C545.56 126.22 545.934 127.546 546.036 128.8C546.797 128.353 547.74 127.957 548.866 127.613C549.993 127.268 551.015 127.076 551.934 127.038L552.909 127L552.864 127.846C552.801 129.226 552.542 130.464 552.085 131.562C551.628 132.659 550.981 133.622 550.146 134.45C549.31 135.278 548.292 135.981 547.093 136.56C545.892 137.139 544.501 137.606 542.918 137.962ZM542.904 136.95C542.683 134.183 541.691 132.091 539.928 130.675C538.166 129.258 535.976 128.383 533.359 128.05C533.58 130.9 534.602 133.025 536.424 134.425C538.246 135.825 540.406 136.666 542.904 136.95ZM542.5 131.908C542.771 131.49 543.119 131.053 543.544 130.598C543.968 130.142 544.406 129.76 544.856 129.45C544.846 128.423 544.635 127.351 544.223 126.235C543.809 125.118 543.235 124.049 542.5 123.027C541.764 124.049 541.19 125.118 540.777 126.235C540.364 127.351 540.153 128.423 540.143 129.45C540.593 129.758 541.027 130.141 541.447 130.597C541.867 131.053 542.218 131.489 542.5 131.907M544.113 136.615C545.059 136.351 545.966 136.001 546.834 135.567C547.702 135.132 548.479 134.576 549.166 133.899C549.852 133.221 550.415 132.404 550.854 131.446C551.294 130.488 551.556 129.356 551.641 128.05C549.686 128.283 547.947 128.852 546.424 129.757C544.902 130.661 543.804 131.77 543.132 133.085C543.373 133.618 543.572 134.156 543.727 134.7C543.884 135.243 544.012 135.881 544.113 136.615Z" fill="#4D4D4D"/>
<path d="M571.408 130.746C571.369 130.345 571.198 130.034 570.896 129.812C570.595 129.59 570.185 129.479 569.668 129.479C569.317 129.479 569.02 129.528 568.778 129.628C568.536 129.724 568.351 129.858 568.222 130.031C568.096 130.203 568.033 130.398 568.033 130.617C568.026 130.799 568.064 130.959 568.147 131.094C568.233 131.23 568.351 131.348 568.5 131.447C568.649 131.544 568.821 131.628 569.017 131.701C569.213 131.771 569.421 131.83 569.643 131.88L570.558 132.099C571.002 132.198 571.41 132.331 571.781 132.496C572.152 132.662 572.474 132.866 572.746 133.108C573.018 133.35 573.228 133.635 573.377 133.963C573.53 134.291 573.607 134.667 573.611 135.092C573.607 135.715 573.448 136.255 573.134 136.712C572.822 137.166 572.371 137.519 571.781 137.771C571.195 138.02 570.487 138.144 569.658 138.144C568.836 138.144 568.121 138.018 567.511 137.766C566.904 137.514 566.43 137.142 566.089 136.648C565.751 136.151 565.573 135.536 565.557 134.803H567.64C567.663 135.145 567.761 135.43 567.933 135.658C568.109 135.884 568.343 136.054 568.634 136.17C568.929 136.283 569.262 136.339 569.634 136.339C569.998 136.339 570.315 136.286 570.583 136.18C570.855 136.074 571.065 135.927 571.214 135.738C571.364 135.549 571.438 135.332 571.438 135.087C571.438 134.858 571.37 134.666 571.234 134.51C571.102 134.354 570.906 134.222 570.648 134.112C570.393 134.003 570.079 133.903 569.708 133.814L568.599 133.536C567.741 133.327 567.063 133 566.566 132.556C566.069 132.112 565.822 131.514 565.825 130.761C565.822 130.145 565.986 129.606 566.317 129.146C566.652 128.685 567.111 128.325 567.695 128.067C568.278 127.808 568.941 127.679 569.683 127.679C570.439 127.679 571.098 127.808 571.662 128.067C572.229 128.325 572.67 128.685 572.984 129.146C573.299 129.606 573.462 130.14 573.472 130.746H571.408ZM575.059 138V127.818H579.076C579.848 127.818 580.506 127.966 581.05 128.261C581.593 128.552 582.007 128.958 582.292 129.479C582.581 129.996 582.725 130.592 582.725 131.268C582.725 131.945 582.579 132.541 582.287 133.058C581.996 133.575 581.573 133.978 581.02 134.266C580.47 134.555 579.803 134.699 579.021 134.699H576.461V132.974H578.673C579.087 132.974 579.429 132.902 579.697 132.76C579.969 132.614 580.171 132.414 580.304 132.158C580.44 131.9 580.508 131.603 580.508 131.268C580.508 130.93 580.44 130.635 580.304 130.384C580.171 130.128 579.969 129.931 579.697 129.792C579.425 129.649 579.081 129.578 578.663 129.578H577.211V138H575.059ZM584.702 138H582.396L585.911 127.818H588.685L592.195 138H589.888L587.337 130.145H587.258L584.702 138ZM584.558 133.998H590.007V135.678H584.558V133.998Z" fill="black" fill-opacity="0.7"/>
<defs>
<filter id="filter0_i_283_205" x="62.2129" y="40.5459" width="137.756" height="71.8271" filterUnits="userSpaceOnUse" color-interpolation-filters="sRGB">
<feFlood flood-opacity="0" result="BackgroundImageFix"/>
<feBlend mode="normal" in="SourceGraphic" in2="BackgroundImageFix" result="shape"/>
<feColorMatrix in="SourceAlpha" type="matrix" values="0 0 0 0 0 0 0 0 0 0 0 0 0 0 0 0 0 0 127 0" result="hardAlpha"/>
<feOffset dy="4"/>
<feGaussianBlur stdDeviation="2"/>
<feComposite in2="hardAlpha" operator="arithmetic" k2="-1" k3="1"/>
<feColorMatrix type="matrix" values="0 0 0 0 0 0 0 0 0 0 0 0 0 0 0 0 0 0 0.25 0"/>
<feBlend mode="normal" in2="shape" result="effect1_innerShadow_283_205"/>
</filter>
</defs>
</svg>
