<svg width="761" height="196" viewBox="0 0 761 196" fill="none" xmlns="http://www.w3.org/2000/svg">
<rect x="0.5" y="0.5" width="760" height="195" rx="19.5" fill="white" stroke="black"/>
<path d="M331.918 139.962C330.661 139.838 329.413 139.566 328.174 139.148C326.935 138.728 325.813 138.117 324.807 137.315C323.8 136.513 322.964 135.495 322.298 134.263C321.632 133.031 321.245 131.546 321.136 129.808L321.09 129L322.019 129.038C322.86 129.076 323.859 129.252 325.016 129.565C326.173 129.878 327.156 130.277 327.964 130.762C328.066 129.508 328.44 128.187 329.087 126.801C329.733 125.414 330.538 124.237 331.5 123.269C332.461 124.237 333.266 125.42 333.913 126.82C334.56 128.22 334.934 129.546 335.036 130.8C335.797 130.353 336.74 129.957 337.866 129.613C338.993 129.268 340.015 129.076 340.934 129.038L341.909 129L341.864 129.846C341.801 131.226 341.542 132.464 341.085 133.562C340.628 134.659 339.981 135.622 339.146 136.45C338.31 137.278 337.292 137.981 336.093 138.56C334.892 139.139 333.501 139.606 331.918 139.962ZM331.904 138.95C331.683 136.183 330.691 134.091 328.928 132.675C327.166 131.258 324.976 130.383 322.359 130.05C322.58 132.9 323.602 135.025 325.424 136.425C327.246 137.825 329.406 138.666 331.904 138.95ZM331.5 133.908C331.771 133.49 332.119 133.053 332.544 132.598C332.968 132.142 333.406 131.76 333.856 131.45C333.846 130.423 333.635 129.351 333.223 128.235C332.809 127.118 332.235 126.049 331.5 125.027C330.764 126.049 330.19 127.118 329.777 128.235C329.364 129.351 329.153 130.423 329.143 131.45C329.593 131.758 330.027 132.141 330.447 132.597C330.867 133.053 331.218 133.489 331.5 133.907M333.113 138.615C334.059 138.351 334.966 138.001 335.834 137.567C336.702 137.132 337.479 136.576 338.166 135.899C338.852 135.221 339.415 134.404 339.854 133.446C340.294 132.488 340.556 131.356 340.641 130.05C338.686 130.283 336.947 130.852 335.424 131.757C333.902 132.661 332.804 133.77 332.132 135.085C332.373 135.618 332.572 136.156 332.727 136.7C332.884 137.243 333.012 137.881 333.113 138.615Z" fill="#4D4D4D"/>
<path d="M66.825 156L68.45 148.975L63 144.25L70.2 143.625L73 137L75.8 143.625L83 144.25L77.55 148.975L79.175 156L73 152.275L66.825 156Z" fill="#FFC700"/>
<path d="M88.825 156L90.45 148.975L85 144.25L92.2 143.625L95 137L97.8 143.625L105 144.25L99.55 148.975L101.175 156L95 152.275L88.825 156Z" fill="#FFC700"/>
<path d="M110.825 156L112.45 148.975L107 144.25L114.2 143.625L117 137L119.8 143.625L127 144.25L121.55 148.975L123.175 156L117 152.275L110.825 156Z" fill="#FFC700"/>
<path d="M132.825 156L134.45 148.975L129 144.25L136.2 143.625L139 137L141.8 143.625L149 144.25L143.55 148.975L145.175 156L139 152.275L132.825 156Z" fill="#FFC700"/>
<g clip-path="url(#clip0_283_96)">
<path d="M154.825 156L156.45 148.975L151 144.25L158.2 143.625L161 137L163.8 143.625L171 144.25L165.55 148.975L167.175 156L161 152.275L154.825 156Z" fill="#FFC700"/>
</g>
<line x1="269.5" x2="269.5" y2="196" stroke="black"/>
<g filter="url(#filter0_i_283_96)">
<path d="M83.5032 40.5455V66H78.8548L67.7805 49.979H67.5941V66H62.2124V40.5455H66.9354L77.9226 56.554H78.1463V40.5455H83.5032ZM93.3314 40.5455V66H87.9497V40.5455H93.3314ZM97.7592 66V40.5455H103.141V51.0479H114.066V40.5455H119.435V66H114.066V55.4851H103.141V66H97.7592ZM129.254 40.5455V66H123.873V40.5455H129.254ZM76.021 89.8661C75.9215 88.8635 75.4948 88.0846 74.7408 87.5295C73.9867 86.9743 72.9634 86.6967 71.6708 86.6967C70.7925 86.6967 70.0509 86.821 69.446 87.0696C68.8411 87.3099 68.3771 87.6455 68.054 88.0763C67.7391 88.5072 67.5817 88.9961 67.5817 89.543C67.5651 89.9987 67.6604 90.3964 67.8675 90.7362C68.083 91.0759 68.3771 91.37 68.75 91.6186C69.1229 91.8589 69.5537 92.0702 70.0426 92.2525C70.5315 92.4265 71.0535 92.5756 71.6087 92.6999L73.8956 93.2468C75.0059 93.4954 76.0251 93.8268 76.9531 94.2411C77.8812 94.6554 78.6849 95.165 79.3643 95.7699C80.0438 96.3748 80.57 97.0874 80.9428 97.9077C81.324 98.728 81.5187 99.6684 81.527 100.729C81.5187 102.287 81.121 103.637 80.3338 104.781C79.5549 105.916 78.428 106.799 76.9531 107.428C75.4865 108.05 73.7174 108.36 71.646 108.36C69.591 108.36 67.8013 108.046 66.2766 107.416C64.7603 106.786 63.5754 105.854 62.7219 104.619C61.8768 103.376 61.4335 101.839 61.392 100.008H66.5998C66.6578 100.862 66.9022 101.574 67.3331 102.146C67.7723 102.709 68.3564 103.136 69.0856 103.426C69.823 103.708 70.6558 103.849 71.5838 103.849C72.4953 103.849 73.2866 103.716 73.9577 103.451C74.6372 103.186 75.1634 102.817 75.5362 102.345C75.9091 101.873 76.0955 101.33 76.0955 100.717C76.0955 100.145 75.9257 99.6643 75.5859 99.2749C75.2545 98.8854 74.7656 98.554 74.1193 98.2805C73.4813 98.0071 72.6983 97.7585 71.7702 97.5348L68.9986 96.8388C66.8525 96.3168 65.158 95.5006 63.9151 94.3903C62.6722 93.2799 62.0549 91.7843 62.0632 89.9034C62.0549 88.3622 62.4651 87.0157 63.2937 85.864C64.1306 84.7122 65.2782 83.8132 66.7365 83.1669C68.1948 82.5206 69.852 82.1974 71.7081 82.1974C73.5973 82.1974 75.2462 82.5206 76.6548 83.1669C78.0717 83.8132 79.1738 84.7122 79.9609 85.864C80.7481 87.0157 81.1541 88.3498 81.179 89.8661H76.021ZM97.29 99.8714V88.9091H102.585V108H97.5013V104.532H97.3025C96.8716 105.651 96.1549 106.55 95.1523 107.229C94.1579 107.909 92.944 108.249 91.5106 108.249C90.2345 108.249 89.1118 107.959 88.1423 107.379C87.1729 106.799 86.4147 105.974 85.8678 104.905C85.3292 103.836 85.0558 102.556 85.0475 101.065V88.9091H90.3422V100.12C90.3505 101.247 90.653 102.138 91.2496 102.792C91.8461 103.447 92.6457 103.774 93.6483 103.774C94.2864 103.774 94.883 103.629 95.4381 103.339C95.9933 103.041 96.4407 102.602 96.7805 102.022C97.1285 101.442 97.2983 100.725 97.29 99.8714ZM106.82 108V88.9091H111.866V92.2773H112.09C112.488 91.1587 113.15 90.2763 114.078 89.63C115.007 88.9837 116.117 88.6605 117.409 88.6605C118.719 88.6605 119.833 88.9878 120.753 89.6424C121.673 90.2887 122.286 91.167 122.592 92.2773H122.791C123.181 91.1836 123.885 90.3094 124.904 89.6548C125.932 88.992 127.145 88.6605 128.546 88.6605C130.327 88.6605 131.773 89.2281 132.884 90.3633C134.002 91.4902 134.561 93.0894 134.561 95.1609V108H129.279V96.2049C129.279 95.1443 128.997 94.3488 128.434 93.8185C127.871 93.2882 127.166 93.0231 126.321 93.0231C125.36 93.0231 124.61 93.3297 124.071 93.9428C123.533 94.5477 123.263 95.3473 123.263 96.3416V108H118.13V96.093C118.13 95.1567 117.861 94.411 117.322 93.8558C116.792 93.3007 116.092 93.0231 115.222 93.0231C114.634 93.0231 114.103 93.1722 113.631 93.4705C113.167 93.7605 112.798 94.1707 112.525 94.701C112.251 95.223 112.115 95.8362 112.115 96.5405V108H106.82ZM138.843 108V82.5455H144.138V92.1158H144.3C144.532 91.602 144.867 91.08 145.306 90.5497C145.754 90.0111 146.334 89.5637 147.046 89.2074C147.767 88.8428 148.662 88.6605 149.731 88.6605C151.123 88.6605 152.407 89.0251 153.584 89.7543C154.761 90.4751 155.701 91.5647 156.405 93.0231C157.11 94.4731 157.462 96.2919 157.462 98.4794C157.462 100.609 157.118 102.407 156.43 103.874C155.751 105.332 154.823 106.438 153.646 107.192C152.478 107.938 151.169 108.311 149.719 108.311C148.691 108.311 147.817 108.141 147.096 107.801C146.383 107.461 145.799 107.035 145.344 106.521C144.888 105.999 144.54 105.473 144.3 104.942H144.063V108H138.843ZM144.026 98.4545C144.026 99.5897 144.184 100.58 144.498 101.425C144.813 102.27 145.269 102.929 145.866 103.401C146.462 103.865 147.187 104.097 148.041 104.097C148.902 104.097 149.632 103.861 150.228 103.389C150.825 102.908 151.276 102.245 151.583 101.4C151.898 100.547 152.055 99.5649 152.055 98.4545C152.055 97.3525 151.902 96.383 151.595 95.5462C151.289 94.7093 150.837 94.0547 150.241 93.5824C149.644 93.1101 148.911 92.8739 148.041 92.8739C147.179 92.8739 146.45 93.1018 145.853 93.5575C145.265 94.0133 144.813 94.6596 144.498 95.4964C144.184 96.3333 144.026 97.3194 144.026 98.4545ZM166.439 108.36C165.221 108.36 164.135 108.149 163.182 107.727C162.229 107.296 161.475 106.662 160.92 105.825C160.373 104.98 160.1 103.927 160.1 102.668C160.1 101.607 160.295 100.717 160.684 99.9957C161.073 99.2749 161.604 98.6948 162.275 98.2557C162.946 97.8165 163.708 97.4851 164.562 97.2614C165.424 97.0376 166.327 96.8802 167.271 96.7891C168.382 96.6731 169.277 96.5653 169.956 96.4659C170.636 96.3582 171.129 96.2008 171.435 95.9936C171.742 95.7865 171.895 95.4799 171.895 95.0739V94.9993C171.895 94.2121 171.646 93.6031 171.149 93.1722C170.66 92.7414 169.964 92.5259 169.061 92.5259C168.108 92.5259 167.35 92.7372 166.787 93.1598C166.223 93.5741 165.85 94.0961 165.668 94.7259L160.771 94.3281C161.02 93.1681 161.508 92.1655 162.238 91.3203C162.967 90.4669 163.907 89.8123 165.059 89.3565C166.219 88.8925 167.561 88.6605 169.086 88.6605C170.147 88.6605 171.162 88.7848 172.131 89.0334C173.109 89.282 173.975 89.6673 174.729 90.1893C175.491 90.7113 176.092 91.3825 176.531 92.2028C176.97 93.0148 177.19 93.9884 177.19 95.1236V108H172.168V105.353H172.019C171.713 105.949 171.303 106.475 170.789 106.931C170.275 107.379 169.658 107.731 168.937 107.988C168.216 108.236 167.383 108.36 166.439 108.36ZM167.955 104.706C168.734 104.706 169.422 104.553 170.018 104.246C170.615 103.932 171.083 103.509 171.423 102.979C171.762 102.448 171.932 101.848 171.932 101.176V99.1506C171.767 99.2583 171.539 99.3577 171.249 99.4489C170.967 99.5317 170.648 99.6104 170.292 99.685C169.935 99.7513 169.579 99.8134 169.223 99.8714C168.866 99.9212 168.543 99.9667 168.253 100.008C167.632 100.099 167.089 100.244 166.625 100.443C166.161 100.642 165.801 100.911 165.544 101.251C165.287 101.583 165.158 101.997 165.158 102.494C165.158 103.215 165.419 103.766 165.941 104.147C166.472 104.52 167.143 104.706 167.955 104.706Z" fill="black" fill-opacity="0.7"/>
</g>
<path d="M329 67C328.358 67 327.816 66.7583 327.373 66.275C326.93 65.7917 326.708 65.2 326.708 64.5C326.708 63.8 326.93 63.2083 327.373 62.725C327.816 62.2417 328.358 62 329 62C329.642 62 330.184 62.2417 330.627 62.725C331.07 63.2083 331.292 63.8 331.292 64.5C331.292 65.2 331.07 65.7917 330.627 66.275C330.184 66.7583 329.642 67 329 67ZM323.821 61.35L321.896 59.2C322.797 58.2167 323.855 57.4377 325.07 56.863C326.285 56.2883 327.595 56.0007 329 56C330.406 56 331.716 56.2917 332.931 56.875C334.146 57.4583 335.203 58.25 336.104 59.25L334.179 61.35C333.507 60.6167 332.728 60.0417 331.842 59.625C330.956 59.2083 330.008 59 329 59C327.992 59 327.044 59.2083 326.158 59.625C325.272 60.0417 324.493 60.6167 323.821 61.35ZM319.925 57.1L318 55C319.406 53.4333 321.048 52.2083 322.927 51.325C324.806 50.4417 326.831 50 329 50C331.169 50 333.194 50.4417 335.073 51.325C336.952 52.2083 338.594 53.4333 340 55L338.075 57.1C336.899 55.8167 335.535 54.8127 333.985 54.088C332.434 53.3633 330.773 53.0007 329 53C327.228 53 325.566 53.3627 324.016 54.088C322.466 54.8133 321.102 55.8173 319.925 57.1Z" fill="black" fill-opacity="0.7"/>
<path d="M534.042 86.75C534.042 86.4185 534.162 86.1005 534.377 85.8661C534.592 85.6317 534.883 85.5 535.187 85.5C535.491 85.5 535.783 85.6317 535.998 85.8661C536.213 86.1005 536.333 86.4185 536.333 86.75V93.036C536.77 93.081 537.23 93.169 537.708 93.31V92H543.667V95.5C544.13 95.4918 544.592 95.4247 545.042 95.3V86.75C545.042 86.0207 544.776 85.3212 544.303 84.8055C543.83 84.2897 543.189 84 542.521 84C541.852 84 541.211 84.2897 540.738 84.8055C540.265 85.3212 540 86.0207 540 86.75V87.25C540 87.4489 540.072 87.6397 540.201 87.7803C540.33 87.921 540.505 88 540.687 88C540.87 88 541.045 87.921 541.174 87.7803C541.302 87.6397 541.375 87.4489 541.375 87.25V86.75C541.375 86.4185 541.496 86.1005 541.71 85.8661C541.925 85.6317 542.217 85.5 542.521 85.5C542.825 85.5 543.116 85.6317 543.331 85.8661C543.546 86.1005 543.667 86.4185 543.667 86.75V90.5H537.708V86.75C537.708 86.0207 537.443 85.3212 536.97 84.8055C536.497 84.2897 535.856 84 535.187 84C534.519 84 533.878 84.2897 533.405 84.8055C532.932 85.3212 532.667 86.0207 532.667 86.75V87.25C532.667 87.4489 532.739 87.6397 532.868 87.7803C532.997 87.921 533.172 88 533.354 88C533.536 88 533.711 87.921 533.84 87.7803C533.969 87.6397 534.042 87.4489 534.042 87.25V86.75ZM532.923 96.526C532.794 96.6633 532.621 96.7398 532.44 96.739C532.26 96.7382 532.087 96.6601 531.959 96.5216C531.831 96.3831 531.758 96.1952 531.756 95.9985C531.754 95.8018 531.822 95.612 531.947 95.47H531.948V95.469L531.951 95.467L531.954 95.462L531.965 95.451C532.012 95.4004 532.061 95.3523 532.112 95.307C532.243 95.188 532.381 95.0774 532.524 94.976C533.002 94.6378 533.525 94.3837 534.075 94.223C535.447 93.817 537.378 93.847 539.759 95.331C541.873 96.648 543.731 96.641 545.054 96.323C545.598 96.1932 546.126 95.9918 546.626 95.723C546.809 95.6234 546.987 95.5123 547.158 95.39L547.159 95.389L547.161 95.388C547.309 95.2749 547.492 95.2299 547.67 95.2627C547.848 95.2955 548.007 95.4035 548.113 95.5632C548.218 95.723 548.262 95.9217 548.235 96.1165C548.207 96.3113 548.111 96.4864 547.966 96.604H547.965L547.963 96.606L547.958 96.609L547.946 96.619C547.885 96.6656 547.824 96.7097 547.76 96.751C547.591 96.8645 547.416 96.9696 547.238 97.066C546.638 97.3895 546.004 97.6319 545.35 97.788C543.744 98.174 541.529 98.161 539.077 96.633C536.997 95.337 535.438 95.373 534.435 95.67C534.024 95.7894 533.634 95.9784 533.277 96.23C533.157 96.3159 533.042 96.4112 532.934 96.515L532.923 96.526ZM531.955 100.531C532.085 100.67 532.259 100.747 532.441 100.746C532.622 100.745 532.796 100.666 532.924 100.526L532.934 100.516C532.946 100.504 532.966 100.483 532.996 100.456C533.055 100.402 533.15 100.322 533.277 100.23C533.534 100.047 533.922 99.822 534.435 99.67C535.439 99.374 536.997 99.337 539.077 100.633C541.529 102.161 543.743 102.174 545.35 101.788C546.004 101.632 546.639 101.389 547.239 101.066C547.468 100.941 547.69 100.803 547.904 100.65L547.946 100.62L547.958 100.61L547.963 100.606L547.965 100.605L547.966 100.604C548.111 100.486 548.207 100.311 548.235 100.116C548.262 99.9217 548.218 99.723 548.113 99.5632C548.007 99.4035 547.848 99.2955 547.67 99.2627C547.492 99.2299 547.309 99.2749 547.161 99.388H547.159L547.158 99.39C546.987 99.5123 546.809 99.6234 546.626 99.723C546.259 99.922 545.722 100.163 545.054 100.323C543.731 100.642 541.874 100.648 539.759 99.331C537.378 97.847 535.447 97.817 534.075 98.223C533.4 98.423 532.879 98.722 532.524 98.976C532.339 99.1079 532.164 99.255 531.999 99.416C531.988 99.4275 531.976 99.4392 531.965 99.451L531.954 99.462L531.951 99.467L531.949 99.469L531.947 99.47C531.819 99.6118 531.748 99.8031 531.75 100.002C531.752 100.201 531.825 100.392 531.955 100.531Z" fill="black" fill-opacity="0.7"/>
<path d="M329 94.0005C329.538 94.0004 330.065 94.1793 330.511 94.514C330.957 94.8488 331.303 95.3242 331.504 95.8791C331.706 96.434 331.753 97.0431 331.64 97.6282C331.528 98.2132 331.26 98.7474 330.872 99.1622L329.153 100.999H331.7V102.999H326.3L326.299 101.275L329.624 97.7203C329.731 97.6057 329.811 97.4634 329.857 97.306C329.902 97.1487 329.912 96.9812 329.885 96.8186C329.858 96.656 329.796 96.5034 329.703 96.3743C329.61 96.2453 329.489 96.1439 329.352 96.0792C329.215 96.0145 329.066 95.9885 328.918 96.0036C328.77 96.0187 328.627 96.0743 328.503 96.1656C328.379 96.2569 328.277 96.3809 328.207 96.5265C328.137 96.6722 328.1 96.835 328.1 97.0003H326.3C326.3 96.2047 326.584 95.4417 327.091 94.8791C327.597 94.3165 328.284 94.0005 329 94.0005ZM334.4 94.0005V98.0003H336.2V94.0005H338V103H336.2V100H332.6V94.0005H334.4ZM321.8 93.0005C321.799 94.2 322.041 95.3844 322.508 96.4657C322.976 97.547 323.657 98.4973 324.5 99.2462V101.662C323.131 100.785 321.995 99.5221 321.205 98.0015C320.415 96.481 319.999 94.7562 320 93.0005H321.8ZM329 83.001C333.667 83.001 337.504 86.9468 337.955 92.0006H336.144C335.961 90.3881 335.341 88.8757 334.365 87.6647C333.39 86.4537 332.106 85.6015 330.683 85.2215C329.261 84.8415 327.769 84.9517 326.404 85.5375C325.04 86.1233 323.868 87.1569 323.046 88.5007H325.4V90.5006H320V84.5009H321.8V86.9998C322.638 85.757 323.724 84.7484 324.974 84.0541C326.224 83.3598 327.603 82.9998 329 83.001Z" fill="black" fill-opacity="0.7"/>
<path d="M548.319 48H531.986C530.697 48 529.652 49.1442 529.652 50.5556V68.4444C529.652 69.8558 530.697 71 531.986 71H548.319C549.608 71 550.652 69.8558 550.652 68.4444V50.5556C550.652 49.1442 549.608 48 548.319 48Z" stroke="black" stroke-opacity="0.7" stroke-width="2" stroke-linecap="round" stroke-linejoin="round"/>
<path d="M536.652 65.8891V53.1113H541.319C542.247 53.1113 543.138 53.5152 543.794 54.2341C544.45 54.953 544.819 55.928 544.819 56.9447C544.819 57.9613 544.45 58.9363 543.794 59.6552C543.138 60.3741 542.247 60.778 541.319 60.778H536.652" stroke="black" stroke-opacity="0.7" stroke-width="2" stroke-linecap="round" stroke-linejoin="round"/>
<path d="M357.177 64L354.263 53.8182H356.615L358.3 60.8928H358.385L360.244 53.8182H362.258L364.112 60.9077H364.202L365.887 53.8182H368.239L365.325 64H363.227L361.288 57.343H361.209L359.275 64H357.177ZM369.351 64V56.3636H371.469V64H369.351ZM370.415 55.3793C370.1 55.3793 369.83 55.2749 369.605 55.0661C369.383 54.8539 369.271 54.6004 369.271 54.3054C369.271 54.0137 369.383 53.7635 369.605 53.5547C369.83 53.3426 370.1 53.2365 370.415 53.2365C370.73 53.2365 370.998 53.3426 371.22 53.5547C371.446 53.7635 371.558 54.0137 371.558 54.3054C371.558 54.6004 371.446 54.8539 371.22 55.0661C370.998 55.2749 370.73 55.3793 370.415 55.3793ZM373.205 64V53.8182H379.947V55.593H375.358V58.0192H379.499V59.794H375.358V64H373.205ZM381.355 64V56.3636H383.473V64H381.355ZM382.419 55.3793C382.104 55.3793 381.834 55.2749 381.608 55.0661C381.386 54.8539 381.275 54.6004 381.275 54.3054C381.275 54.0137 381.386 53.7635 381.608 53.5547C381.834 53.3426 382.104 53.2365 382.419 53.2365C382.734 53.2365 383.002 53.3426 383.224 53.5547C383.45 53.7635 383.562 54.0137 383.562 54.3054C383.562 54.6004 383.45 54.8539 383.224 55.0661C383.002 55.2749 382.734 55.3793 382.419 55.3793Z" fill="black" fill-opacity="0.7"/>
<path d="M354.885 99V88.8182H358.902C359.671 88.8182 360.327 88.9557 360.871 89.2308C361.418 89.5026 361.834 89.8887 362.119 90.3892C362.407 90.8864 362.551 91.4714 362.551 92.1442C362.551 92.8203 362.405 93.402 362.114 93.8892C361.822 94.3731 361.399 94.7443 360.846 95.0028C360.296 95.2614 359.629 95.3906 358.847 95.3906H356.158V93.6605H358.499C358.91 93.6605 359.252 93.6042 359.523 93.4915C359.795 93.3788 359.997 93.2098 360.13 92.9844C360.266 92.759 360.334 92.4789 360.334 92.1442C360.334 91.8061 360.266 91.5211 360.13 91.2891C359.997 91.0571 359.794 90.8814 359.518 90.7621C359.247 90.6394 358.904 90.5781 358.489 90.5781H357.038V99H354.885ZM360.384 94.3665L362.914 99H360.538L358.062 94.3665H360.384ZM367.39 99.1491C366.604 99.1491 365.928 98.9901 365.361 98.6719C364.798 98.3504 364.364 97.8963 364.059 97.3097C363.754 96.7197 363.601 96.022 363.601 95.2166C363.601 94.4311 363.754 93.7417 364.059 93.1484C364.364 92.5552 364.793 92.0928 365.346 91.7614C365.903 91.4299 366.556 91.2642 367.305 91.2642C367.809 91.2642 368.278 91.3454 368.712 91.5078C369.15 91.6669 369.531 91.9072 369.856 92.2287C370.184 92.5502 370.439 92.9545 370.621 93.4418C370.804 93.9257 370.895 94.4924 370.895 95.142V95.7237H364.447V94.4112H368.901C368.901 94.1063 368.835 93.8362 368.702 93.6009C368.57 93.3655 368.386 93.1816 368.15 93.049C367.918 92.9131 367.648 92.8452 367.34 92.8452C367.019 92.8452 366.733 92.9197 366.485 93.0689C366.24 93.2147 366.047 93.4119 365.908 93.6605C365.769 93.9058 365.698 94.1792 365.694 94.4808V95.7287C365.694 96.1065 365.764 96.433 365.903 96.7081C366.046 96.9832 366.246 97.1953 366.505 97.3445C366.763 97.4936 367.07 97.5682 367.425 97.5682C367.66 97.5682 367.875 97.535 368.071 97.4688C368.266 97.4025 368.434 97.303 368.573 97.1705C368.712 97.0379 368.818 96.8755 368.891 96.6832L370.85 96.8125C370.751 97.2831 370.547 97.6941 370.238 98.0455C369.934 98.3935 369.539 98.6652 369.055 98.8608C368.575 99.053 368.019 99.1491 367.39 99.1491ZM375.727 99.1491C374.945 99.1491 374.272 98.9834 373.709 98.652C373.148 98.3172 372.718 97.8532 372.416 97.2599C372.118 96.6667 371.969 95.9839 371.969 95.2116C371.969 94.4295 372.119 93.7434 372.421 93.1534C372.726 92.5601 373.158 92.0978 373.719 91.7663C374.279 91.4316 374.945 91.2642 375.717 91.2642C376.383 91.2642 376.967 91.3852 377.467 91.6271C377.968 91.8691 378.364 92.2088 378.655 92.6463C378.947 93.0838 379.108 93.5975 379.138 94.1875H377.139C377.083 93.8063 376.934 93.4998 376.692 93.2678C376.453 93.0324 376.14 92.9148 375.752 92.9148C375.424 92.9148 375.137 93.0043 374.892 93.1832C374.65 93.3589 374.461 93.6158 374.325 93.9538C374.189 94.2919 374.121 94.7012 374.121 95.1818C374.121 95.669 374.188 96.0833 374.32 96.4247C374.456 96.7661 374.647 97.0263 374.892 97.2053C375.137 97.3842 375.424 97.4737 375.752 97.4737C375.994 97.4737 376.211 97.424 376.403 97.3246C376.599 97.2251 376.76 97.081 376.885 96.892C377.015 96.6998 377.099 96.4695 377.139 96.201H379.138C379.104 96.7843 378.945 97.2981 378.66 97.7422C378.379 98.183 377.989 98.5277 377.492 98.7763C376.995 99.0249 376.407 99.1491 375.727 99.1491ZM383.974 99.1491C383.188 99.1491 382.512 98.9901 381.945 98.6719C381.382 98.3504 380.948 97.8963 380.643 97.3097C380.338 96.7197 380.185 96.022 380.185 95.2166C380.185 94.4311 380.338 93.7417 380.643 93.1484C380.948 92.5552 381.377 92.0928 381.93 91.7614C382.487 91.4299 383.14 91.2642 383.889 91.2642C384.393 91.2642 384.862 91.3454 385.296 91.5078C385.734 91.6669 386.115 91.9072 386.44 92.2287C386.768 92.5502 387.023 92.9545 387.205 93.4418C387.388 93.9257 387.479 94.4924 387.479 95.142V95.7237H381.031V94.4112H385.485C385.485 94.1063 385.419 93.8362 385.286 93.6009C385.154 93.3655 384.97 93.1816 384.734 93.049C384.502 92.9131 384.232 92.8452 383.924 92.8452C383.603 92.8452 383.317 92.9197 383.069 93.0689C382.824 93.2147 382.631 93.4119 382.492 93.6605C382.353 93.9058 382.282 94.1792 382.278 94.4808V95.7287C382.278 96.1065 382.348 96.433 382.487 96.7081C382.63 96.9832 382.83 97.1953 383.089 97.3445C383.347 97.4936 383.654 97.5682 384.009 97.5682C384.244 97.5682 384.459 97.535 384.655 97.4688C384.85 97.4025 385.018 97.303 385.157 97.1705C385.296 97.0379 385.402 96.8755 385.475 96.6832L387.434 96.8125C387.335 97.2831 387.131 97.6941 386.822 98.0455C386.518 98.3935 386.123 98.6652 385.639 98.8608C385.159 99.053 384.603 99.1491 383.974 99.1491ZM388.861 101.864V91.3636H390.949V92.6463H391.043C391.136 92.4408 391.27 92.232 391.446 92.0199C391.625 91.8045 391.857 91.6255 392.142 91.483C392.43 91.3371 392.788 91.2642 393.216 91.2642C393.773 91.2642 394.286 91.41 394.757 91.7017C395.228 91.9901 395.604 92.4259 395.886 93.0092C396.167 93.5893 396.308 94.3168 396.308 95.1918C396.308 96.0436 396.171 96.7628 395.896 97.3494C395.624 97.9328 395.253 98.3752 394.782 98.6768C394.315 98.9751 393.791 99.1243 393.211 99.1243C392.8 99.1243 392.45 99.0563 392.162 98.9205C391.877 98.7846 391.643 98.6139 391.461 98.4084C391.279 98.1996 391.139 97.9891 391.043 97.777H390.979V101.864H388.861ZM390.934 95.1818C390.934 95.6359 390.997 96.032 391.123 96.37C391.249 96.7081 391.431 96.9716 391.67 97.1605C391.908 97.3461 392.198 97.4389 392.54 97.4389C392.884 97.4389 393.176 97.3445 393.415 97.1555C393.653 96.9633 393.834 96.6982 393.957 96.3601C394.083 96.0187 394.146 95.6259 394.146 95.1818C394.146 94.741 394.084 94.3532 393.962 94.0185C393.839 93.6837 393.658 93.4219 393.42 93.233C393.181 93.044 392.888 92.9496 392.54 92.9496C392.195 92.9496 391.903 93.0407 391.665 93.223C391.429 93.4053 391.249 93.6638 391.123 93.9986C390.997 94.3333 390.934 94.7277 390.934 95.1818ZM401.782 91.3636V92.9545H397.183V91.3636H401.782ZM398.227 89.5341H400.345V96.6534C400.345 96.849 400.375 97.0014 400.435 97.1108C400.494 97.2169 400.577 97.2914 400.683 97.3345C400.793 97.3776 400.919 97.3991 401.061 97.3991C401.161 97.3991 401.26 97.3909 401.359 97.3743C401.459 97.3544 401.535 97.3395 401.588 97.3295L401.921 98.9055C401.815 98.9387 401.666 98.9768 401.474 99.0199C401.281 99.0663 401.048 99.0945 400.773 99.1044C400.262 99.1243 399.815 99.0563 399.43 98.9006C399.049 98.7448 398.753 98.5028 398.54 98.1747C398.328 97.8466 398.224 97.4323 398.227 96.9318V89.5341ZM403.162 99V91.3636H405.279V99H403.162ZM404.225 90.3793C403.911 90.3793 403.641 90.2749 403.415 90.0661C403.193 89.8539 403.082 89.6004 403.082 89.3054C403.082 89.0137 403.193 88.7635 403.415 88.5547C403.641 88.3426 403.911 88.2365 404.225 88.2365C404.54 88.2365 404.809 88.3426 405.031 88.5547C405.256 88.7635 405.369 89.0137 405.369 89.3054C405.369 89.6004 405.256 89.8539 405.031 90.0661C404.809 90.2749 404.54 90.3793 404.225 90.3793ZM410.426 99.1491C409.654 99.1491 408.986 98.9851 408.423 98.657C407.863 98.3255 407.43 97.8648 407.125 97.2749C406.82 96.6816 406.668 95.9938 406.668 95.2116C406.668 94.4228 406.82 93.7334 407.125 93.1435C407.43 92.5502 407.863 92.0895 408.423 91.7614C408.986 91.4299 409.654 91.2642 410.426 91.2642C411.199 91.2642 411.865 91.4299 412.425 91.7614C412.988 92.0895 413.423 92.5502 413.727 93.1435C414.032 93.7334 414.185 94.4228 414.185 95.2116C414.185 95.9938 414.032 96.6816 413.727 97.2749C413.423 97.8648 412.988 98.3255 412.425 98.657C411.865 98.9851 411.199 99.1491 410.426 99.1491ZM410.436 97.5085C410.788 97.5085 411.081 97.4091 411.316 97.2102C411.552 97.008 411.729 96.733 411.848 96.3849C411.971 96.0369 412.032 95.6409 412.032 95.1967C412.032 94.7526 411.971 94.3565 411.848 94.0085C411.729 93.6605 411.552 93.3854 411.316 93.1832C411.081 92.9811 410.788 92.88 410.436 92.88C410.082 92.88 409.783 92.9811 409.541 93.1832C409.303 93.3854 409.122 93.6605 408.999 94.0085C408.88 94.3565 408.82 94.7526 408.82 95.1967C408.82 95.6409 408.88 96.0369 408.999 96.3849C409.122 96.733 409.303 97.008 409.541 97.2102C409.783 97.4091 410.082 97.5085 410.436 97.5085ZM417.68 94.5852V99H415.562V91.3636H417.58V92.7109H417.67C417.839 92.2668 418.122 91.9155 418.52 91.657C418.918 91.3951 419.4 91.2642 419.967 91.2642C420.497 91.2642 420.959 91.3802 421.354 91.6122C421.748 91.8442 422.055 92.1757 422.274 92.6065C422.492 93.0341 422.602 93.5445 422.602 94.1378V99H420.484V94.5156C420.487 94.0483 420.368 93.6837 420.126 93.4219C419.884 93.1567 419.551 93.0241 419.127 93.0241C418.842 93.0241 418.59 93.0855 418.371 93.2081C418.155 93.3307 417.986 93.5097 417.864 93.745C417.744 93.977 417.683 94.2571 417.68 94.5852ZM424.271 99V91.3636H426.389V99H424.271ZM425.335 90.3793C425.02 90.3793 424.75 90.2749 424.525 90.0661C424.302 89.8539 424.191 89.6004 424.191 89.3054C424.191 89.0137 424.302 88.7635 424.525 88.5547C424.75 88.3426 425.02 88.2365 425.335 88.2365C425.65 88.2365 425.918 88.3426 426.14 88.5547C426.366 88.7635 426.478 89.0137 426.478 89.3054C426.478 89.6004 426.366 89.8539 426.14 90.0661C425.918 90.2749 425.65 90.3793 425.335 90.3793ZM434.439 93.5412L432.5 93.6605C432.467 93.4948 432.396 93.3456 432.286 93.2131C432.177 93.0772 432.033 92.9695 431.854 92.8899C431.678 92.8071 431.468 92.7656 431.222 92.7656C430.894 92.7656 430.618 92.8352 430.392 92.9744C430.167 93.1103 430.054 93.2926 430.054 93.5213C430.054 93.7036 430.127 93.8577 430.273 93.9837C430.419 94.1096 430.669 94.2107 431.024 94.2869L432.406 94.5653C433.148 94.7178 433.702 94.9631 434.066 95.3011C434.431 95.6392 434.613 96.0833 434.613 96.6335C434.613 97.134 434.466 97.5732 434.171 97.951C433.879 98.3288 433.478 98.6238 432.968 98.8359C432.46 99.0447 431.875 99.1491 431.213 99.1491C430.202 99.1491 429.396 98.9387 428.796 98.5178C428.2 98.0935 427.85 97.5168 427.747 96.7876L429.83 96.6783C429.893 96.9865 430.046 97.2218 430.288 97.3842C430.53 97.5433 430.84 97.6229 431.218 97.6229C431.589 97.6229 431.887 97.5516 432.112 97.4091C432.341 97.2633 432.457 97.076 432.46 96.8473C432.457 96.6551 432.376 96.4976 432.217 96.375C432.058 96.2491 431.812 96.1529 431.481 96.0866L430.159 95.8232C429.413 95.674 428.858 95.4155 428.493 95.0476C428.132 94.6797 427.951 94.2107 427.951 93.6406C427.951 93.1501 428.084 92.7275 428.349 92.3729C428.617 92.0182 428.994 91.7448 429.477 91.5526C429.965 91.3603 430.535 91.2642 431.188 91.2642C432.152 91.2642 432.911 91.468 433.465 91.8757C434.021 92.2834 434.346 92.8385 434.439 93.5412ZM440.009 91.3636V92.9545H435.41V91.3636H440.009ZM436.454 89.5341H438.572V96.6534C438.572 96.849 438.602 97.0014 438.661 97.1108C438.721 97.2169 438.804 97.2914 438.91 97.3345C439.019 97.3776 439.145 97.3991 439.288 97.3991C439.387 97.3991 439.487 97.3909 439.586 97.3743C439.685 97.3544 439.762 97.3395 439.815 97.3295L440.148 98.9055C440.042 98.9387 439.893 98.9768 439.7 99.0199C439.508 99.0663 439.274 99.0945 438.999 99.1044C438.489 99.1243 438.041 99.0563 437.657 98.9006C437.276 98.7448 436.979 98.5028 436.767 98.1747C436.555 97.8466 436.451 97.4323 436.454 96.9318V89.5341ZM444.608 99V97.4489L448.233 94.093C448.541 93.7947 448.8 93.5263 449.008 93.2876C449.22 93.049 449.381 92.8153 449.491 92.5866C449.6 92.3546 449.655 92.1044 449.655 91.8359C449.655 91.5376 449.587 91.2808 449.451 91.0653C449.315 90.8466 449.129 90.6792 448.894 90.5632C448.659 90.4439 448.392 90.3842 448.094 90.3842C447.782 90.3842 447.51 90.4472 447.278 90.5732C447.046 90.6991 446.867 90.8797 446.741 91.1151C446.615 91.3504 446.552 91.6304 446.552 91.9553H444.509C444.509 91.2891 444.66 90.7107 444.961 90.2202C445.263 89.7296 445.686 89.3501 446.229 89.0817C446.773 88.8132 447.399 88.679 448.108 88.679C448.838 88.679 449.472 88.8082 450.013 89.0668C450.556 89.322 450.979 89.6766 451.28 90.1307C451.582 90.5848 451.733 91.1051 451.733 91.6918C451.733 92.0762 451.657 92.4557 451.504 92.8303C451.355 93.2048 451.088 93.6207 450.704 94.0781C450.319 94.5322 449.777 95.0774 449.078 95.7138L447.591 97.1705V97.2401H451.867V99H444.608ZM453.054 97.2102V95.5149L457.305 88.8182H458.766V91.1648H457.901L455.222 95.4055V95.4851H461.262V97.2102H453.054ZM457.941 99V96.6932L457.981 95.9425V88.8182H459.999V99H457.941ZM465.996 99V88.8182H468.149V93.0192H472.519V88.8182H474.667V99H472.519V94.794H468.149V99H465.996ZM479.852 99.1491C479.08 99.1491 478.412 98.9851 477.849 98.657C477.288 98.3255 476.856 97.8648 476.551 97.2749C476.246 96.6816 476.094 95.9938 476.094 95.2116C476.094 94.4228 476.246 93.7334 476.551 93.1435C476.856 92.5502 477.288 92.0895 477.849 91.7614C478.412 91.4299 479.08 91.2642 479.852 91.2642C480.624 91.2642 481.291 91.4299 481.851 91.7614C482.414 92.0895 482.848 92.5502 483.153 93.1435C483.458 93.7334 483.611 94.4228 483.611 95.2116C483.611 95.9938 483.458 96.6816 483.153 97.2749C482.848 97.8648 482.414 98.3255 481.851 98.657C481.291 98.9851 480.624 99.1491 479.852 99.1491ZM479.862 97.5085C480.213 97.5085 480.507 97.4091 480.742 97.2102C480.977 97.008 481.155 96.733 481.274 96.3849C481.397 96.0369 481.458 95.6409 481.458 95.1967C481.458 94.7526 481.397 94.3565 481.274 94.0085C481.155 93.6605 480.977 93.3854 480.742 93.1832C480.507 92.9811 480.213 92.88 479.862 92.88C479.507 92.88 479.209 92.9811 478.967 93.1832C478.729 93.3854 478.548 93.6605 478.425 94.0085C478.306 94.3565 478.246 94.7526 478.246 95.1967C478.246 95.6409 478.306 96.0369 478.425 96.3849C478.548 96.733 478.729 97.008 478.967 97.2102C479.209 97.4091 479.507 97.5085 479.862 97.5085ZM489.885 95.7486V91.3636H492.003V99H489.969V97.6129H489.89C489.717 98.0604 489.431 98.42 489.03 98.6918C488.632 98.9635 488.146 99.0994 487.573 99.0994C487.063 99.0994 486.613 98.9834 486.226 98.7514C485.838 98.5194 485.535 98.1896 485.316 97.7621C485.1 97.3345 484.991 96.8224 484.988 96.2259V91.3636H487.106V95.848C487.109 96.2988 487.23 96.6551 487.469 96.9169C487.707 97.1787 488.027 97.3097 488.428 97.3097C488.683 97.3097 488.922 97.2517 489.144 97.1357C489.366 97.0163 489.545 96.8407 489.681 96.6087C489.82 96.3767 489.888 96.09 489.885 95.7486ZM493.697 99V91.3636H495.75V92.696H495.83C495.969 92.2221 496.202 91.8641 496.531 91.6222C496.859 91.3769 497.237 91.2543 497.664 91.2543C497.77 91.2543 497.884 91.2609 498.007 91.2741C498.13 91.2874 498.237 91.3056 498.33 91.3288V93.2081C498.231 93.1783 498.093 93.1518 497.918 93.1286C497.742 93.1054 497.581 93.0938 497.435 93.0938C497.124 93.0938 496.845 93.1617 496.6 93.2976C496.358 93.4302 496.166 93.6158 496.023 93.8544C495.884 94.093 495.815 94.3681 495.815 94.6797V99H493.697Z" fill="black" fill-opacity="0.7"/>
<path d="M565.885 61V50.8182H569.902C570.674 50.8182 571.332 50.9657 571.876 51.2607C572.419 51.5523 572.834 51.9583 573.119 52.4787C573.407 52.9957 573.551 53.5923 573.551 54.2685C573.551 54.9446 573.405 55.5412 573.114 56.0582C572.822 56.5753 572.399 56.978 571.846 57.2663C571.296 57.5547 570.629 57.6989 569.847 57.6989H567.287V55.9737H569.499C569.914 55.9737 570.255 55.9025 570.523 55.7599C570.795 55.6141 570.997 55.4136 571.13 55.1584C571.266 54.8999 571.334 54.6032 571.334 54.2685C571.334 53.9304 571.266 53.6354 571.13 53.3835C570.997 53.1283 570.795 52.9311 570.523 52.7919C570.252 52.6494 569.907 52.5781 569.489 52.5781H568.038V61H565.885ZM576.882 61.1442C576.395 61.1442 575.961 61.0597 575.58 60.8906C575.198 60.7183 574.897 60.4647 574.675 60.13C574.456 59.7919 574.347 59.371 574.347 58.8672C574.347 58.4429 574.424 58.0866 574.58 57.7983C574.736 57.5099 574.948 57.2779 575.217 57.1023C575.485 56.9266 575.79 56.794 576.131 56.7045C576.476 56.6151 576.837 56.5521 577.215 56.5156C577.659 56.4692 578.017 56.4261 578.289 56.3864C578.561 56.3433 578.758 56.2803 578.881 56.1974C579.003 56.1146 579.065 55.992 579.065 55.8295V55.7997C579.065 55.4848 578.965 55.2412 578.766 55.0689C578.571 54.8965 578.292 54.8104 577.931 54.8104C577.55 54.8104 577.247 54.8949 577.021 55.0639C576.796 55.2296 576.647 55.4384 576.574 55.6903L574.615 55.5312C574.714 55.0672 574.91 54.6662 575.202 54.3281C575.493 53.9867 575.87 53.7249 576.33 53.5426C576.794 53.357 577.331 53.2642 577.941 53.2642C578.365 53.2642 578.771 53.3139 579.159 53.4134C579.55 53.5128 579.897 53.6669 580.198 53.8757C580.503 54.0845 580.743 54.353 580.919 54.6811C581.095 55.0059 581.183 55.3954 581.183 55.8494V61H579.174V59.9411H579.114C578.992 60.1797 578.828 60.3902 578.622 60.5724C578.417 60.7514 578.17 60.8923 577.881 60.995C577.593 61.0945 577.26 61.1442 576.882 61.1442ZM577.489 59.6825C577.8 59.6825 578.075 59.6212 578.314 59.4986C578.553 59.3726 578.74 59.2036 578.876 58.9915C579.012 58.7794 579.08 58.5391 579.08 58.2706V57.4602C579.013 57.5033 578.922 57.5431 578.806 57.5795C578.693 57.6127 578.566 57.6442 578.423 57.674C578.281 57.7005 578.138 57.7254 577.996 57.7486C577.853 57.7685 577.724 57.7867 577.608 57.8033C577.359 57.8397 577.142 57.8977 576.957 57.9773C576.771 58.0568 576.627 58.1645 576.524 58.3004C576.421 58.433 576.37 58.5987 576.37 58.7976C576.37 59.0859 576.474 59.3063 576.683 59.4588C576.895 59.608 577.164 59.6825 577.489 59.6825ZM582.826 61V53.3636H584.879V54.696H584.958C585.098 54.2221 585.331 53.8641 585.659 53.6222C585.988 53.3769 586.365 53.2543 586.793 53.2543C586.899 53.2543 587.013 53.2609 587.136 53.2741C587.259 53.2874 587.366 53.3056 587.459 53.3288V55.2081C587.36 55.1783 587.222 55.1518 587.047 55.1286C586.871 55.1054 586.71 55.0938 586.564 55.0938C586.253 55.0938 585.974 55.1617 585.729 55.2976C585.487 55.4302 585.295 55.6158 585.152 55.8544C585.013 56.093 584.944 56.3681 584.944 56.6797V61H582.826ZM590.473 58.8026L590.478 56.2621H590.786L593.232 53.3636H595.664L592.377 57.2017H591.875L590.473 58.8026ZM588.554 61V50.8182H590.672V61H588.554ZM593.327 61L591.08 57.674L592.492 56.1776L595.808 61H593.327ZM596.703 61V53.3636H598.82V61H596.703ZM597.767 52.3793C597.452 52.3793 597.182 52.2749 596.956 52.0661C596.734 51.8539 596.623 51.6004 596.623 51.3054C596.623 51.0137 596.734 50.7635 596.956 50.5547C597.182 50.3426 597.452 50.2365 597.767 50.2365C598.081 50.2365 598.35 50.3426 598.572 50.5547C598.797 50.7635 598.91 51.0137 598.91 51.3054C598.91 51.6004 598.797 51.8539 598.572 52.0661C598.35 52.2749 598.081 52.3793 597.767 52.3793ZM602.635 56.5852V61H600.517V53.3636H602.536V54.7109H602.625C602.794 54.2668 603.077 53.9155 603.475 53.657C603.873 53.3951 604.355 53.2642 604.922 53.2642C605.452 53.2642 605.915 53.3802 606.309 53.6122C606.703 53.8442 607.01 54.1757 607.229 54.6065C607.447 55.0341 607.557 55.5445 607.557 56.1378V61H605.439V56.5156C605.442 56.0483 605.323 55.6837 605.081 55.4219C604.839 55.1567 604.506 55.0241 604.082 55.0241C603.797 55.0241 603.545 55.0855 603.326 55.2081C603.111 55.3307 602.942 55.5097 602.819 55.745C602.7 55.977 602.638 56.2571 602.635 56.5852ZM612.666 64.0227C611.98 64.0227 611.392 63.9283 610.901 63.7393C610.414 63.5537 610.026 63.3002 609.738 62.9787C609.45 62.6572 609.262 62.2959 609.176 61.8949L611.135 61.6314C611.195 61.7839 611.289 61.9264 611.419 62.0589C611.548 62.1915 611.718 62.2976 611.931 62.3771C612.146 62.46 612.408 62.5014 612.716 62.5014C613.177 62.5014 613.556 62.3887 613.855 62.1634C614.156 61.9413 614.307 61.5684 614.307 61.0447V59.6477H614.218C614.125 59.8598 613.985 60.0604 613.8 60.2493C613.614 60.4382 613.376 60.5923 613.084 60.7116C612.792 60.831 612.444 60.8906 612.04 60.8906C611.467 60.8906 610.945 60.758 610.474 60.4929C610.007 60.2244 609.634 59.8151 609.355 59.2649C609.08 58.7114 608.943 58.0121 608.943 57.1669C608.943 56.3018 609.084 55.5793 609.365 54.9993C609.647 54.4193 610.021 53.9851 610.489 53.6967C610.959 53.4084 611.475 53.2642 612.035 53.2642C612.463 53.2642 612.82 53.3371 613.109 53.483C613.397 53.6255 613.629 53.8045 613.805 54.0199C613.984 54.232 614.121 54.4408 614.218 54.6463H614.297V53.3636H616.4V61.0746C616.4 61.7242 616.241 62.2678 615.923 62.7053C615.605 63.1428 615.164 63.4709 614.6 63.6896C614.04 63.9117 613.396 64.0227 612.666 64.0227ZM612.711 59.2997C613.052 59.2997 613.341 59.2152 613.576 59.0462C613.815 58.8738 613.997 58.6286 614.123 58.3104C614.252 57.9889 614.317 57.6044 614.317 57.157C614.317 56.7095 614.254 56.3217 614.128 55.9936C614.002 55.6622 613.82 55.4053 613.581 55.223C613.343 55.0407 613.052 54.9496 612.711 54.9496C612.363 54.9496 612.07 55.044 611.831 55.233C611.593 55.4186 611.412 55.6771 611.289 56.0085C611.167 56.34 611.105 56.7228 611.105 57.157C611.105 57.5978 611.167 57.9789 611.289 58.3004C611.415 58.6186 611.596 58.8655 611.831 59.0412C612.07 59.2135 612.363 59.2997 612.711 59.2997Z" fill="black" fill-opacity="0.7"/>
<path d="M360.408 132.746C360.369 132.345 360.198 132.034 359.896 131.812C359.595 131.59 359.185 131.479 358.668 131.479C358.317 131.479 358.02 131.528 357.778 131.628C357.536 131.724 357.351 131.858 357.222 132.031C357.096 132.203 357.033 132.398 357.033 132.617C357.026 132.799 357.064 132.959 357.147 133.094C357.233 133.23 357.351 133.348 357.5 133.447C357.649 133.544 357.821 133.628 358.017 133.701C358.213 133.771 358.421 133.83 358.643 133.88L359.558 134.099C360.002 134.198 360.41 134.331 360.781 134.496C361.152 134.662 361.474 134.866 361.746 135.108C362.018 135.35 362.228 135.635 362.377 135.963C362.53 136.291 362.607 136.667 362.611 137.092C362.607 137.715 362.448 138.255 362.134 138.712C361.822 139.166 361.371 139.519 360.781 139.771C360.195 140.02 359.487 140.144 358.658 140.144C357.836 140.144 357.121 140.018 356.511 139.766C355.904 139.514 355.43 139.142 355.089 138.648C354.751 138.151 354.573 137.536 354.557 136.803H356.64C356.663 137.145 356.761 137.43 356.933 137.658C357.109 137.884 357.343 138.054 357.634 138.17C357.929 138.283 358.262 138.339 358.634 138.339C358.998 138.339 359.315 138.286 359.583 138.18C359.855 138.074 360.065 137.927 360.214 137.738C360.364 137.549 360.438 137.332 360.438 137.087C360.438 136.858 360.37 136.666 360.234 136.51C360.102 136.354 359.906 136.222 359.648 136.112C359.393 136.003 359.079 135.903 358.708 135.814L357.599 135.536C356.741 135.327 356.063 135 355.566 134.556C355.069 134.112 354.822 133.514 354.825 132.761C354.822 132.145 354.986 131.606 355.317 131.146C355.652 130.685 356.111 130.325 356.695 130.067C357.278 129.808 357.941 129.679 358.683 129.679C359.439 129.679 360.098 129.808 360.662 130.067C361.229 130.325 361.67 130.685 361.984 131.146C362.299 131.606 362.462 132.14 362.472 132.746H360.408ZM364.059 140V129.818H368.076C368.848 129.818 369.506 129.966 370.05 130.261C370.593 130.552 371.007 130.958 371.292 131.479C371.581 131.996 371.725 132.592 371.725 133.268C371.725 133.945 371.579 134.541 371.287 135.058C370.996 135.575 370.573 135.978 370.02 136.266C369.47 136.555 368.803 136.699 368.021 136.699H365.461V134.974H367.673C368.087 134.974 368.429 134.902 368.697 134.76C368.969 134.614 369.171 134.414 369.304 134.158C369.44 133.9 369.508 133.603 369.508 133.268C369.508 132.93 369.44 132.635 369.304 132.384C369.171 132.128 368.969 131.931 368.697 131.792C368.425 131.649 368.081 131.578 367.663 131.578H366.211V140H364.059ZM373.702 140H371.396L374.911 129.818H377.685L381.195 140H378.888L376.337 132.145H376.258L373.702 140ZM373.558 135.998H379.007V137.678H373.558V135.998Z" fill="black" fill-opacity="0.7"/>
<path d="M571.408 90.7464C571.369 90.3454 571.198 90.0339 570.896 89.8118C570.595 89.5897 570.185 89.4787 569.668 89.4787C569.317 89.4787 569.02 89.5284 568.778 89.6278C568.536 89.724 568.351 89.8582 568.222 90.0305C568.096 90.2029 568.033 90.3984 568.033 90.6172C568.026 90.7995 568.064 90.9586 568.147 91.0945C568.233 91.2304 568.351 91.348 568.5 91.4474C568.649 91.5436 568.821 91.6281 569.017 91.701C569.213 91.7706 569.421 91.8303 569.643 91.88L570.558 92.0987C571.002 92.1982 571.41 92.3307 571.781 92.4964C572.152 92.6622 572.474 92.866 572.746 93.108C573.018 93.3499 573.228 93.6349 573.377 93.9631C573.53 94.2912 573.607 94.6674 573.611 95.0916C573.607 95.7147 573.448 96.255 573.134 96.7124C572.822 97.1664 572.371 97.5194 571.781 97.7713C571.195 98.0199 570.487 98.1442 569.658 98.1442C568.836 98.1442 568.121 98.0182 567.511 97.7663C566.904 97.5144 566.43 97.1416 566.089 96.6477C565.751 96.1506 565.573 95.5357 565.557 94.8033H567.64C567.663 95.1446 567.761 95.4297 567.933 95.6584C568.109 95.8838 568.343 96.0545 568.634 96.1705C568.929 96.2831 569.262 96.3395 569.634 96.3395C569.998 96.3395 570.315 96.2865 570.583 96.1804C570.855 96.0743 571.065 95.9268 571.214 95.7379C571.364 95.549 571.438 95.3319 571.438 95.0866C571.438 94.858 571.37 94.6657 571.234 94.5099C571.102 94.3542 570.906 94.2216 570.648 94.1122C570.393 94.0028 570.079 93.9034 569.708 93.8139L568.599 93.5355C567.741 93.3267 567.063 93.0002 566.566 92.5561C566.069 92.112 565.822 91.5137 565.825 90.7614C565.822 90.1449 565.986 89.6063 566.317 89.1456C566.652 88.6849 567.111 88.3253 567.695 88.0668C568.278 87.8082 568.941 87.679 569.683 87.679C570.439 87.679 571.098 87.8082 571.662 88.0668C572.229 88.3253 572.67 88.6849 572.984 89.1456C573.299 89.6063 573.462 90.1399 573.472 90.7464H571.408ZM576.525 98L574.447 90.3636H576.59L577.773 95.4943H577.843L579.076 90.3636H581.179L582.432 95.4645H582.496L583.66 90.3636H585.797L583.724 98H581.482L580.17 93.1974H580.075L578.763 98H576.525ZM586.927 98V90.3636H589.045V98H586.927ZM587.991 89.3793C587.676 89.3793 587.406 89.2749 587.181 89.0661C586.959 88.8539 586.848 88.6004 586.848 88.3054C586.848 88.0137 586.959 87.7635 587.181 87.5547C587.406 87.3426 587.676 87.2365 587.991 87.2365C588.306 87.2365 588.574 87.3426 588.797 87.5547C589.022 87.7635 589.135 88.0137 589.135 88.3054C589.135 88.6004 589.022 88.8539 588.797 89.0661C588.574 89.2749 588.306 89.3793 587.991 89.3793ZM590.742 98V90.3636H592.76V91.7109H592.85C593.009 91.2635 593.274 90.9105 593.645 90.652C594.016 90.3935 594.46 90.2642 594.977 90.2642C595.501 90.2642 595.947 90.3951 596.315 90.657C596.683 90.9155 596.928 91.2668 597.051 91.7109H597.13C597.286 91.2734 597.568 90.9238 597.975 90.6619C598.386 90.3968 598.872 90.2642 599.432 90.2642C600.145 90.2642 600.723 90.4912 601.167 90.9453C601.615 91.3961 601.838 92.0357 601.838 92.8643V98H599.725V93.282C599.725 92.8577 599.613 92.5395 599.387 92.3274C599.162 92.1153 598.88 92.0092 598.542 92.0092C598.158 92.0092 597.858 92.1319 597.642 92.3771C597.427 92.6191 597.319 92.9389 597.319 93.3366V98H595.266V93.2372C595.266 92.8627 595.158 92.5644 594.943 92.3423C594.731 92.1203 594.45 92.0092 594.102 92.0092C593.867 92.0092 593.655 92.0689 593.466 92.1882C593.28 92.3042 593.133 92.4683 593.024 92.6804C592.914 92.8892 592.86 93.1345 592.86 93.4162V98H590.742ZM603.511 98V90.3636H605.53V91.7109H605.619C605.778 91.2635 606.043 90.9105 606.415 90.652C606.786 90.3935 607.23 90.2642 607.747 90.2642C608.271 90.2642 608.716 90.3951 609.084 90.657C609.452 90.9155 609.698 91.2668 609.82 91.7109H609.9C610.055 91.2734 610.337 90.9238 610.745 90.6619C611.156 90.3968 611.641 90.2642 612.202 90.2642C612.914 90.2642 613.492 90.4912 613.937 90.9453C614.384 91.3961 614.608 92.0357 614.608 92.8643V98H612.495V93.282C612.495 92.8577 612.382 92.5395 612.157 92.3274C611.931 92.1153 611.65 92.0092 611.312 92.0092C610.927 92.0092 610.627 92.1319 610.412 92.3771C610.196 92.6191 610.089 92.9389 610.089 93.3366V98H608.035V93.2372C608.035 92.8627 607.928 92.5644 607.712 92.3423C607.5 92.1203 607.22 92.0092 606.872 92.0092C606.637 92.0092 606.425 92.0689 606.236 92.1882C606.05 92.3042 605.903 92.4683 605.793 92.6804C605.684 92.8892 605.629 93.1345 605.629 93.4162V98H603.511ZM616.281 98V90.3636H618.399V98H616.281ZM617.345 89.3793C617.03 89.3793 616.76 89.2749 616.534 89.0661C616.312 88.8539 616.201 88.6004 616.201 88.3054C616.201 88.0137 616.312 87.7635 616.534 87.5547C616.76 87.3426 617.03 87.2365 617.345 87.2365C617.66 87.2365 617.928 87.3426 618.15 87.5547C618.375 87.7635 618.488 88.0137 618.488 88.3054C618.488 88.6004 618.375 88.8539 618.15 89.0661C617.928 89.2749 617.66 89.3793 617.345 89.3793ZM622.213 93.5852V98H620.095V90.3636H622.114V91.7109H622.203C622.372 91.2668 622.656 90.9155 623.053 90.657C623.451 90.3951 623.933 90.2642 624.5 90.2642C625.03 90.2642 625.493 90.3802 625.887 90.6122C626.281 90.8442 626.588 91.1757 626.807 91.6065C627.026 92.0341 627.135 92.5445 627.135 93.1378V98H625.017V93.5156C625.02 93.0483 624.901 92.6837 624.659 92.4219C624.417 92.1567 624.084 92.0241 623.66 92.0241C623.375 92.0241 623.123 92.0855 622.904 92.2081C622.689 92.3307 622.52 92.5097 622.397 92.745C622.278 92.977 622.216 93.2571 622.213 93.5852ZM632.244 101.023C631.558 101.023 630.97 100.928 630.48 100.739C629.992 100.554 629.605 100.3 629.316 99.9787C629.028 99.6572 628.841 99.2959 628.754 98.8949L630.713 98.6314C630.773 98.7839 630.867 98.9264 630.997 99.0589C631.126 99.1915 631.297 99.2976 631.509 99.3771C631.724 99.46 631.986 99.5014 632.294 99.5014C632.755 99.5014 633.134 99.3887 633.433 99.1634C633.734 98.9413 633.885 98.5684 633.885 98.0447V96.6477H633.796C633.703 96.8598 633.564 97.0604 633.378 97.2493C633.192 97.4382 632.954 97.5923 632.662 97.7116C632.37 97.831 632.022 97.8906 631.618 97.8906C631.045 97.8906 630.523 97.758 630.052 97.4929C629.585 97.2244 629.212 96.8151 628.933 96.2649C628.658 95.7114 628.521 95.0121 628.521 94.1669C628.521 93.3018 628.662 92.5793 628.943 91.9993C629.225 91.4193 629.6 90.9851 630.067 90.6967C630.538 90.4084 631.053 90.2642 631.613 90.2642C632.041 90.2642 632.399 90.3371 632.687 90.483C632.975 90.6255 633.207 90.8045 633.383 91.0199C633.562 91.232 633.7 91.4408 633.796 91.6463H633.875V90.3636H635.978V98.0746C635.978 98.7242 635.819 99.2678 635.501 99.7053C635.183 100.143 634.742 100.471 634.178 100.69C633.618 100.912 632.974 101.023 632.244 101.023ZM632.289 96.2997C632.631 96.2997 632.919 96.2152 633.154 96.0462C633.393 95.8738 633.575 95.6286 633.701 95.3104C633.83 94.9889 633.895 94.6044 633.895 94.157C633.895 93.7095 633.832 93.3217 633.706 92.9936C633.58 92.6622 633.398 92.4053 633.159 92.223C632.921 92.0407 632.631 91.9496 632.289 91.9496C631.941 91.9496 631.648 92.044 631.409 92.233C631.171 92.4186 630.99 92.6771 630.867 93.0085C630.745 93.34 630.683 93.7228 630.683 94.157C630.683 94.5978 630.745 94.9789 630.867 95.3004C630.993 95.6186 631.174 95.8655 631.409 96.0412C631.648 96.2135 631.941 96.2997 632.289 96.2997ZM640.944 98V87.8182H644.961C645.733 87.8182 646.391 87.9657 646.934 88.2607C647.478 88.5523 647.892 88.9583 648.177 89.4787C648.466 89.9957 648.61 90.5923 648.61 91.2685C648.61 91.9446 648.464 92.5412 648.172 93.0582C647.881 93.5753 647.458 93.978 646.904 94.2663C646.354 94.5547 645.688 94.6989 644.906 94.6989H642.346V92.9737H644.558C644.972 92.9737 645.314 92.9025 645.582 92.7599C645.854 92.6141 646.056 92.4136 646.189 92.1584C646.324 91.8999 646.392 91.6032 646.392 91.2685C646.392 90.9304 646.324 90.6354 646.189 90.3835C646.056 90.1283 645.854 89.9311 645.582 89.7919C645.31 89.6494 644.966 89.5781 644.548 89.5781H643.096V98H640.944ZM653.295 98.1491C652.523 98.1491 651.855 97.9851 651.292 97.657C650.732 97.3255 650.299 96.8648 649.994 96.2749C649.689 95.6816 649.537 94.9938 649.537 94.2116C649.537 93.4228 649.689 92.7334 649.994 92.1435C650.299 91.5502 650.732 91.0895 651.292 90.7614C651.855 90.4299 652.523 90.2642 653.295 90.2642C654.068 90.2642 654.734 90.4299 655.294 90.7614C655.857 91.0895 656.292 91.5502 656.597 92.1435C656.902 92.7334 657.054 93.4228 657.054 94.2116C657.054 94.9938 656.902 95.6816 656.597 96.2749C656.292 96.8648 655.857 97.3255 655.294 97.657C654.734 97.9851 654.068 98.1491 653.295 98.1491ZM653.305 96.5085C653.657 96.5085 653.95 96.4091 654.185 96.2102C654.421 96.008 654.598 95.733 654.717 95.3849C654.84 95.0369 654.901 94.6409 654.901 94.1967C654.901 93.7526 654.84 93.3565 654.717 93.0085C654.598 92.6605 654.421 92.3854 654.185 92.1832C653.95 91.9811 653.657 91.88 653.305 91.88C652.951 91.88 652.652 91.9811 652.411 92.1832C652.172 92.3854 651.991 92.6605 651.869 93.0085C651.749 93.3565 651.69 93.7526 651.69 94.1967C651.69 94.6409 651.749 95.0369 651.869 95.3849C651.991 95.733 652.172 96.008 652.411 96.2102C652.652 96.4091 652.951 96.5085 653.305 96.5085ZM661.881 98.1491C661.109 98.1491 660.441 97.9851 659.878 97.657C659.318 97.3255 658.885 96.8648 658.58 96.2749C658.275 95.6816 658.123 94.9938 658.123 94.2116C658.123 93.4228 658.275 92.7334 658.58 92.1435C658.885 91.5502 659.318 91.0895 659.878 90.7614C660.441 90.4299 661.109 90.2642 661.881 90.2642C662.654 90.2642 663.32 90.4299 663.88 90.7614C664.443 91.0895 664.878 91.5502 665.183 92.1435C665.487 92.7334 665.64 93.4228 665.64 94.2116C665.64 94.9938 665.487 95.6816 665.183 96.2749C664.878 96.8648 664.443 97.3255 663.88 97.657C663.32 97.9851 662.654 98.1491 661.881 98.1491ZM661.891 96.5085C662.243 96.5085 662.536 96.4091 662.771 96.2102C663.007 96.008 663.184 95.733 663.303 95.3849C663.426 95.0369 663.487 94.6409 663.487 94.1967C663.487 93.7526 663.426 93.3565 663.303 93.0085C663.184 92.6605 663.007 92.3854 662.771 92.1832C662.536 91.9811 662.243 91.88 661.891 91.88C661.537 91.88 661.238 91.9811 660.996 92.1832C660.758 92.3854 660.577 92.6605 660.455 93.0085C660.335 93.3565 660.276 93.7526 660.276 94.1967C660.276 94.6409 660.335 95.0369 660.455 95.3849C660.577 95.733 660.758 96.008 660.996 96.2102C661.238 96.4091 661.537 96.5085 661.891 96.5085ZM669.135 87.8182V98H667.017V87.8182H669.135Z" fill="black" fill-opacity="0.7"/>
<defs>
<filter id="filter0_i_283_96" x="61.3926" y="40.5459" width="115.797" height="71.8145" filterUnits="userSpaceOnUse" color-interpolation-filters="sRGB">
<feFlood flood-opacity="0" result="BackgroundImageFix"/>
<feBlend mode="normal" in="SourceGraphic" in2="BackgroundImageFix" result="shape"/>
<feColorMatrix in="SourceAlpha" type="matrix" values="0 0 0 0 0 0 0 0 0 0 0 0 0 0 0 0 0 0 127 0" result="hardAlpha"/>
<feOffset dy="4"/>
<feGaussianBlur stdDeviation="2"/>
<feComposite in2="hardAlpha" operator="arithmetic" k2="-1" k3="1"/>
<feColorMatrix type="matrix" values="0 0 0 0 0 0 0 0 0 0 0 0 0 0 0 0 0 0 0.25 0"/>
<feBlend mode="normal" in2="shape" result="effect1_innerShadow_283_96"/>
</filter>
<clipPath id="clip0_283_96">
<rect width="10" height="19" fill="white" transform="translate(151 137)"/>
</clipPath>
</defs>
</svg>
